solid OpenSCAD_Model
  facet normal -1 0 0
    outer loop
      vertex 0 0 -3
      vertex 0 0 3
      vertex 0 6.5 -3
    endloop
  endfacet
  facet normal -1 0 0
    outer loop
      vertex 0 10.8704 0.390041
      vertex 0 0 3
      vertex 0 96.2 3
    endloop
  endfacet
  facet normal -1 0 0
    outer loop
      vertex 0 89.7 -3
      vertex 0 96.2 3
      vertex 0 96.2 -3
    endloop
  endfacet
  facet normal -1 0 0
    outer loop
      vertex 0 89.6931 -2.78023
      vertex 0 96.2 3
      vertex 0 89.7 -3
    endloop
  endfacet
  facet normal -1 0 0
    outer loop
      vertex 0 89.6724 -2.56133
      vertex 0 96.2 3
      vertex 0 89.6931 -2.78023
    endloop
  endfacet
  facet normal -1 0 0
    outer loop
      vertex 0 89.638 -2.34416
      vertex 0 96.2 3
      vertex 0 89.6724 -2.56133
    endloop
  endfacet
  facet normal -1 0 0
    outer loop
      vertex 0 89.59 -2.12958
      vertex 0 96.2 3
      vertex 0 89.638 -2.34416
    endloop
  endfacet
  facet normal -1 0 0
    outer loop
      vertex 0 89.5287 -1.91844
      vertex 0 96.2 3
      vertex 0 89.59 -2.12958
    endloop
  endfacet
  facet normal -1 0 0
    outer loop
      vertex 0 89.4542 -1.71156
      vertex 0 96.2 3
      vertex 0 89.5287 -1.91844
    endloop
  endfacet
  facet normal -1 0 0
    outer loop
      vertex 0 89.3669 -1.50977
      vertex 0 96.2 3
      vertex 0 89.4542 -1.71156
    endloop
  endfacet
  facet normal -1 0 0
    outer loop
      vertex 0 89.2671 -1.31386
      vertex 0 96.2 3
      vertex 0 89.3669 -1.50977
    endloop
  endfacet
  facet normal -1 0 0
    outer loop
      vertex 0 89.1551 -1.12461
      vertex 0 96.2 3
      vertex 0 89.2671 -1.31386
    endloop
  endfacet
  facet normal -1 0 0
    outer loop
      vertex 0 89.0316 -0.942752
      vertex 0 96.2 3
      vertex 0 89.1551 -1.12461
    endloop
  endfacet
  facet normal -1 0 0
    outer loop
      vertex 0 88.8968 -0.769016
      vertex 0 96.2 3
      vertex 0 89.0316 -0.942752
    endloop
  endfacet
  facet normal -1 0 0
    outer loop
      vertex 0 88.7514 -0.604085
      vertex 0 96.2 3
      vertex 0 88.8968 -0.769016
    endloop
  endfacet
  facet normal -1 0 0
    outer loop
      vertex 0 88.5959 -0.44861
      vertex 0 96.2 3
      vertex 0 88.7514 -0.604085
    endloop
  endfacet
  facet normal -1 0 0
    outer loop
      vertex 0 88.431 -0.303204
      vertex 0 96.2 3
      vertex 0 88.5959 -0.44861
    endloop
  endfacet
  facet normal -1 0 0
    outer loop
      vertex 0 88.2572 -0.168441
      vertex 0 96.2 3
      vertex 0 88.431 -0.303204
    endloop
  endfacet
  facet normal -1 0 0
    outer loop
      vertex 0 88.0754 -0.044852
      vertex 0 96.2 3
      vertex 0 88.2572 -0.168441
    endloop
  endfacet
  facet normal -1 0 0
    outer loop
      vertex 0 87.8861 0.067073
      vertex 0 96.2 3
      vertex 0 88.0754 -0.044852
    endloop
  endfacet
  facet normal -1 0 0
    outer loop
      vertex 0 87.6902 0.166895
      vertex 0 96.2 3
      vertex 0 87.8861 0.067073
    endloop
  endfacet
  facet normal -1 0 0
    outer loop
      vertex 0 87.4884 0.254218
      vertex 0 96.2 3
      vertex 0 87.6902 0.166895
    endloop
  endfacet
  facet normal -1 0 0
    outer loop
      vertex 0 87.2816 0.328698
      vertex 0 96.2 3
      vertex 0 87.4884 0.254218
    endloop
  endfacet
  facet normal -1 0 0
    outer loop
      vertex 0 87.0704 0.390041
      vertex 0 96.2 3
      vertex 0 87.2816 0.328698
    endloop
  endfacet
  facet normal -1 0 0
    outer loop
      vertex 0 86.8558 0.438005
      vertex 0 96.2 3
      vertex 0 87.0704 0.390041
    endloop
  endfacet
  facet normal -1 0 0
    outer loop
      vertex 0 86.6387 0.472401
      vertex 0 96.2 3
      vertex 0 86.8558 0.438005
    endloop
  endfacet
  facet normal -1 0 0
    outer loop
      vertex 0 86.4198 0.493094
      vertex 0 96.2 3
      vertex 0 86.6387 0.472401
    endloop
  endfacet
  facet normal -1 0 0
    outer loop
      vertex 0 86.2 0.5
      vertex 0 96.2 3
      vertex 0 86.4198 0.493094
    endloop
  endfacet
  facet normal -1 0 0
    outer loop
      vertex 0 85.9802 0.493094
      vertex 0 96.2 3
      vertex 0 86.2 0.5
    endloop
  endfacet
  facet normal -1 0 0
    outer loop
      vertex 0 13.4724 -2.56133
      vertex 0 96.2 3
      vertex 0 85.9802 0.493094
    endloop
  endfacet
  facet normal -1 0 0
    outer loop
      vertex 0 13.4724 -2.56133
      vertex 0 85.9802 0.493094
      vertex 0 85.7613 0.472401
    endloop
  endfacet
  facet normal -1 0 0
    outer loop
      vertex 0 13.4931 -2.78023
      vertex 0 83.1329 -1.31386
      vertex 0 83.0331 -1.50977
    endloop
  endfacet
  facet normal -1 0 0
    outer loop
      vertex 0 13.4724 -2.56133
      vertex 0 85.7613 0.472401
      vertex 0 85.5442 0.438005
    endloop
  endfacet
  facet normal -1 0 0
    outer loop
      vertex 0 13.4724 -2.56133
      vertex 0 85.5442 0.438005
      vertex 0 85.3296 0.390041
    endloop
  endfacet
  facet normal -1 0 0
    outer loop
      vertex 0 13.4724 -2.56133
      vertex 0 85.3296 0.390041
      vertex 0 85.1184 0.328698
    endloop
  endfacet
  facet normal -1 0 0
    outer loop
      vertex 0 13.4724 -2.56133
      vertex 0 85.1184 0.328698
      vertex 0 84.9116 0.254218
    endloop
  endfacet
  facet normal -1 0 0
    outer loop
      vertex 0 13.4724 -2.56133
      vertex 0 84.9116 0.254218
      vertex 0 84.7098 0.166895
    endloop
  endfacet
  facet normal -1 0 0
    outer loop
      vertex 0 13.4724 -2.56133
      vertex 0 84.7098 0.166895
      vertex 0 84.5139 0.067073
    endloop
  endfacet
  facet normal -1 0 0
    outer loop
      vertex 0 13.4724 -2.56133
      vertex 0 84.5139 0.067073
      vertex 0 84.3246 -0.044852
    endloop
  endfacet
  facet normal -1 0 0
    outer loop
      vertex 0 13.4724 -2.56133
      vertex 0 84.3246 -0.044852
      vertex 0 84.1428 -0.168441
    endloop
  endfacet
  facet normal -1 0 0
    outer loop
      vertex 0 13.4724 -2.56133
      vertex 0 84.1428 -0.168441
      vertex 0 83.969 -0.303204
    endloop
  endfacet
  facet normal -1 0 0
    outer loop
      vertex 0 13.4724 -2.56133
      vertex 0 83.969 -0.303204
      vertex 0 83.8041 -0.44861
    endloop
  endfacet
  facet normal -1 0 0
    outer loop
      vertex 0 13.4724 -2.56133
      vertex 0 83.8041 -0.44861
      vertex 0 13.4931 -2.78023
    endloop
  endfacet
  facet normal -1 0 0
    outer loop
      vertex 0 82.7 -3
      vertex 0 13.5 -3
      vertex 0 82.7069 -2.78023
    endloop
  endfacet
  facet normal -1 0 0
    outer loop
      vertex 0 13.4931 -2.78023
      vertex 0 83.5032 -0.769016
      vertex 0 83.3684 -0.942752
    endloop
  endfacet
  facet normal -1 0 0
    outer loop
      vertex 0 13.4931 -2.78023
      vertex 0 83.3684 -0.942752
      vertex 0 83.2449 -1.12461
    endloop
  endfacet
  facet normal -1 0 0
    outer loop
      vertex 0 13.4931 -2.78023
      vertex 0 83.6486 -0.604085
      vertex 0 83.5032 -0.769016
    endloop
  endfacet
  facet normal -1 0 0
    outer loop
      vertex 0 13.4931 -2.78023
      vertex 0 83.2449 -1.12461
      vertex 0 83.1329 -1.31386
    endloop
  endfacet
  facet normal -1 0 0
    outer loop
      vertex 0 13.438 -2.34416
      vertex 0 96.2 3
      vertex 0 13.4724 -2.56133
    endloop
  endfacet
  facet normal -1 0 0
    outer loop
      vertex 0 10.4387 0.472401
      vertex 0 0 3
      vertex 0 10.6558 0.438005
    endloop
  endfacet
  facet normal -1 0 0
    outer loop
      vertex 0 13.438 -2.34416
      vertex 0 13.39 -2.12958
      vertex 0 96.2 3
    endloop
  endfacet
  facet normal -1 0 0
    outer loop
      vertex 0 7.94275 -0.168441
      vertex 0 0 3
      vertex 0 8.12461 -0.044852
    endloop
  endfacet
  facet normal -1 0 0
    outer loop
      vertex 0 13.39 -2.12958
      vertex 0 13.3287 -1.91844
      vertex 0 96.2 3
    endloop
  endfacet
  facet normal -1 0 0
    outer loop
      vertex 0 13.3287 -1.91844
      vertex 0 13.2542 -1.71156
      vertex 0 96.2 3
    endloop
  endfacet
  facet normal -1 0 0
    outer loop
      vertex 0 8.12461 -0.044852
      vertex 0 0 3
      vertex 0 8.31386 0.067073
    endloop
  endfacet
  facet normal -1 0 0
    outer loop
      vertex 0 13.2542 -1.71156
      vertex 0 13.1669 -1.50977
      vertex 0 96.2 3
    endloop
  endfacet
  facet normal -1 0 0
    outer loop
      vertex 0 8.31386 0.067073
      vertex 0 0 3
      vertex 0 8.50977 0.166895
    endloop
  endfacet
  facet normal -1 0 0
    outer loop
      vertex 0 13.1669 -1.50977
      vertex 0 13.0671 -1.31386
      vertex 0 96.2 3
    endloop
  endfacet
  facet normal -1 0 0
    outer loop
      vertex 0 13.0671 -1.31386
      vertex 0 12.9551 -1.12461
      vertex 0 96.2 3
    endloop
  endfacet
  facet normal -1 0 0
    outer loop
      vertex 0 8.50977 0.166895
      vertex 0 0 3
      vertex 0 8.71156 0.254218
    endloop
  endfacet
  facet normal -1 0 0
    outer loop
      vertex 0 12.9551 -1.12461
      vertex 0 12.8316 -0.942752
      vertex 0 96.2 3
    endloop
  endfacet
  facet normal -1 0 0
    outer loop
      vertex 0 8.71156 0.254218
      vertex 0 0 3
      vertex 0 8.91844 0.328698
    endloop
  endfacet
  facet normal -1 0 0
    outer loop
      vertex 0 12.8316 -0.942752
      vertex 0 12.6968 -0.769016
      vertex 0 96.2 3
    endloop
  endfacet
  facet normal -1 0 0
    outer loop
      vertex 0 12.6968 -0.769016
      vertex 0 12.5514 -0.604085
      vertex 0 96.2 3
    endloop
  endfacet
  facet normal -1 0 0
    outer loop
      vertex 0 8.91844 0.328698
      vertex 0 0 3
      vertex 0 9.12958 0.390041
    endloop
  endfacet
  facet normal -1 0 0
    outer loop
      vertex 0 12.5514 -0.604085
      vertex 0 12.3959 -0.44861
      vertex 0 96.2 3
    endloop
  endfacet
  facet normal -1 0 0
    outer loop
      vertex 0 9.12958 0.390041
      vertex 0 0 3
      vertex 0 9.34416 0.438005
    endloop
  endfacet
  facet normal -1 0 0
    outer loop
      vertex 0 12.3959 -0.44861
      vertex 0 12.231 -0.303204
      vertex 0 96.2 3
    endloop
  endfacet
  facet normal -1 0 0
    outer loop
      vertex 0 9.34416 0.438005
      vertex 0 0 3
      vertex 0 9.56133 0.472401
    endloop
  endfacet
  facet normal -1 0 0
    outer loop
      vertex 0 12.231 -0.303204
      vertex 0 12.0572 -0.168441
      vertex 0 96.2 3
    endloop
  endfacet
  facet normal -1 0 0
    outer loop
      vertex 0 12.0572 -0.168441
      vertex 0 11.8754 -0.044852
      vertex 0 96.2 3
    endloop
  endfacet
  facet normal -1 0 0
    outer loop
      vertex 0 9.56133 0.472401
      vertex 0 0 3
      vertex 0 9.78023 0.493094
    endloop
  endfacet
  facet normal -1 0 0
    outer loop
      vertex 0 11.8754 -0.044852
      vertex 0 11.6861 0.067073
      vertex 0 96.2 3
    endloop
  endfacet
  facet normal -1 0 0
    outer loop
      vertex 0 9.78023 0.493094
      vertex 0 0 3
      vertex 0 10 0.5
    endloop
  endfacet
  facet normal -1 0 0
    outer loop
      vertex 0 11.6861 0.067073
      vertex 0 11.4902 0.166895
      vertex 0 96.2 3
    endloop
  endfacet
  facet normal -1 0 0
    outer loop
      vertex 0 10 0.5
      vertex 0 0 3
      vertex 0 10.2198 0.493094
    endloop
  endfacet
  facet normal -1 0 0
    outer loop
      vertex 0 11.4902 0.166895
      vertex 0 11.2884 0.254218
      vertex 0 96.2 3
    endloop
  endfacet
  facet normal -1 0 0
    outer loop
      vertex 0 10.2198 0.493094
      vertex 0 0 3
      vertex 0 10.4387 0.472401
    endloop
  endfacet
  facet normal -1 0 0
    outer loop
      vertex 0 11.2884 0.254218
      vertex 0 11.0816 0.328698
      vertex 0 96.2 3
    endloop
  endfacet
  facet normal -1 0 0
    outer loop
      vertex 0 10.6558 0.438005
      vertex 0 0 3
      vertex 0 10.8704 0.390041
    endloop
  endfacet
  facet normal -1 0 0
    outer loop
      vertex 0 11.0816 0.328698
      vertex 0 10.8704 0.390041
      vertex 0 96.2 3
    endloop
  endfacet
  facet normal -1 0 0
    outer loop
      vertex 0 7.76902 -0.303204
      vertex 0 0 3
      vertex 0 7.94275 -0.168441
    endloop
  endfacet
  facet normal -1 0 0
    outer loop
      vertex 0 7.60408 -0.44861
      vertex 0 0 3
      vertex 0 7.76902 -0.303204
    endloop
  endfacet
  facet normal -1 0 0
    outer loop
      vertex 0 7.44861 -0.604085
      vertex 0 0 3
      vertex 0 7.60408 -0.44861
    endloop
  endfacet
  facet normal -1 0 0
    outer loop
      vertex 0 7.3032 -0.769016
      vertex 0 0 3
      vertex 0 7.44861 -0.604085
    endloop
  endfacet
  facet normal -1 0 0
    outer loop
      vertex 0 7.16844 -0.942752
      vertex 0 0 3
      vertex 0 7.3032 -0.769016
    endloop
  endfacet
  facet normal -1 0 0
    outer loop
      vertex 0 7.04485 -1.12461
      vertex 0 0 3
      vertex 0 7.16844 -0.942752
    endloop
  endfacet
  facet normal -1 0 0
    outer loop
      vertex 0 6.93293 -1.31386
      vertex 0 0 3
      vertex 0 7.04485 -1.12461
    endloop
  endfacet
  facet normal -1 0 0
    outer loop
      vertex 0 6.8331 -1.50977
      vertex 0 0 3
      vertex 0 6.93293 -1.31386
    endloop
  endfacet
  facet normal -1 0 0
    outer loop
      vertex 0 6.74578 -1.71156
      vertex 0 0 3
      vertex 0 6.8331 -1.50977
    endloop
  endfacet
  facet normal -1 0 0
    outer loop
      vertex 0 6.6713 -1.91844
      vertex 0 0 3
      vertex 0 6.74578 -1.71156
    endloop
  endfacet
  facet normal -1 0 0
    outer loop
      vertex 0 6.60996 -2.12958
      vertex 0 0 3
      vertex 0 6.6713 -1.91844
    endloop
  endfacet
  facet normal -1 0 0
    outer loop
      vertex 0 6.56199 -2.34416
      vertex 0 0 3
      vertex 0 6.60996 -2.12958
    endloop
  endfacet
  facet normal -1 0 0
    outer loop
      vertex 0 6.5276 -2.56133
      vertex 0 0 3
      vertex 0 6.56199 -2.34416
    endloop
  endfacet
  facet normal -1 0 0
    outer loop
      vertex 0 6.50691 -2.78023
      vertex 0 0 3
      vertex 0 6.5276 -2.56133
    endloop
  endfacet
  facet normal -1 0 0
    outer loop
      vertex 0 6.5 -3
      vertex 0 0 3
      vertex 0 6.50691 -2.78023
    endloop
  endfacet
  facet normal -1 0 0
    outer loop
      vertex 0 83.6486 -0.604085
      vertex 0 13.4931 -2.78023
      vertex 0 83.8041 -0.44861
    endloop
  endfacet
  facet normal -1 0 0
    outer loop
      vertex 0 13.4931 -2.78023
      vertex 0 83.0331 -1.50977
      vertex 0 82.9458 -1.71156
    endloop
  endfacet
  facet normal -1 0 0
    outer loop
      vertex 0 13.4931 -2.78023
      vertex 0 82.9458 -1.71156
      vertex 0 82.8713 -1.91844
    endloop
  endfacet
  facet normal -1 0 0
    outer loop
      vertex 0 13.4931 -2.78023
      vertex 0 82.8713 -1.91844
      vertex 0 82.81 -2.12958
    endloop
  endfacet
  facet normal -1 0 0
    outer loop
      vertex 0 13.4931 -2.78023
      vertex 0 82.81 -2.12958
      vertex 0 82.762 -2.34416
    endloop
  endfacet
  facet normal -1 0 0
    outer loop
      vertex 0 13.4931 -2.78023
      vertex 0 82.762 -2.34416
      vertex 0 82.7276 -2.56133
    endloop
  endfacet
  facet normal -1 0 0
    outer loop
      vertex 0 13.4931 -2.78023
      vertex 0 82.7276 -2.56133
      vertex 0 82.7069 -2.78023
    endloop
  endfacet
  facet normal -1 0 0
    outer loop
      vertex 0 13.4931 -2.78023
      vertex 0 82.7069 -2.78023
      vertex 0 13.5 -3
    endloop
  endfacet
  facet normal 0 -1 0
    outer loop
      vertex 0 0 3
      vertex 0 0 -3
      vertex 106.2 0 -3
    endloop
  endfacet
  facet normal 0 -1 0
    outer loop
      vertex 106.2 0 3
      vertex 0 0 3
      vertex 106.2 0 -3
    endloop
  endfacet
  facet normal 0 0 -1
    outer loop
      vertex 0 0 -3
      vertex 0 6.5 -3
      vertex 106.2 0 -3
    endloop
  endfacet
  facet normal 0 0 -1
    outer loop
      vertex 106.2 0 -3
      vertex 0 6.5 -3
      vertex 106.2 6.5 -3
    endloop
  endfacet
  facet normal 6.97413e-018 0.999507 -0.0314087
    outer loop
      vertex 106.2 6.50691 -2.78023
      vertex 106.2 6.5 -3
      vertex 0 6.50691 -2.78023
    endloop
  endfacet
  facet normal 6.97413e-018 0.999507 -0.0314087
    outer loop
      vertex 0 6.50691 -2.78023
      vertex 106.2 6.5 -3
      vertex 0 6.5 -3
    endloop
  endfacet
  facet normal 2.08972e-017 0.995562 -0.0941126
    outer loop
      vertex 106.2 6.5276 -2.56133
      vertex 106.2 6.50691 -2.78023
      vertex 0 6.5276 -2.56133
    endloop
  endfacet
  facet normal 2.08972e-017 0.995562 -0.0941126
    outer loop
      vertex 0 6.5276 -2.56133
      vertex 106.2 6.50691 -2.78023
      vertex 0 6.50691 -2.78023
    endloop
  endfacet
  facet normal 3.47352e-017 0.987688 -0.156434
    outer loop
      vertex 106.2 6.56199 -2.34416
      vertex 106.2 6.5276 -2.56133
      vertex 0 6.56199 -2.34416
    endloop
  endfacet
  facet normal 3.47352e-017 0.987688 -0.156434
    outer loop
      vertex 0 6.56199 -2.34416
      vertex 106.2 6.5276 -2.56133
      vertex 0 6.5276 -2.56133
    endloop
  endfacet
  facet normal 4.84372e-017 0.975917 -0.218142
    outer loop
      vertex 106.2 6.60996 -2.12958
      vertex 106.2 6.56199 -2.34416
      vertex 0 6.60996 -2.12958
    endloop
  endfacet
  facet normal 4.84372e-017 0.975917 -0.218142
    outer loop
      vertex 0 6.60996 -2.12958
      vertex 106.2 6.56199 -2.34416
      vertex 0 6.56199 -2.34416
    endloop
  endfacet
  facet normal 6.19485e-017 0.960294 -0.278991
    outer loop
      vertex 106.2 6.6713 -1.91844
      vertex 106.2 6.60996 -2.12958
      vertex 0 6.6713 -1.91844
    endloop
  endfacet
  facet normal 6.19485e-017 0.960294 -0.278991
    outer loop
      vertex 0 6.6713 -1.91844
      vertex 106.2 6.60996 -2.12958
      vertex 0 6.60996 -2.12958
    endloop
  endfacet
  facet normal 7.52147e-017 0.940881 -0.338737
    outer loop
      vertex 106.2 6.74578 -1.71156
      vertex 106.2 6.6713 -1.91844
      vertex 0 6.74578 -1.71156
    endloop
  endfacet
  facet normal 7.52147e-017 0.940881 -0.338737
    outer loop
      vertex 0 6.74578 -1.71156
      vertex 106.2 6.6713 -1.91844
      vertex 0 6.6713 -1.91844
    endloop
  endfacet
  facet normal 8.81844e-017 0.917755 -0.397147
    outer loop
      vertex 106.2 6.8331 -1.50977
      vertex 106.2 6.74578 -1.71156
      vertex 0 6.8331 -1.50977
    endloop
  endfacet
  facet normal 8.81844e-017 0.917755 -0.397147
    outer loop
      vertex 0 6.8331 -1.50977
      vertex 106.2 6.74578 -1.71156
      vertex 0 6.74578 -1.71156
    endloop
  endfacet
  facet normal 1.00807e-016 0.891005 -0.453994
    outer loop
      vertex 106.2 6.93293 -1.31386
      vertex 106.2 6.8331 -1.50977
      vertex 0 6.93293 -1.31386
    endloop
  endfacet
  facet normal 1.00807e-016 0.891005 -0.453994
    outer loop
      vertex 0 6.93293 -1.31386
      vertex 106.2 6.8331 -1.50977
      vertex 0 6.8331 -1.50977
    endloop
  endfacet
  facet normal 1.13029e-016 0.860743 -0.509039
    outer loop
      vertex 106.2 7.04485 -1.12461
      vertex 106.2 6.93293 -1.31386
      vertex 0 7.04485 -1.12461
    endloop
  endfacet
  facet normal 1.13029e-016 0.860743 -0.509039
    outer loop
      vertex 0 7.04485 -1.12461
      vertex 106.2 6.93293 -1.31386
      vertex 0 6.93293 -1.31386
    endloop
  endfacet
  facet normal 1.24808e-016 0.827078 -0.562087
    outer loop
      vertex 106.2 7.16844 -0.942752
      vertex 106.2 7.04485 -1.12461
      vertex 0 7.16844 -0.942752
    endloop
  endfacet
  facet normal 1.24808e-016 0.827078 -0.562087
    outer loop
      vertex 0 7.16844 -0.942752
      vertex 106.2 7.04485 -1.12461
      vertex 0 7.04485 -1.12461
    endloop
  endfacet
  facet normal 1.36092e-016 0.790156 -0.612906
    outer loop
      vertex 106.2 7.3032 -0.769016
      vertex 106.2 7.16844 -0.942752
      vertex 0 7.3032 -0.769016
    endloop
  endfacet
  facet normal 1.36092e-016 0.790156 -0.612906
    outer loop
      vertex 0 7.3032 -0.769016
      vertex 106.2 7.16844 -0.942752
      vertex 0 7.16844 -0.942752
    endloop
  endfacet
  facet normal 1.46841e-016 0.750112 -0.661311
    outer loop
      vertex 106.2 7.44861 -0.604085
      vertex 106.2 7.3032 -0.769016
      vertex 0 7.44861 -0.604085
    endloop
  endfacet
  facet normal 1.46841e-016 0.750112 -0.661311
    outer loop
      vertex 0 7.44861 -0.604085
      vertex 106.2 7.3032 -0.769016
      vertex 0 7.3032 -0.769016
    endloop
  endfacet
  facet normal 1.57009e-016 0.707107 -0.707107
    outer loop
      vertex 106.2 7.60408 -0.44861
      vertex 106.2 7.44861 -0.604085
      vertex 0 7.60408 -0.44861
    endloop
  endfacet
  facet normal 1.57009e-016 0.707107 -0.707107
    outer loop
      vertex 0 7.60408 -0.44861
      vertex 106.2 7.44861 -0.604085
      vertex 0 7.44861 -0.604085
    endloop
  endfacet
  facet normal 1.66558e-016 0.661311 -0.750112
    outer loop
      vertex 106.2 7.76902 -0.303204
      vertex 106.2 7.60408 -0.44861
      vertex 0 7.76902 -0.303204
    endloop
  endfacet
  facet normal 1.66558e-016 0.661311 -0.750112
    outer loop
      vertex 0 7.76902 -0.303204
      vertex 106.2 7.60408 -0.44861
      vertex 0 7.60408 -0.44861
    endloop
  endfacet
  facet normal 1.7545e-016 0.612906 -0.790156
    outer loop
      vertex 106.2 7.94275 -0.168441
      vertex 106.2 7.76902 -0.303204
      vertex 0 7.94275 -0.168441
    endloop
  endfacet
  facet normal 1.7545e-016 0.612906 -0.790156
    outer loop
      vertex 0 7.94275 -0.168441
      vertex 106.2 7.76902 -0.303204
      vertex 0 7.76902 -0.303204
    endloop
  endfacet
  facet normal 1.83648e-016 0.562087 -0.827078
    outer loop
      vertex 106.2 8.12461 -0.044852
      vertex 106.2 7.94275 -0.168441
      vertex 0 8.12461 -0.044852
    endloop
  endfacet
  facet normal 1.83648e-016 0.562087 -0.827078
    outer loop
      vertex 0 8.12461 -0.044852
      vertex 106.2 7.94275 -0.168441
      vertex 0 7.94275 -0.168441
    endloop
  endfacet
  facet normal 1.91123e-016 0.509039 -0.860743
    outer loop
      vertex 106.2 8.31386 0.067073
      vertex 106.2 8.12461 -0.044852
      vertex 0 8.31386 0.067073
    endloop
  endfacet
  facet normal 1.91123e-016 0.509039 -0.860743
    outer loop
      vertex 0 8.31386 0.067073
      vertex 106.2 8.12461 -0.044852
      vertex 0 8.12461 -0.044852
    endloop
  endfacet
  facet normal 1.97843e-016 0.453994 -0.891005
    outer loop
      vertex 106.2 8.50977 0.166895
      vertex 106.2 8.31386 0.067073
      vertex 0 8.50977 0.166895
    endloop
  endfacet
  facet normal 1.97843e-016 0.453994 -0.891005
    outer loop
      vertex 0 8.50977 0.166895
      vertex 106.2 8.31386 0.067073
      vertex 0 8.31386 0.067073
    endloop
  endfacet
  facet normal 2.03783e-016 0.397147 -0.917755
    outer loop
      vertex 106.2 8.71156 0.254218
      vertex 106.2 8.50977 0.166895
      vertex 0 8.71156 0.254218
    endloop
  endfacet
  facet normal 2.03783e-016 0.397147 -0.917755
    outer loop
      vertex 0 8.71156 0.254218
      vertex 106.2 8.50977 0.166895
      vertex 0 8.50977 0.166895
    endloop
  endfacet
  facet normal 2.08918e-016 0.338737 -0.940881
    outer loop
      vertex 106.2 8.91844 0.328698
      vertex 106.2 8.71156 0.254218
      vertex 0 8.91844 0.328698
    endloop
  endfacet
  facet normal 2.08918e-016 0.338737 -0.940881
    outer loop
      vertex 0 8.91844 0.328698
      vertex 106.2 8.71156 0.254218
      vertex 0 8.71156 0.254218
    endloop
  endfacet
  facet normal 2.13228e-016 0.278991 -0.960294
    outer loop
      vertex 106.2 9.12958 0.390041
      vertex 106.2 8.91844 0.328698
      vertex 0 9.12958 0.390041
    endloop
  endfacet
  facet normal 2.13228e-016 0.278991 -0.960294
    outer loop
      vertex 0 9.12958 0.390041
      vertex 106.2 8.91844 0.328698
      vertex 0 8.91844 0.328698
    endloop
  endfacet
  facet normal 2.16697e-016 0.218142 -0.975917
    outer loop
      vertex 106.2 9.34416 0.438005
      vertex 106.2 9.12958 0.390041
      vertex 0 9.34416 0.438005
    endloop
  endfacet
  facet normal 2.16697e-016 0.218142 -0.975917
    outer loop
      vertex 0 9.34416 0.438005
      vertex 106.2 9.12958 0.390041
      vertex 0 9.12958 0.390041
    endloop
  endfacet
  facet normal 2.19311e-016 0.156434 -0.987688
    outer loop
      vertex 106.2 9.56133 0.472401
      vertex 106.2 9.34416 0.438005
      vertex 0 9.56133 0.472401
    endloop
  endfacet
  facet normal 2.19311e-016 0.156434 -0.987688
    outer loop
      vertex 0 9.56133 0.472401
      vertex 106.2 9.34416 0.438005
      vertex 0 9.34416 0.438005
    endloop
  endfacet
  facet normal 2.21059e-016 0.0941126 -0.995562
    outer loop
      vertex 106.2 9.78023 0.493094
      vertex 106.2 9.56133 0.472401
      vertex 0 9.78023 0.493094
    endloop
  endfacet
  facet normal 2.21059e-016 0.0941126 -0.995562
    outer loop
      vertex 0 9.78023 0.493094
      vertex 106.2 9.56133 0.472401
      vertex 0 9.56133 0.472401
    endloop
  endfacet
  facet normal 2.21935e-016 0.0314087 -0.999507
    outer loop
      vertex 106.2 10 0.5
      vertex 106.2 9.78023 0.493094
      vertex 0 10 0.5
    endloop
  endfacet
  facet normal 2.21935e-016 0.0314087 -0.999507
    outer loop
      vertex 0 10 0.5
      vertex 106.2 9.78023 0.493094
      vertex 0 9.78023 0.493094
    endloop
  endfacet
  facet normal 2.21935e-016 -0.0314087 -0.999507
    outer loop
      vertex 106.2 10.2198 0.493094
      vertex 106.2 10 0.5
      vertex 0 10.2198 0.493094
    endloop
  endfacet
  facet normal 2.21935e-016 -0.0314087 -0.999507
    outer loop
      vertex 0 10.2198 0.493094
      vertex 106.2 10 0.5
      vertex 0 10 0.5
    endloop
  endfacet
  facet normal 2.21059e-016 -0.0941126 -0.995562
    outer loop
      vertex 106.2 10.4387 0.472401
      vertex 106.2 10.2198 0.493094
      vertex 0 10.4387 0.472401
    endloop
  endfacet
  facet normal 2.21059e-016 -0.0941126 -0.995562
    outer loop
      vertex 0 10.4387 0.472401
      vertex 106.2 10.2198 0.493094
      vertex 0 10.2198 0.493094
    endloop
  endfacet
  facet normal 2.19311e-016 -0.156434 -0.987688
    outer loop
      vertex 106.2 10.6558 0.438005
      vertex 106.2 10.4387 0.472401
      vertex 0 10.6558 0.438005
    endloop
  endfacet
  facet normal 2.19311e-016 -0.156434 -0.987688
    outer loop
      vertex 0 10.6558 0.438005
      vertex 106.2 10.4387 0.472401
      vertex 0 10.4387 0.472401
    endloop
  endfacet
  facet normal 2.16697e-016 -0.218142 -0.975917
    outer loop
      vertex 106.2 10.8704 0.390041
      vertex 106.2 10.6558 0.438005
      vertex 0 10.8704 0.390041
    endloop
  endfacet
  facet normal 2.16697e-016 -0.218142 -0.975917
    outer loop
      vertex 0 10.8704 0.390041
      vertex 106.2 10.6558 0.438005
      vertex 0 10.6558 0.438005
    endloop
  endfacet
  facet normal 2.13228e-016 -0.278991 -0.960294
    outer loop
      vertex 106.2 11.0816 0.328698
      vertex 106.2 10.8704 0.390041
      vertex 0 11.0816 0.328698
    endloop
  endfacet
  facet normal 2.13228e-016 -0.278991 -0.960294
    outer loop
      vertex 0 11.0816 0.328698
      vertex 106.2 10.8704 0.390041
      vertex 0 10.8704 0.390041
    endloop
  endfacet
  facet normal 2.08918e-016 -0.338737 -0.940881
    outer loop
      vertex 106.2 11.2884 0.254218
      vertex 106.2 11.0816 0.328698
      vertex 0 11.2884 0.254218
    endloop
  endfacet
  facet normal 2.08918e-016 -0.338737 -0.940881
    outer loop
      vertex 0 11.2884 0.254218
      vertex 106.2 11.0816 0.328698
      vertex 0 11.0816 0.328698
    endloop
  endfacet
  facet normal 2.03783e-016 -0.397147 -0.917755
    outer loop
      vertex 106.2 11.4902 0.166895
      vertex 106.2 11.2884 0.254218
      vertex 0 11.4902 0.166895
    endloop
  endfacet
  facet normal 2.03783e-016 -0.397147 -0.917755
    outer loop
      vertex 0 11.4902 0.166895
      vertex 106.2 11.2884 0.254218
      vertex 0 11.2884 0.254218
    endloop
  endfacet
  facet normal 1.97843e-016 -0.453994 -0.891005
    outer loop
      vertex 106.2 11.6861 0.067073
      vertex 106.2 11.4902 0.166895
      vertex 0 11.6861 0.067073
    endloop
  endfacet
  facet normal 1.97843e-016 -0.453994 -0.891005
    outer loop
      vertex 0 11.6861 0.067073
      vertex 106.2 11.4902 0.166895
      vertex 0 11.4902 0.166895
    endloop
  endfacet
  facet normal 1.91123e-016 -0.509039 -0.860743
    outer loop
      vertex 106.2 11.8754 -0.044852
      vertex 106.2 11.6861 0.067073
      vertex 0 11.8754 -0.044852
    endloop
  endfacet
  facet normal 1.91123e-016 -0.509039 -0.860743
    outer loop
      vertex 0 11.8754 -0.044852
      vertex 106.2 11.6861 0.067073
      vertex 0 11.6861 0.067073
    endloop
  endfacet
  facet normal 1.83648e-016 -0.562087 -0.827078
    outer loop
      vertex 106.2 12.0572 -0.168441
      vertex 106.2 11.8754 -0.044852
      vertex 0 12.0572 -0.168441
    endloop
  endfacet
  facet normal 1.83648e-016 -0.562087 -0.827078
    outer loop
      vertex 0 12.0572 -0.168441
      vertex 106.2 11.8754 -0.044852
      vertex 0 11.8754 -0.044852
    endloop
  endfacet
  facet normal 1.7545e-016 -0.612906 -0.790156
    outer loop
      vertex 106.2 12.231 -0.303204
      vertex 106.2 12.0572 -0.168441
      vertex 0 12.231 -0.303204
    endloop
  endfacet
  facet normal 1.7545e-016 -0.612906 -0.790156
    outer loop
      vertex 0 12.231 -0.303204
      vertex 106.2 12.0572 -0.168441
      vertex 0 12.0572 -0.168441
    endloop
  endfacet
  facet normal 1.66558e-016 -0.661311 -0.750112
    outer loop
      vertex 106.2 12.3959 -0.44861
      vertex 106.2 12.231 -0.303204
      vertex 0 12.3959 -0.44861
    endloop
  endfacet
  facet normal 1.66558e-016 -0.661311 -0.750112
    outer loop
      vertex 0 12.3959 -0.44861
      vertex 106.2 12.231 -0.303204
      vertex 0 12.231 -0.303204
    endloop
  endfacet
  facet normal 1.57009e-016 -0.707107 -0.707107
    outer loop
      vertex 0 12.5514 -0.604085
      vertex 106.2 12.5514 -0.604085
      vertex 106.2 12.3959 -0.44861
    endloop
  endfacet
  facet normal 1.57009e-016 -0.707107 -0.707107
    outer loop
      vertex 0 12.3959 -0.44861
      vertex 0 12.5514 -0.604085
      vertex 106.2 12.3959 -0.44861
    endloop
  endfacet
  facet normal 1.46841e-016 -0.750112 -0.661311
    outer loop
      vertex 0 12.6968 -0.769016
      vertex 106.2 12.6968 -0.769016
      vertex 106.2 12.5514 -0.604085
    endloop
  endfacet
  facet normal 1.46841e-016 -0.750112 -0.661311
    outer loop
      vertex 0 12.5514 -0.604085
      vertex 0 12.6968 -0.769016
      vertex 106.2 12.5514 -0.604085
    endloop
  endfacet
  facet normal 1.36092e-016 -0.790156 -0.612906
    outer loop
      vertex 0 12.8316 -0.942752
      vertex 106.2 12.8316 -0.942752
      vertex 106.2 12.6968 -0.769016
    endloop
  endfacet
  facet normal 1.36092e-016 -0.790156 -0.612906
    outer loop
      vertex 0 12.6968 -0.769016
      vertex 0 12.8316 -0.942752
      vertex 106.2 12.6968 -0.769016
    endloop
  endfacet
  facet normal 1.24808e-016 -0.827078 -0.562087
    outer loop
      vertex 0 12.9551 -1.12461
      vertex 106.2 12.9551 -1.12461
      vertex 106.2 12.8316 -0.942752
    endloop
  endfacet
  facet normal 1.24808e-016 -0.827078 -0.562087
    outer loop
      vertex 0 12.8316 -0.942752
      vertex 0 12.9551 -1.12461
      vertex 106.2 12.8316 -0.942752
    endloop
  endfacet
  facet normal 1.13029e-016 -0.860743 -0.509039
    outer loop
      vertex 0 13.0671 -1.31386
      vertex 106.2 13.0671 -1.31386
      vertex 106.2 12.9551 -1.12461
    endloop
  endfacet
  facet normal 1.13029e-016 -0.860743 -0.509039
    outer loop
      vertex 0 12.9551 -1.12461
      vertex 0 13.0671 -1.31386
      vertex 106.2 12.9551 -1.12461
    endloop
  endfacet
  facet normal 1.00807e-016 -0.891005 -0.453994
    outer loop
      vertex 0 13.1669 -1.50977
      vertex 106.2 13.1669 -1.50977
      vertex 106.2 13.0671 -1.31386
    endloop
  endfacet
  facet normal 1.00807e-016 -0.891005 -0.453994
    outer loop
      vertex 0 13.0671 -1.31386
      vertex 0 13.1669 -1.50977
      vertex 106.2 13.0671 -1.31386
    endloop
  endfacet
  facet normal 8.81844e-017 -0.917755 -0.397147
    outer loop
      vertex 0 13.2542 -1.71156
      vertex 106.2 13.2542 -1.71156
      vertex 106.2 13.1669 -1.50977
    endloop
  endfacet
  facet normal 8.81844e-017 -0.917755 -0.397147
    outer loop
      vertex 0 13.1669 -1.50977
      vertex 0 13.2542 -1.71156
      vertex 106.2 13.1669 -1.50977
    endloop
  endfacet
  facet normal 7.52147e-017 -0.940881 -0.338737
    outer loop
      vertex 0 13.3287 -1.91844
      vertex 106.2 13.3287 -1.91844
      vertex 106.2 13.2542 -1.71156
    endloop
  endfacet
  facet normal 7.52147e-017 -0.940881 -0.338737
    outer loop
      vertex 0 13.2542 -1.71156
      vertex 0 13.3287 -1.91844
      vertex 106.2 13.2542 -1.71156
    endloop
  endfacet
  facet normal 6.19485e-017 -0.960294 -0.278991
    outer loop
      vertex 0 13.39 -2.12958
      vertex 106.2 13.39 -2.12958
      vertex 106.2 13.3287 -1.91844
    endloop
  endfacet
  facet normal 6.19485e-017 -0.960294 -0.278991
    outer loop
      vertex 0 13.3287 -1.91844
      vertex 0 13.39 -2.12958
      vertex 106.2 13.3287 -1.91844
    endloop
  endfacet
  facet normal 4.84372e-017 -0.975917 -0.218142
    outer loop
      vertex 0 13.438 -2.34416
      vertex 106.2 13.438 -2.34416
      vertex 106.2 13.39 -2.12958
    endloop
  endfacet
  facet normal 4.84372e-017 -0.975917 -0.218142
    outer loop
      vertex 0 13.39 -2.12958
      vertex 0 13.438 -2.34416
      vertex 106.2 13.39 -2.12958
    endloop
  endfacet
  facet normal 3.47352e-017 -0.987688 -0.156434
    outer loop
      vertex 0 13.4724 -2.56133
      vertex 106.2 13.4724 -2.56133
      vertex 106.2 13.438 -2.34416
    endloop
  endfacet
  facet normal 3.47352e-017 -0.987688 -0.156434
    outer loop
      vertex 0 13.438 -2.34416
      vertex 0 13.4724 -2.56133
      vertex 106.2 13.438 -2.34416
    endloop
  endfacet
  facet normal 2.08972e-017 -0.995562 -0.0941126
    outer loop
      vertex 0 13.4931 -2.78023
      vertex 106.2 13.4931 -2.78023
      vertex 106.2 13.4724 -2.56133
    endloop
  endfacet
  facet normal 2.08972e-017 -0.995562 -0.0941126
    outer loop
      vertex 0 13.4724 -2.56133
      vertex 0 13.4931 -2.78023
      vertex 106.2 13.4724 -2.56133
    endloop
  endfacet
  facet normal 6.97413e-018 -0.999507 -0.0314087
    outer loop
      vertex 0 13.5 -3
      vertex 106.2 13.5 -3
      vertex 106.2 13.4931 -2.78023
    endloop
  endfacet
  facet normal 6.97413e-018 -0.999507 -0.0314087
    outer loop
      vertex 0 13.4931 -2.78023
      vertex 0 13.5 -3
      vertex 106.2 13.4931 -2.78023
    endloop
  endfacet
  facet normal 0 0 -1
    outer loop
      vertex 0 13.5 -3
      vertex 0 82.7 -3
      vertex 106.2 13.5 -3
    endloop
  endfacet
  facet normal 0 0 -1
    outer loop
      vertex 106.2 13.5 -3
      vertex 0 82.7 -3
      vertex 106.2 82.7 -3
    endloop
  endfacet
  facet normal 6.97413e-018 0.999507 -0.0314087
    outer loop
      vertex 106.2 82.7069 -2.78023
      vertex 106.2 82.7 -3
      vertex 0 82.7069 -2.78023
    endloop
  endfacet
  facet normal 6.97413e-018 0.999507 -0.0314087
    outer loop
      vertex 0 82.7069 -2.78023
      vertex 106.2 82.7 -3
      vertex 0 82.7 -3
    endloop
  endfacet
  facet normal 2.08972e-017 0.995562 -0.0941126
    outer loop
      vertex 106.2 82.7276 -2.56133
      vertex 106.2 82.7069 -2.78023
      vertex 0 82.7276 -2.56133
    endloop
  endfacet
  facet normal 2.08972e-017 0.995562 -0.0941126
    outer loop
      vertex 0 82.7276 -2.56133
      vertex 106.2 82.7069 -2.78023
      vertex 0 82.7069 -2.78023
    endloop
  endfacet
  facet normal 3.47352e-017 0.987688 -0.156434
    outer loop
      vertex 106.2 82.762 -2.34416
      vertex 106.2 82.7276 -2.56133
      vertex 0 82.762 -2.34416
    endloop
  endfacet
  facet normal 3.47352e-017 0.987688 -0.156434
    outer loop
      vertex 0 82.762 -2.34416
      vertex 106.2 82.7276 -2.56133
      vertex 0 82.7276 -2.56133
    endloop
  endfacet
  facet normal 4.84372e-017 0.975917 -0.218142
    outer loop
      vertex 106.2 82.81 -2.12958
      vertex 106.2 82.762 -2.34416
      vertex 0 82.81 -2.12958
    endloop
  endfacet
  facet normal 4.84372e-017 0.975917 -0.218142
    outer loop
      vertex 0 82.81 -2.12958
      vertex 106.2 82.762 -2.34416
      vertex 0 82.762 -2.34416
    endloop
  endfacet
  facet normal 6.19485e-017 0.960294 -0.278991
    outer loop
      vertex 106.2 82.8713 -1.91844
      vertex 106.2 82.81 -2.12958
      vertex 0 82.8713 -1.91844
    endloop
  endfacet
  facet normal 6.19485e-017 0.960294 -0.278991
    outer loop
      vertex 0 82.8713 -1.91844
      vertex 106.2 82.81 -2.12958
      vertex 0 82.81 -2.12958
    endloop
  endfacet
  facet normal 7.52147e-017 0.940881 -0.338737
    outer loop
      vertex 106.2 82.9458 -1.71156
      vertex 106.2 82.8713 -1.91844
      vertex 0 82.9458 -1.71156
    endloop
  endfacet
  facet normal 7.52147e-017 0.940881 -0.338737
    outer loop
      vertex 0 82.9458 -1.71156
      vertex 106.2 82.8713 -1.91844
      vertex 0 82.8713 -1.91844
    endloop
  endfacet
  facet normal 8.81844e-017 0.917755 -0.397147
    outer loop
      vertex 106.2 83.0331 -1.50977
      vertex 106.2 82.9458 -1.71156
      vertex 0 83.0331 -1.50977
    endloop
  endfacet
  facet normal 8.81844e-017 0.917755 -0.397147
    outer loop
      vertex 0 83.0331 -1.50977
      vertex 106.2 82.9458 -1.71156
      vertex 0 82.9458 -1.71156
    endloop
  endfacet
  facet normal 1.00807e-016 0.891005 -0.453994
    outer loop
      vertex 106.2 83.1329 -1.31386
      vertex 106.2 83.0331 -1.50977
      vertex 0 83.1329 -1.31386
    endloop
  endfacet
  facet normal 1.00807e-016 0.891005 -0.453994
    outer loop
      vertex 0 83.1329 -1.31386
      vertex 106.2 83.0331 -1.50977
      vertex 0 83.0331 -1.50977
    endloop
  endfacet
  facet normal 1.13029e-016 0.860743 -0.509039
    outer loop
      vertex 106.2 83.2449 -1.12461
      vertex 106.2 83.1329 -1.31386
      vertex 0 83.2449 -1.12461
    endloop
  endfacet
  facet normal 1.13029e-016 0.860743 -0.509039
    outer loop
      vertex 0 83.2449 -1.12461
      vertex 106.2 83.1329 -1.31386
      vertex 0 83.1329 -1.31386
    endloop
  endfacet
  facet normal 1.24808e-016 0.827078 -0.562087
    outer loop
      vertex 106.2 83.3684 -0.942752
      vertex 106.2 83.2449 -1.12461
      vertex 0 83.3684 -0.942752
    endloop
  endfacet
  facet normal 1.24808e-016 0.827078 -0.562087
    outer loop
      vertex 0 83.3684 -0.942752
      vertex 106.2 83.2449 -1.12461
      vertex 0 83.2449 -1.12461
    endloop
  endfacet
  facet normal 1.36092e-016 0.790156 -0.612906
    outer loop
      vertex 106.2 83.5032 -0.769016
      vertex 106.2 83.3684 -0.942752
      vertex 0 83.5032 -0.769016
    endloop
  endfacet
  facet normal 1.36092e-016 0.790156 -0.612906
    outer loop
      vertex 0 83.5032 -0.769016
      vertex 106.2 83.3684 -0.942752
      vertex 0 83.3684 -0.942752
    endloop
  endfacet
  facet normal 1.46841e-016 0.750112 -0.661311
    outer loop
      vertex 106.2 83.6486 -0.604085
      vertex 106.2 83.5032 -0.769016
      vertex 0 83.6486 -0.604085
    endloop
  endfacet
  facet normal 1.46841e-016 0.750112 -0.661311
    outer loop
      vertex 0 83.6486 -0.604085
      vertex 106.2 83.5032 -0.769016
      vertex 0 83.5032 -0.769016
    endloop
  endfacet
  facet normal 1.57009e-016 0.707107 -0.707107
    outer loop
      vertex 106.2 83.8041 -0.44861
      vertex 106.2 83.6486 -0.604085
      vertex 0 83.8041 -0.44861
    endloop
  endfacet
  facet normal 1.57009e-016 0.707107 -0.707107
    outer loop
      vertex 0 83.8041 -0.44861
      vertex 106.2 83.6486 -0.604085
      vertex 0 83.6486 -0.604085
    endloop
  endfacet
  facet normal 1.66558e-016 0.661311 -0.750112
    outer loop
      vertex 106.2 83.969 -0.303204
      vertex 106.2 83.8041 -0.44861
      vertex 0 83.969 -0.303204
    endloop
  endfacet
  facet normal 1.66558e-016 0.661311 -0.750112
    outer loop
      vertex 0 83.969 -0.303204
      vertex 106.2 83.8041 -0.44861
      vertex 0 83.8041 -0.44861
    endloop
  endfacet
  facet normal 1.7545e-016 0.612906 -0.790156
    outer loop
      vertex 106.2 84.1428 -0.168441
      vertex 106.2 83.969 -0.303204
      vertex 0 84.1428 -0.168441
    endloop
  endfacet
  facet normal 1.7545e-016 0.612906 -0.790156
    outer loop
      vertex 0 84.1428 -0.168441
      vertex 106.2 83.969 -0.303204
      vertex 0 83.969 -0.303204
    endloop
  endfacet
  facet normal 1.83648e-016 0.562087 -0.827078
    outer loop
      vertex 106.2 84.3246 -0.044852
      vertex 106.2 84.1428 -0.168441
      vertex 0 84.3246 -0.044852
    endloop
  endfacet
  facet normal 1.83648e-016 0.562087 -0.827078
    outer loop
      vertex 0 84.3246 -0.044852
      vertex 106.2 84.1428 -0.168441
      vertex 0 84.1428 -0.168441
    endloop
  endfacet
  facet normal 1.91123e-016 0.509039 -0.860743
    outer loop
      vertex 106.2 84.5139 0.067073
      vertex 106.2 84.3246 -0.044852
      vertex 0 84.5139 0.067073
    endloop
  endfacet
  facet normal 1.91123e-016 0.509039 -0.860743
    outer loop
      vertex 0 84.5139 0.067073
      vertex 106.2 84.3246 -0.044852
      vertex 0 84.3246 -0.044852
    endloop
  endfacet
  facet normal 1.97843e-016 0.453994 -0.891005
    outer loop
      vertex 106.2 84.7098 0.166895
      vertex 106.2 84.5139 0.067073
      vertex 0 84.7098 0.166895
    endloop
  endfacet
  facet normal 1.97843e-016 0.453994 -0.891005
    outer loop
      vertex 0 84.7098 0.166895
      vertex 106.2 84.5139 0.067073
      vertex 0 84.5139 0.067073
    endloop
  endfacet
  facet normal 2.03783e-016 0.397147 -0.917755
    outer loop
      vertex 106.2 84.9116 0.254218
      vertex 106.2 84.7098 0.166895
      vertex 0 84.9116 0.254218
    endloop
  endfacet
  facet normal 2.03783e-016 0.397147 -0.917755
    outer loop
      vertex 0 84.9116 0.254218
      vertex 106.2 84.7098 0.166895
      vertex 0 84.7098 0.166895
    endloop
  endfacet
  facet normal 2.08918e-016 0.338737 -0.940881
    outer loop
      vertex 106.2 85.1184 0.328698
      vertex 106.2 84.9116 0.254218
      vertex 0 85.1184 0.328698
    endloop
  endfacet
  facet normal 2.08918e-016 0.338737 -0.940881
    outer loop
      vertex 0 85.1184 0.328698
      vertex 106.2 84.9116 0.254218
      vertex 0 84.9116 0.254218
    endloop
  endfacet
  facet normal 2.13228e-016 0.278991 -0.960294
    outer loop
      vertex 106.2 85.3296 0.390041
      vertex 106.2 85.1184 0.328698
      vertex 0 85.3296 0.390041
    endloop
  endfacet
  facet normal 2.13228e-016 0.278991 -0.960294
    outer loop
      vertex 0 85.3296 0.390041
      vertex 106.2 85.1184 0.328698
      vertex 0 85.1184 0.328698
    endloop
  endfacet
  facet normal 2.16697e-016 0.218142 -0.975917
    outer loop
      vertex 106.2 85.5442 0.438005
      vertex 106.2 85.3296 0.390041
      vertex 0 85.5442 0.438005
    endloop
  endfacet
  facet normal 2.16697e-016 0.218142 -0.975917
    outer loop
      vertex 0 85.5442 0.438005
      vertex 106.2 85.3296 0.390041
      vertex 0 85.3296 0.390041
    endloop
  endfacet
  facet normal 2.19311e-016 0.156434 -0.987688
    outer loop
      vertex 106.2 85.7613 0.472401
      vertex 106.2 85.5442 0.438005
      vertex 0 85.7613 0.472401
    endloop
  endfacet
  facet normal 2.19311e-016 0.156434 -0.987688
    outer loop
      vertex 0 85.7613 0.472401
      vertex 106.2 85.5442 0.438005
      vertex 0 85.5442 0.438005
    endloop
  endfacet
  facet normal 2.21059e-016 0.0941126 -0.995562
    outer loop
      vertex 106.2 85.9802 0.493094
      vertex 106.2 85.7613 0.472401
      vertex 0 85.9802 0.493094
    endloop
  endfacet
  facet normal 2.21059e-016 0.0941126 -0.995562
    outer loop
      vertex 0 85.9802 0.493094
      vertex 106.2 85.7613 0.472401
      vertex 0 85.7613 0.472401
    endloop
  endfacet
  facet normal 2.21935e-016 0.0314087 -0.999507
    outer loop
      vertex 106.2 86.2 0.5
      vertex 106.2 85.9802 0.493094
      vertex 0 86.2 0.5
    endloop
  endfacet
  facet normal 2.21935e-016 0.0314087 -0.999507
    outer loop
      vertex 0 86.2 0.5
      vertex 106.2 85.9802 0.493094
      vertex 0 85.9802 0.493094
    endloop
  endfacet
  facet normal 2.21935e-016 -0.0314087 -0.999507
    outer loop
      vertex 106.2 86.4198 0.493094
      vertex 106.2 86.2 0.5
      vertex 0 86.4198 0.493094
    endloop
  endfacet
  facet normal 2.21935e-016 -0.0314087 -0.999507
    outer loop
      vertex 0 86.4198 0.493094
      vertex 106.2 86.2 0.5
      vertex 0 86.2 0.5
    endloop
  endfacet
  facet normal 2.21059e-016 -0.0941126 -0.995562
    outer loop
      vertex 106.2 86.6387 0.472401
      vertex 106.2 86.4198 0.493094
      vertex 0 86.6387 0.472401
    endloop
  endfacet
  facet normal 2.21059e-016 -0.0941126 -0.995562
    outer loop
      vertex 0 86.6387 0.472401
      vertex 106.2 86.4198 0.493094
      vertex 0 86.4198 0.493094
    endloop
  endfacet
  facet normal 2.19311e-016 -0.156434 -0.987688
    outer loop
      vertex 106.2 86.8558 0.438005
      vertex 106.2 86.6387 0.472401
      vertex 0 86.8558 0.438005
    endloop
  endfacet
  facet normal 2.19311e-016 -0.156434 -0.987688
    outer loop
      vertex 0 86.8558 0.438005
      vertex 106.2 86.6387 0.472401
      vertex 0 86.6387 0.472401
    endloop
  endfacet
  facet normal 2.16697e-016 -0.218142 -0.975917
    outer loop
      vertex 106.2 87.0704 0.390041
      vertex 106.2 86.8558 0.438005
      vertex 0 87.0704 0.390041
    endloop
  endfacet
  facet normal 2.16697e-016 -0.218142 -0.975917
    outer loop
      vertex 0 87.0704 0.390041
      vertex 106.2 86.8558 0.438005
      vertex 0 86.8558 0.438005
    endloop
  endfacet
  facet normal 2.13228e-016 -0.278991 -0.960294
    outer loop
      vertex 106.2 87.2816 0.328698
      vertex 106.2 87.0704 0.390041
      vertex 0 87.2816 0.328698
    endloop
  endfacet
  facet normal 2.13228e-016 -0.278991 -0.960294
    outer loop
      vertex 0 87.2816 0.328698
      vertex 106.2 87.0704 0.390041
      vertex 0 87.0704 0.390041
    endloop
  endfacet
  facet normal 2.08918e-016 -0.338737 -0.940881
    outer loop
      vertex 106.2 87.4884 0.254218
      vertex 106.2 87.2816 0.328698
      vertex 0 87.4884 0.254218
    endloop
  endfacet
  facet normal 2.08918e-016 -0.338737 -0.940881
    outer loop
      vertex 0 87.4884 0.254218
      vertex 106.2 87.2816 0.328698
      vertex 0 87.2816 0.328698
    endloop
  endfacet
  facet normal 2.03783e-016 -0.397147 -0.917755
    outer loop
      vertex 106.2 87.6902 0.166895
      vertex 106.2 87.4884 0.254218
      vertex 0 87.6902 0.166895
    endloop
  endfacet
  facet normal 2.03783e-016 -0.397147 -0.917755
    outer loop
      vertex 0 87.6902 0.166895
      vertex 106.2 87.4884 0.254218
      vertex 0 87.4884 0.254218
    endloop
  endfacet
  facet normal 1.97843e-016 -0.453994 -0.891005
    outer loop
      vertex 106.2 87.8861 0.067073
      vertex 106.2 87.6902 0.166895
      vertex 0 87.8861 0.067073
    endloop
  endfacet
  facet normal 1.97843e-016 -0.453994 -0.891005
    outer loop
      vertex 0 87.8861 0.067073
      vertex 106.2 87.6902 0.166895
      vertex 0 87.6902 0.166895
    endloop
  endfacet
  facet normal 1.91123e-016 -0.509039 -0.860743
    outer loop
      vertex 106.2 88.0754 -0.044852
      vertex 106.2 87.8861 0.067073
      vertex 0 88.0754 -0.044852
    endloop
  endfacet
  facet normal 1.91123e-016 -0.509039 -0.860743
    outer loop
      vertex 0 88.0754 -0.044852
      vertex 106.2 87.8861 0.067073
      vertex 0 87.8861 0.067073
    endloop
  endfacet
  facet normal 1.83648e-016 -0.562087 -0.827078
    outer loop
      vertex 106.2 88.2572 -0.168441
      vertex 106.2 88.0754 -0.044852
      vertex 0 88.2572 -0.168441
    endloop
  endfacet
  facet normal 1.83648e-016 -0.562087 -0.827078
    outer loop
      vertex 0 88.2572 -0.168441
      vertex 106.2 88.0754 -0.044852
      vertex 0 88.0754 -0.044852
    endloop
  endfacet
  facet normal 1.7545e-016 -0.612906 -0.790156
    outer loop
      vertex 106.2 88.431 -0.303204
      vertex 106.2 88.2572 -0.168441
      vertex 0 88.431 -0.303204
    endloop
  endfacet
  facet normal 1.7545e-016 -0.612906 -0.790156
    outer loop
      vertex 0 88.431 -0.303204
      vertex 106.2 88.2572 -0.168441
      vertex 0 88.2572 -0.168441
    endloop
  endfacet
  facet normal 1.66558e-016 -0.661311 -0.750112
    outer loop
      vertex 106.2 88.5959 -0.44861
      vertex 106.2 88.431 -0.303204
      vertex 0 88.5959 -0.44861
    endloop
  endfacet
  facet normal 1.66558e-016 -0.661311 -0.750112
    outer loop
      vertex 0 88.5959 -0.44861
      vertex 106.2 88.431 -0.303204
      vertex 0 88.431 -0.303204
    endloop
  endfacet
  facet normal 1.57009e-016 -0.707107 -0.707107
    outer loop
      vertex 0 88.7514 -0.604085
      vertex 106.2 88.7514 -0.604085
      vertex 106.2 88.5959 -0.44861
    endloop
  endfacet
  facet normal 1.57009e-016 -0.707107 -0.707107
    outer loop
      vertex 0 88.5959 -0.44861
      vertex 0 88.7514 -0.604085
      vertex 106.2 88.5959 -0.44861
    endloop
  endfacet
  facet normal 1.46841e-016 -0.750112 -0.661311
    outer loop
      vertex 0 88.8968 -0.769016
      vertex 106.2 88.8968 -0.769016
      vertex 106.2 88.7514 -0.604085
    endloop
  endfacet
  facet normal 1.46841e-016 -0.750112 -0.661311
    outer loop
      vertex 0 88.7514 -0.604085
      vertex 0 88.8968 -0.769016
      vertex 106.2 88.7514 -0.604085
    endloop
  endfacet
  facet normal 1.36092e-016 -0.790156 -0.612906
    outer loop
      vertex 0 89.0316 -0.942752
      vertex 106.2 89.0316 -0.942752
      vertex 106.2 88.8968 -0.769016
    endloop
  endfacet
  facet normal 1.36092e-016 -0.790156 -0.612906
    outer loop
      vertex 0 88.8968 -0.769016
      vertex 0 89.0316 -0.942752
      vertex 106.2 88.8968 -0.769016
    endloop
  endfacet
  facet normal 1.24808e-016 -0.827078 -0.562087
    outer loop
      vertex 0 89.1551 -1.12461
      vertex 106.2 89.1551 -1.12461
      vertex 106.2 89.0316 -0.942752
    endloop
  endfacet
  facet normal 1.24808e-016 -0.827078 -0.562087
    outer loop
      vertex 0 89.0316 -0.942752
      vertex 0 89.1551 -1.12461
      vertex 106.2 89.0316 -0.942752
    endloop
  endfacet
  facet normal 1.13029e-016 -0.860743 -0.509039
    outer loop
      vertex 0 89.2671 -1.31386
      vertex 106.2 89.2671 -1.31386
      vertex 106.2 89.1551 -1.12461
    endloop
  endfacet
  facet normal 1.13029e-016 -0.860743 -0.509039
    outer loop
      vertex 0 89.1551 -1.12461
      vertex 0 89.2671 -1.31386
      vertex 106.2 89.1551 -1.12461
    endloop
  endfacet
  facet normal 1.00807e-016 -0.891005 -0.453994
    outer loop
      vertex 0 89.3669 -1.50977
      vertex 106.2 89.3669 -1.50977
      vertex 106.2 89.2671 -1.31386
    endloop
  endfacet
  facet normal 1.00807e-016 -0.891005 -0.453994
    outer loop
      vertex 0 89.2671 -1.31386
      vertex 0 89.3669 -1.50977
      vertex 106.2 89.2671 -1.31386
    endloop
  endfacet
  facet normal 8.81844e-017 -0.917755 -0.397147
    outer loop
      vertex 0 89.4542 -1.71156
      vertex 106.2 89.4542 -1.71156
      vertex 106.2 89.3669 -1.50977
    endloop
  endfacet
  facet normal 8.81844e-017 -0.917755 -0.397147
    outer loop
      vertex 0 89.3669 -1.50977
      vertex 0 89.4542 -1.71156
      vertex 106.2 89.3669 -1.50977
    endloop
  endfacet
  facet normal 7.52147e-017 -0.940881 -0.338737
    outer loop
      vertex 0 89.5287 -1.91844
      vertex 106.2 89.5287 -1.91844
      vertex 106.2 89.4542 -1.71156
    endloop
  endfacet
  facet normal 7.52147e-017 -0.940881 -0.338737
    outer loop
      vertex 0 89.4542 -1.71156
      vertex 0 89.5287 -1.91844
      vertex 106.2 89.4542 -1.71156
    endloop
  endfacet
  facet normal 6.19485e-017 -0.960294 -0.278991
    outer loop
      vertex 0 89.59 -2.12958
      vertex 106.2 89.59 -2.12958
      vertex 106.2 89.5287 -1.91844
    endloop
  endfacet
  facet normal 6.19485e-017 -0.960294 -0.278991
    outer loop
      vertex 0 89.5287 -1.91844
      vertex 0 89.59 -2.12958
      vertex 106.2 89.5287 -1.91844
    endloop
  endfacet
  facet normal 4.84372e-017 -0.975917 -0.218142
    outer loop
      vertex 0 89.638 -2.34416
      vertex 106.2 89.638 -2.34416
      vertex 106.2 89.59 -2.12958
    endloop
  endfacet
  facet normal 4.84372e-017 -0.975917 -0.218142
    outer loop
      vertex 0 89.59 -2.12958
      vertex 0 89.638 -2.34416
      vertex 106.2 89.59 -2.12958
    endloop
  endfacet
  facet normal 3.47352e-017 -0.987688 -0.156434
    outer loop
      vertex 0 89.6724 -2.56133
      vertex 106.2 89.6724 -2.56133
      vertex 106.2 89.638 -2.34416
    endloop
  endfacet
  facet normal 3.47352e-017 -0.987688 -0.156434
    outer loop
      vertex 0 89.638 -2.34416
      vertex 0 89.6724 -2.56133
      vertex 106.2 89.638 -2.34416
    endloop
  endfacet
  facet normal 2.08972e-017 -0.995562 -0.0941126
    outer loop
      vertex 0 89.6931 -2.78023
      vertex 106.2 89.6931 -2.78023
      vertex 106.2 89.6724 -2.56133
    endloop
  endfacet
  facet normal 2.08972e-017 -0.995562 -0.0941126
    outer loop
      vertex 0 89.6724 -2.56133
      vertex 0 89.6931 -2.78023
      vertex 106.2 89.6724 -2.56133
    endloop
  endfacet
  facet normal 6.97413e-018 -0.999507 -0.0314087
    outer loop
      vertex 0 89.7 -3
      vertex 106.2 89.7 -3
      vertex 106.2 89.6931 -2.78023
    endloop
  endfacet
  facet normal 6.97413e-018 -0.999507 -0.0314087
    outer loop
      vertex 0 89.6931 -2.78023
      vertex 0 89.7 -3
      vertex 106.2 89.6931 -2.78023
    endloop
  endfacet
  facet normal 0 0 -1
    outer loop
      vertex 0 89.7 -3
      vertex 0 96.2 -3
      vertex 106.2 89.7 -3
    endloop
  endfacet
  facet normal 0 0 -1
    outer loop
      vertex 106.2 89.7 -3
      vertex 0 96.2 -3
      vertex 106.2 96.2 -3
    endloop
  endfacet
  facet normal 0 1 0
    outer loop
      vertex 0 96.2 -3
      vertex 0 96.2 3
      vertex 106.2 96.2 -3
    endloop
  endfacet
  facet normal 0 1 0
    outer loop
      vertex 106.2 96.2 -3
      vertex 0 96.2 3
      vertex 106.2 96.2 3
    endloop
  endfacet
  facet normal 0 0 1
    outer loop
      vertex 13 8 3
      vertex 0 0 3
      vertex 106.2 0 3
    endloop
  endfacet
  facet normal 0 0 1
    outer loop
      vertex 93.2 8 3
      vertex 13 8 3
      vertex 106.2 0 3
    endloop
  endfacet
  facet normal 0 0 1
    outer loop
      vertex 0 96.2 3
      vertex 0 0 3
      vertex 13 8 3
    endloop
  endfacet
  facet normal 0 0 1
    outer loop
      vertex 106.2 96.2 3
      vertex 0 96.2 3
      vertex 13 88.2 3
    endloop
  endfacet
  facet normal 0 0 1
    outer loop
      vertex 106.2 96.2 3
      vertex 93.2 88.2 3
      vertex 106.2 0 3
    endloop
  endfacet
  facet normal 0 0 1
    outer loop
      vertex 106.2 96.2 3
      vertex 13 88.2 3
      vertex 93.2 88.2 3
    endloop
  endfacet
  facet normal 0 0 1
    outer loop
      vertex 93.2 88.2 3
      vertex 93.2 8 3
      vertex 106.2 0 3
    endloop
  endfacet
  facet normal 0 0 1
    outer loop
      vertex 13 8 3
      vertex 13 88.2 3
      vertex 0 96.2 3
    endloop
  endfacet
  facet normal 1 0 0
    outer loop
      vertex 106.2 0 3
      vertex 106.2 0 -3
      vertex 106.2 6.5 -3
    endloop
  endfacet
  facet normal 1 0 0
    outer loop
      vertex 106.2 6.50691 -2.78023
      vertex 106.2 0 3
      vertex 106.2 6.5 -3
    endloop
  endfacet
  facet normal 1 0 0
    outer loop
      vertex 106.2 6.5276 -2.56133
      vertex 106.2 0 3
      vertex 106.2 6.50691 -2.78023
    endloop
  endfacet
  facet normal 1 0 0
    outer loop
      vertex 106.2 6.56199 -2.34416
      vertex 106.2 0 3
      vertex 106.2 6.5276 -2.56133
    endloop
  endfacet
  facet normal 1 0 0
    outer loop
      vertex 106.2 6.60996 -2.12958
      vertex 106.2 0 3
      vertex 106.2 6.56199 -2.34416
    endloop
  endfacet
  facet normal 1 0 0
    outer loop
      vertex 106.2 6.6713 -1.91844
      vertex 106.2 0 3
      vertex 106.2 6.60996 -2.12958
    endloop
  endfacet
  facet normal 1 0 0
    outer loop
      vertex 106.2 6.74578 -1.71156
      vertex 106.2 0 3
      vertex 106.2 6.6713 -1.91844
    endloop
  endfacet
  facet normal 1 0 0
    outer loop
      vertex 106.2 6.8331 -1.50977
      vertex 106.2 0 3
      vertex 106.2 6.74578 -1.71156
    endloop
  endfacet
  facet normal 1 0 0
    outer loop
      vertex 106.2 6.93293 -1.31386
      vertex 106.2 0 3
      vertex 106.2 6.8331 -1.50977
    endloop
  endfacet
  facet normal 1 0 0
    outer loop
      vertex 106.2 7.04485 -1.12461
      vertex 106.2 0 3
      vertex 106.2 6.93293 -1.31386
    endloop
  endfacet
  facet normal 1 0 0
    outer loop
      vertex 106.2 7.16844 -0.942752
      vertex 106.2 0 3
      vertex 106.2 7.04485 -1.12461
    endloop
  endfacet
  facet normal 1 0 0
    outer loop
      vertex 106.2 7.3032 -0.769016
      vertex 106.2 0 3
      vertex 106.2 7.16844 -0.942752
    endloop
  endfacet
  facet normal 1 0 0
    outer loop
      vertex 106.2 7.44861 -0.604085
      vertex 106.2 0 3
      vertex 106.2 7.3032 -0.769016
    endloop
  endfacet
  facet normal 1 0 0
    outer loop
      vertex 106.2 7.60408 -0.44861
      vertex 106.2 0 3
      vertex 106.2 7.44861 -0.604085
    endloop
  endfacet
  facet normal 1 0 0
    outer loop
      vertex 106.2 7.76902 -0.303204
      vertex 106.2 0 3
      vertex 106.2 7.60408 -0.44861
    endloop
  endfacet
  facet normal 1 0 0
    outer loop
      vertex 106.2 7.94275 -0.168441
      vertex 106.2 0 3
      vertex 106.2 7.76902 -0.303204
    endloop
  endfacet
  facet normal 1 0 0
    outer loop
      vertex 106.2 8.12461 -0.044852
      vertex 106.2 0 3
      vertex 106.2 7.94275 -0.168441
    endloop
  endfacet
  facet normal 1 0 0
    outer loop
      vertex 106.2 8.31386 0.067073
      vertex 106.2 0 3
      vertex 106.2 8.12461 -0.044852
    endloop
  endfacet
  facet normal 1 0 0
    outer loop
      vertex 106.2 8.50977 0.166895
      vertex 106.2 0 3
      vertex 106.2 8.31386 0.067073
    endloop
  endfacet
  facet normal 1 0 0
    outer loop
      vertex 106.2 8.71156 0.254218
      vertex 106.2 0 3
      vertex 106.2 8.50977 0.166895
    endloop
  endfacet
  facet normal 1 0 0
    outer loop
      vertex 106.2 8.91844 0.328698
      vertex 106.2 0 3
      vertex 106.2 8.71156 0.254218
    endloop
  endfacet
  facet normal 1 0 0
    outer loop
      vertex 106.2 9.12958 0.390041
      vertex 106.2 0 3
      vertex 106.2 8.91844 0.328698
    endloop
  endfacet
  facet normal 1 0 0
    outer loop
      vertex 106.2 9.34416 0.438005
      vertex 106.2 0 3
      vertex 106.2 9.12958 0.390041
    endloop
  endfacet
  facet normal 1 0 0
    outer loop
      vertex 106.2 9.56133 0.472401
      vertex 106.2 0 3
      vertex 106.2 9.34416 0.438005
    endloop
  endfacet
  facet normal 1 0 0
    outer loop
      vertex 106.2 9.78023 0.493094
      vertex 106.2 0 3
      vertex 106.2 9.56133 0.472401
    endloop
  endfacet
  facet normal 1 0 0
    outer loop
      vertex 106.2 10 0.5
      vertex 106.2 0 3
      vertex 106.2 9.78023 0.493094
    endloop
  endfacet
  facet normal 1 0 0
    outer loop
      vertex 106.2 10.2198 0.493094
      vertex 106.2 0 3
      vertex 106.2 10 0.5
    endloop
  endfacet
  facet normal 1 0 0
    outer loop
      vertex 106.2 10.4387 0.472401
      vertex 106.2 0 3
      vertex 106.2 10.2198 0.493094
    endloop
  endfacet
  facet normal 1 0 0
    outer loop
      vertex 106.2 10.6558 0.438005
      vertex 106.2 0 3
      vertex 106.2 10.4387 0.472401
    endloop
  endfacet
  facet normal 1 0 0
    outer loop
      vertex 106.2 10.8704 0.390041
      vertex 106.2 0 3
      vertex 106.2 10.6558 0.438005
    endloop
  endfacet
  facet normal 1 0 0
    outer loop
      vertex 106.2 82.7 -3
      vertex 106.2 0 3
      vertex 106.2 10.8704 0.390041
    endloop
  endfacet
  facet normal 1 0 0
    outer loop
      vertex 106.2 82.7 -3
      vertex 106.2 10.8704 0.390041
      vertex 106.2 11.0816 0.328698
    endloop
  endfacet
  facet normal 1 0 0
    outer loop
      vertex 106.2 82.7 -3
      vertex 106.2 11.0816 0.328698
      vertex 106.2 11.2884 0.254218
    endloop
  endfacet
  facet normal 1 0 0
    outer loop
      vertex 106.2 82.7 -3
      vertex 106.2 11.2884 0.254218
      vertex 106.2 11.4902 0.166895
    endloop
  endfacet
  facet normal 1 0 0
    outer loop
      vertex 106.2 82.7 -3
      vertex 106.2 11.4902 0.166895
      vertex 106.2 11.6861 0.067073
    endloop
  endfacet
  facet normal 1 0 0
    outer loop
      vertex 106.2 82.7 -3
      vertex 106.2 11.6861 0.067073
      vertex 106.2 11.8754 -0.044852
    endloop
  endfacet
  facet normal 1 0 0
    outer loop
      vertex 106.2 82.7 -3
      vertex 106.2 11.8754 -0.044852
      vertex 106.2 12.0572 -0.168441
    endloop
  endfacet
  facet normal 1 0 0
    outer loop
      vertex 106.2 82.7 -3
      vertex 106.2 12.0572 -0.168441
      vertex 106.2 12.231 -0.303204
    endloop
  endfacet
  facet normal 1 0 0
    outer loop
      vertex 106.2 82.7 -3
      vertex 106.2 12.231 -0.303204
      vertex 106.2 12.3959 -0.44861
    endloop
  endfacet
  facet normal 1 0 0
    outer loop
      vertex 106.2 82.7 -3
      vertex 106.2 12.3959 -0.44861
      vertex 106.2 12.5514 -0.604085
    endloop
  endfacet
  facet normal 1 0 0
    outer loop
      vertex 106.2 82.7 -3
      vertex 106.2 12.5514 -0.604085
      vertex 106.2 12.6968 -0.769016
    endloop
  endfacet
  facet normal 1 0 0
    outer loop
      vertex 106.2 82.7 -3
      vertex 106.2 12.6968 -0.769016
      vertex 106.2 12.8316 -0.942752
    endloop
  endfacet
  facet normal 1 0 0
    outer loop
      vertex 106.2 82.7 -3
      vertex 106.2 12.8316 -0.942752
      vertex 106.2 12.9551 -1.12461
    endloop
  endfacet
  facet normal 1 0 0
    outer loop
      vertex 106.2 82.7 -3
      vertex 106.2 12.9551 -1.12461
      vertex 106.2 13.0671 -1.31386
    endloop
  endfacet
  facet normal 1 0 0
    outer loop
      vertex 106.2 82.7 -3
      vertex 106.2 13.0671 -1.31386
      vertex 106.2 13.1669 -1.50977
    endloop
  endfacet
  facet normal 1 0 0
    outer loop
      vertex 106.2 82.7 -3
      vertex 106.2 13.1669 -1.50977
      vertex 106.2 13.2542 -1.71156
    endloop
  endfacet
  facet normal 1 0 0
    outer loop
      vertex 106.2 82.7 -3
      vertex 106.2 13.2542 -1.71156
      vertex 106.2 13.3287 -1.91844
    endloop
  endfacet
  facet normal 1 0 0
    outer loop
      vertex 106.2 82.7 -3
      vertex 106.2 13.3287 -1.91844
      vertex 106.2 13.39 -2.12958
    endloop
  endfacet
  facet normal 1 0 0
    outer loop
      vertex 106.2 82.7 -3
      vertex 106.2 13.39 -2.12958
      vertex 106.2 13.438 -2.34416
    endloop
  endfacet
  facet normal 1 0 0
    outer loop
      vertex 106.2 82.7 -3
      vertex 106.2 13.438 -2.34416
      vertex 106.2 13.4724 -2.56133
    endloop
  endfacet
  facet normal 1 0 0
    outer loop
      vertex 106.2 82.7 -3
      vertex 106.2 13.4724 -2.56133
      vertex 106.2 13.4931 -2.78023
    endloop
  endfacet
  facet normal 1 0 0
    outer loop
      vertex 106.2 82.7 -3
      vertex 106.2 13.4931 -2.78023
      vertex 106.2 13.5 -3
    endloop
  endfacet
  facet normal 1 0 0
    outer loop
      vertex 106.2 82.7069 -2.78023
      vertex 106.2 0 3
      vertex 106.2 82.7 -3
    endloop
  endfacet
  facet normal 1 0 0
    outer loop
      vertex 106.2 82.7276 -2.56133
      vertex 106.2 0 3
      vertex 106.2 82.7069 -2.78023
    endloop
  endfacet
  facet normal 1 0 0
    outer loop
      vertex 106.2 82.762 -2.34416
      vertex 106.2 0 3
      vertex 106.2 82.7276 -2.56133
    endloop
  endfacet
  facet normal 1 0 0
    outer loop
      vertex 106.2 82.81 -2.12958
      vertex 106.2 0 3
      vertex 106.2 82.762 -2.34416
    endloop
  endfacet
  facet normal 1 0 0
    outer loop
      vertex 106.2 82.8713 -1.91844
      vertex 106.2 0 3
      vertex 106.2 82.81 -2.12958
    endloop
  endfacet
  facet normal 1 0 0
    outer loop
      vertex 106.2 82.9458 -1.71156
      vertex 106.2 0 3
      vertex 106.2 82.8713 -1.91844
    endloop
  endfacet
  facet normal 1 0 0
    outer loop
      vertex 106.2 83.0331 -1.50977
      vertex 106.2 0 3
      vertex 106.2 82.9458 -1.71156
    endloop
  endfacet
  facet normal 1 0 0
    outer loop
      vertex 106.2 83.1329 -1.31386
      vertex 106.2 0 3
      vertex 106.2 83.0331 -1.50977
    endloop
  endfacet
  facet normal 1 0 0
    outer loop
      vertex 106.2 83.2449 -1.12461
      vertex 106.2 0 3
      vertex 106.2 83.1329 -1.31386
    endloop
  endfacet
  facet normal 1 0 0
    outer loop
      vertex 106.2 83.3684 -0.942752
      vertex 106.2 0 3
      vertex 106.2 83.2449 -1.12461
    endloop
  endfacet
  facet normal 1 0 0
    outer loop
      vertex 106.2 83.5032 -0.769016
      vertex 106.2 0 3
      vertex 106.2 83.3684 -0.942752
    endloop
  endfacet
  facet normal 1 0 0
    outer loop
      vertex 106.2 83.6486 -0.604085
      vertex 106.2 0 3
      vertex 106.2 83.5032 -0.769016
    endloop
  endfacet
  facet normal 1 0 0
    outer loop
      vertex 106.2 83.8041 -0.44861
      vertex 106.2 0 3
      vertex 106.2 83.6486 -0.604085
    endloop
  endfacet
  facet normal 1 0 0
    outer loop
      vertex 106.2 83.969 -0.303204
      vertex 106.2 0 3
      vertex 106.2 83.8041 -0.44861
    endloop
  endfacet
  facet normal 1 0 0
    outer loop
      vertex 106.2 84.1428 -0.168441
      vertex 106.2 0 3
      vertex 106.2 83.969 -0.303204
    endloop
  endfacet
  facet normal 1 0 0
    outer loop
      vertex 106.2 84.3246 -0.044852
      vertex 106.2 0 3
      vertex 106.2 84.1428 -0.168441
    endloop
  endfacet
  facet normal 1 0 0
    outer loop
      vertex 106.2 84.5139 0.067073
      vertex 106.2 0 3
      vertex 106.2 84.3246 -0.044852
    endloop
  endfacet
  facet normal 1 0 0
    outer loop
      vertex 106.2 84.7098 0.166895
      vertex 106.2 0 3
      vertex 106.2 84.5139 0.067073
    endloop
  endfacet
  facet normal 1 0 0
    outer loop
      vertex 106.2 84.9116 0.254218
      vertex 106.2 0 3
      vertex 106.2 84.7098 0.166895
    endloop
  endfacet
  facet normal 1 0 0
    outer loop
      vertex 106.2 85.1184 0.328698
      vertex 106.2 0 3
      vertex 106.2 84.9116 0.254218
    endloop
  endfacet
  facet normal 1 0 0
    outer loop
      vertex 106.2 85.3296 0.390041
      vertex 106.2 0 3
      vertex 106.2 85.1184 0.328698
    endloop
  endfacet
  facet normal 1 0 0
    outer loop
      vertex 106.2 85.5442 0.438005
      vertex 106.2 0 3
      vertex 106.2 85.3296 0.390041
    endloop
  endfacet
  facet normal 1 0 0
    outer loop
      vertex 106.2 85.7613 0.472401
      vertex 106.2 0 3
      vertex 106.2 85.5442 0.438005
    endloop
  endfacet
  facet normal 1 0 0
    outer loop
      vertex 106.2 85.9802 0.493094
      vertex 106.2 0 3
      vertex 106.2 85.7613 0.472401
    endloop
  endfacet
  facet normal 1 0 0
    outer loop
      vertex 106.2 86.2 0.5
      vertex 106.2 0 3
      vertex 106.2 85.9802 0.493094
    endloop
  endfacet
  facet normal 1 0 0
    outer loop
      vertex 106.2 96.2 3
      vertex 106.2 0 3
      vertex 106.2 86.2 0.5
    endloop
  endfacet
  facet normal 1 0 0
    outer loop
      vertex 106.2 96.2 3
      vertex 106.2 86.2 0.5
      vertex 106.2 86.4198 0.493094
    endloop
  endfacet
  facet normal 1 0 0
    outer loop
      vertex 106.2 96.2 3
      vertex 106.2 86.4198 0.493094
      vertex 106.2 86.6387 0.472401
    endloop
  endfacet
  facet normal 1 0 0
    outer loop
      vertex 106.2 96.2 3
      vertex 106.2 86.6387 0.472401
      vertex 106.2 86.8558 0.438005
    endloop
  endfacet
  facet normal 1 0 0
    outer loop
      vertex 106.2 96.2 3
      vertex 106.2 86.8558 0.438005
      vertex 106.2 87.0704 0.390041
    endloop
  endfacet
  facet normal 1 0 0
    outer loop
      vertex 106.2 96.2 3
      vertex 106.2 87.0704 0.390041
      vertex 106.2 87.2816 0.328698
    endloop
  endfacet
  facet normal 1 0 0
    outer loop
      vertex 106.2 96.2 3
      vertex 106.2 87.2816 0.328698
      vertex 106.2 87.4884 0.254218
    endloop
  endfacet
  facet normal 1 0 0
    outer loop
      vertex 106.2 96.2 -3
      vertex 106.2 87.4884 0.254218
      vertex 106.2 87.6902 0.166895
    endloop
  endfacet
  facet normal 1 0 0
    outer loop
      vertex 106.2 96.2 -3
      vertex 106.2 87.6902 0.166895
      vertex 106.2 87.8861 0.067073
    endloop
  endfacet
  facet normal 1 0 0
    outer loop
      vertex 106.2 96.2 -3
      vertex 106.2 87.8861 0.067073
      vertex 106.2 88.0754 -0.044852
    endloop
  endfacet
  facet normal 1 0 0
    outer loop
      vertex 106.2 96.2 -3
      vertex 106.2 88.0754 -0.044852
      vertex 106.2 88.2572 -0.168441
    endloop
  endfacet
  facet normal 1 0 0
    outer loop
      vertex 106.2 96.2 -3
      vertex 106.2 88.2572 -0.168441
      vertex 106.2 88.431 -0.303204
    endloop
  endfacet
  facet normal 1 0 0
    outer loop
      vertex 106.2 96.2 -3
      vertex 106.2 88.431 -0.303204
      vertex 106.2 88.5959 -0.44861
    endloop
  endfacet
  facet normal 1 0 0
    outer loop
      vertex 106.2 96.2 -3
      vertex 106.2 88.5959 -0.44861
      vertex 106.2 88.7514 -0.604085
    endloop
  endfacet
  facet normal 1 0 0
    outer loop
      vertex 106.2 96.2 -3
      vertex 106.2 88.7514 -0.604085
      vertex 106.2 88.8968 -0.769016
    endloop
  endfacet
  facet normal 1 0 0
    outer loop
      vertex 106.2 96.2 -3
      vertex 106.2 88.8968 -0.769016
      vertex 106.2 89.0316 -0.942752
    endloop
  endfacet
  facet normal 1 0 0
    outer loop
      vertex 106.2 96.2 -3
      vertex 106.2 89.0316 -0.942752
      vertex 106.2 89.1551 -1.12461
    endloop
  endfacet
  facet normal 1 0 0
    outer loop
      vertex 106.2 96.2 -3
      vertex 106.2 89.1551 -1.12461
      vertex 106.2 89.2671 -1.31386
    endloop
  endfacet
  facet normal 1 0 0
    outer loop
      vertex 106.2 96.2 -3
      vertex 106.2 89.2671 -1.31386
      vertex 106.2 89.3669 -1.50977
    endloop
  endfacet
  facet normal 1 0 0
    outer loop
      vertex 106.2 96.2 -3
      vertex 106.2 89.3669 -1.50977
      vertex 106.2 89.4542 -1.71156
    endloop
  endfacet
  facet normal 1 0 0
    outer loop
      vertex 106.2 96.2 -3
      vertex 106.2 89.4542 -1.71156
      vertex 106.2 89.5287 -1.91844
    endloop
  endfacet
  facet normal 1 0 0
    outer loop
      vertex 106.2 96.2 -3
      vertex 106.2 89.5287 -1.91844
      vertex 106.2 89.59 -2.12958
    endloop
  endfacet
  facet normal 1 0 0
    outer loop
      vertex 106.2 96.2 -3
      vertex 106.2 89.59 -2.12958
      vertex 106.2 89.638 -2.34416
    endloop
  endfacet
  facet normal 1 0 0
    outer loop
      vertex 106.2 96.2 -3
      vertex 106.2 89.638 -2.34416
      vertex 106.2 89.6724 -2.56133
    endloop
  endfacet
  facet normal 1 0 0
    outer loop
      vertex 106.2 96.2 -3
      vertex 106.2 89.6724 -2.56133
      vertex 106.2 89.6931 -2.78023
    endloop
  endfacet
  facet normal 1 0 0
    outer loop
      vertex 106.2 96.2 -3
      vertex 106.2 89.6931 -2.78023
      vertex 106.2 89.7 -3
    endloop
  endfacet
  facet normal 1 0 0
    outer loop
      vertex 106.2 96.2 3
      vertex 106.2 87.4884 0.254218
      vertex 106.2 96.2 -3
    endloop
  endfacet
  facet normal 1 0 0
    outer loop
      vertex 13 88.2 2
      vertex 13 88.2 3
      vertex 13 8 3
    endloop
  endfacet
  facet normal 1 0 0
    outer loop
      vertex 13 8 2
      vertex 13 88.2 2
      vertex 13 8 3
    endloop
  endfacet
  facet normal 0 1 0
    outer loop
      vertex 93.2 8 3
      vertex 93.2 8 2
      vertex 13 8 3
    endloop
  endfacet
  facet normal 0 1 0
    outer loop
      vertex 13 8 3
      vertex 93.2 8 2
      vertex 13 8 2
    endloop
  endfacet
  facet normal -1 0 0
    outer loop
      vertex 93.2 88.2 3
      vertex 93.2 88.2 2
      vertex 93.2 8 3
    endloop
  endfacet
  facet normal -1 0 0
    outer loop
      vertex 93.2 8 3
      vertex 93.2 88.2 2
      vertex 93.2 8 2
    endloop
  endfacet
  facet normal 0 -1 0
    outer loop
      vertex 93.2 88.2 2
      vertex 93.2 88.2 3
      vertex 13 88.2 3
    endloop
  endfacet
  facet normal 0 -1 0
    outer loop
      vertex 13 88.2 2
      vertex 93.2 88.2 2
      vertex 13 88.2 3
    endloop
  endfacet
  facet normal 0 0 1
    outer loop
      vertex 93.2 8 2
      vertex 93.2 88.2 2
      vertex 13 88.2 2
    endloop
  endfacet
  facet normal 0 0 1
    outer loop
      vertex 13 8 2
      vertex 93.2 8 2
      vertex 13 88.2 2
    endloop
  endfacet
endsolid OpenSCAD_Model
