solid OpenSCAD_Model
  facet normal 0.999507 0.0314118 0
    outer loop
      vertex 6 0 24
      vertex 5.98816 0.376742 0
      vertex 5.98816 0.376742 24
    endloop
  endfacet
  facet normal 0.999507 0.0314118 0
    outer loop
      vertex 5.98816 0.376742 0
      vertex 6 0 24
      vertex 6 0 0
    endloop
  endfacet
  facet normal -0.999507 0.0314118 0
    outer loop
      vertex -6 0 0
      vertex -5.98816 0.376742 24
      vertex -5.98816 0.376742 0
    endloop
  endfacet
  facet normal -0.999507 0.0314118 0
    outer loop
      vertex -5.98816 0.376742 24
      vertex -6 0 0
      vertex -6 0 24
    endloop
  endfacet
  facet normal 0.0314118 0.999507 -0
    outer loop
      vertex 0.376742 5.98816 0
      vertex 0 6 24
      vertex 0.376742 5.98816 24
    endloop
  endfacet
  facet normal 0.0314118 0.999507 0
    outer loop
      vertex 0 6 24
      vertex 0.376742 5.98816 0
      vertex 0 6 0
    endloop
  endfacet
  facet normal 0.707107 0.707107 0
    outer loop
      vertex 4.37381 4.10728 24
      vertex 4.10728 4.37381 0
      vertex 4.10728 4.37381 24
    endloop
  endfacet
  facet normal 0.707107 0.707107 0
    outer loop
      vertex 4.10728 4.37381 0
      vertex 4.37381 4.10728 24
      vertex 4.37381 4.10728 0
    endloop
  endfacet
  facet normal -0.661314 0.75011 0
    outer loop
      vertex -3.82454 4.62308 0
      vertex -4.10728 4.37381 24
      vertex -3.82454 4.62308 24
    endloop
  endfacet
  facet normal -0.661314 0.75011 0
    outer loop
      vertex -4.10728 4.37381 24
      vertex -3.82454 4.62308 0
      vertex -4.10728 4.37381 0
    endloop
  endfacet
  facet normal -0.338734 0.940882 0
    outer loop
      vertex -1.8541 5.70634 0
      vertex -2.20875 5.57866 24
      vertex -1.8541 5.70634 24
    endloop
  endfacet
  facet normal -0.338734 0.940882 0
    outer loop
      vertex -2.20875 5.57866 24
      vertex -1.8541 5.70634 0
      vertex -2.20875 5.57866 0
    endloop
  endfacet
  facet normal 0.917752 0.397154 0
    outer loop
      vertex 5.57866 2.20875 24
      vertex 5.42896 2.55468 0
      vertex 5.42896 2.55468 24
    endloop
  endfacet
  facet normal 0.917752 0.397154 0
    outer loop
      vertex 5.42896 2.55468 0
      vertex 5.57866 2.20875 24
      vertex 5.57866 2.20875 0
    endloop
  endfacet
  facet normal 0.397154 0.917752 -0
    outer loop
      vertex 2.55468 5.42896 0
      vertex 2.20875 5.57866 24
      vertex 2.55468 5.42896 24
    endloop
  endfacet
  facet normal 0.397154 0.917752 0
    outer loop
      vertex 2.20875 5.57866 24
      vertex 2.55468 5.42896 0
      vertex 2.20875 5.57866 0
    endloop
  endfacet
  facet normal 0.562092 0.827075 -0
    outer loop
      vertex 3.52671 4.8541 0
      vertex 3.21496 5.06597 24
      vertex 3.52671 4.8541 24
    endloop
  endfacet
  facet normal 0.562092 0.827075 0
    outer loop
      vertex 3.21496 5.06597 24
      vertex 3.52671 4.8541 0
      vertex 3.21496 5.06597 0
    endloop
  endfacet
  facet normal -0.891005 0.453993 0
    outer loop
      vertex -5.42896 2.55468 0
      vertex -5.25784 2.89052 24
      vertex -5.25784 2.89052 0
    endloop
  endfacet
  facet normal -0.891005 0.453993 0
    outer loop
      vertex -5.25784 2.89052 24
      vertex -5.42896 2.55468 0
      vertex -5.42896 2.55468 24
    endloop
  endfacet
  facet normal -0.156447 0.987686 0
    outer loop
      vertex -0.751999 5.95269 0
      vertex -1.12429 5.89372 24
      vertex -0.751999 5.95269 24
    endloop
  endfacet
  facet normal -0.156447 0.987686 0
    outer loop
      vertex -1.12429 5.89372 24
      vertex -0.751999 5.95269 0
      vertex -1.12429 5.89372 0
    endloop
  endfacet
  facet normal 0 0 -1
    outer loop
      vertex 5.98816 -0.376742 0
      vertex 5.98816 0.376742 0
      vertex 6 0 0
    endloop
  endfacet
  facet normal 0 0 -1
    outer loop
      vertex 5.95269 -0.751999 0
      vertex 5.98816 0.376742 0
      vertex 5.98816 -0.376742 0
    endloop
  endfacet
  facet normal 0 0 -1
    outer loop
      vertex 5.95269 -0.751999 0
      vertex 5.95269 0.751999 0
      vertex 5.98816 0.376742 0
    endloop
  endfacet
  facet normal 0 0 -1
    outer loop
      vertex 5.89372 -1.12429 0
      vertex 5.95269 0.751999 0
      vertex 5.95269 -0.751999 0
    endloop
  endfacet
  facet normal 0 0 -1
    outer loop
      vertex 5.89372 -1.12429 0
      vertex 5.89372 1.12429 0
      vertex 5.95269 0.751999 0
    endloop
  endfacet
  facet normal 0 0 -1
    outer loop
      vertex 5.8115 -1.49214 0
      vertex 5.89372 1.12429 0
      vertex 5.89372 -1.12429 0
    endloop
  endfacet
  facet normal 0 0 -1
    outer loop
      vertex 5.8115 -1.49214 0
      vertex 5.8115 1.49214 0
      vertex 5.89372 1.12429 0
    endloop
  endfacet
  facet normal 0 0 -1
    outer loop
      vertex 5.70634 -1.8541 0
      vertex 5.8115 1.49214 0
      vertex 5.8115 -1.49214 0
    endloop
  endfacet
  facet normal 0 0 -1
    outer loop
      vertex 5.70634 -1.8541 0
      vertex 5.70634 1.8541 0
      vertex 5.8115 1.49214 0
    endloop
  endfacet
  facet normal 0 0 -1
    outer loop
      vertex 5.57866 -2.20875 0
      vertex 5.70634 1.8541 0
      vertex 5.70634 -1.8541 0
    endloop
  endfacet
  facet normal 0 0 -1
    outer loop
      vertex 5.57866 -2.20875 0
      vertex 5.57866 2.20875 0
      vertex 5.70634 1.8541 0
    endloop
  endfacet
  facet normal 0 0 -1
    outer loop
      vertex 5.42896 -2.55468 0
      vertex 5.57866 2.20875 0
      vertex 5.57866 -2.20875 0
    endloop
  endfacet
  facet normal 0 0 -1
    outer loop
      vertex 5.42896 -2.55468 0
      vertex 5.42896 2.55468 0
      vertex 5.57866 2.20875 0
    endloop
  endfacet
  facet normal 0 0 -1
    outer loop
      vertex 5.25784 -2.89052 0
      vertex 5.42896 2.55468 0
      vertex 5.42896 -2.55468 0
    endloop
  endfacet
  facet normal 0 0 -1
    outer loop
      vertex 5.25784 -2.89052 0
      vertex 5.25784 2.89052 0
      vertex 5.42896 2.55468 0
    endloop
  endfacet
  facet normal 0 0 -1
    outer loop
      vertex 5.06597 -3.21496 0
      vertex 5.25784 2.89052 0
      vertex 5.25784 -2.89052 0
    endloop
  endfacet
  facet normal 0 0 -1
    outer loop
      vertex 5.06597 -3.21496 0
      vertex 5.06597 3.21496 0
      vertex 5.25784 2.89052 0
    endloop
  endfacet
  facet normal 0 0 -1
    outer loop
      vertex 4.8541 -3.52671 0
      vertex 5.06597 3.21496 0
      vertex 5.06597 -3.21496 0
    endloop
  endfacet
  facet normal 0 0 -1
    outer loop
      vertex 4.8541 -3.52671 0
      vertex 4.8541 3.52671 0
      vertex 5.06597 3.21496 0
    endloop
  endfacet
  facet normal 0 0 -1
    outer loop
      vertex 4.62308 -3.82454 0
      vertex 4.8541 3.52671 0
      vertex 4.8541 -3.52671 0
    endloop
  endfacet
  facet normal 0 0 -1
    outer loop
      vertex 4.62308 -3.82454 0
      vertex 4.62308 3.82454 0
      vertex 4.8541 3.52671 0
    endloop
  endfacet
  facet normal 0 0 -1
    outer loop
      vertex 4.37381 -4.10728 0
      vertex 4.62308 3.82454 0
      vertex 4.62308 -3.82454 0
    endloop
  endfacet
  facet normal 0 0 -1
    outer loop
      vertex 4.37381 -4.10728 0
      vertex 4.37381 4.10728 0
      vertex 4.62308 3.82454 0
    endloop
  endfacet
  facet normal 0 0 -1
    outer loop
      vertex 4.10728 -4.37381 0
      vertex 4.37381 4.10728 0
      vertex 4.37381 -4.10728 0
    endloop
  endfacet
  facet normal 0 0 -1
    outer loop
      vertex 4.10728 -4.37381 0
      vertex 4.10728 4.37381 0
      vertex 4.37381 4.10728 0
    endloop
  endfacet
  facet normal 0 0 -1
    outer loop
      vertex 3.82454 -4.62308 0
      vertex 4.10728 4.37381 0
      vertex 4.10728 -4.37381 0
    endloop
  endfacet
  facet normal 0 0 -1
    outer loop
      vertex 3.82454 -4.62308 0
      vertex 3.82454 4.62308 0
      vertex 4.10728 4.37381 0
    endloop
  endfacet
  facet normal 0 0 -1
    outer loop
      vertex 3.52671 -4.8541 0
      vertex 3.82454 4.62308 0
      vertex 3.82454 -4.62308 0
    endloop
  endfacet
  facet normal 0 0 -1
    outer loop
      vertex 3.52671 -4.8541 0
      vertex 3.52671 4.8541 0
      vertex 3.82454 4.62308 0
    endloop
  endfacet
  facet normal 0 0 -1
    outer loop
      vertex 3.21496 -5.06597 0
      vertex 3.52671 4.8541 0
      vertex 3.52671 -4.8541 0
    endloop
  endfacet
  facet normal 0 0 -1
    outer loop
      vertex 3.21496 -5.06597 0
      vertex 3.21496 5.06597 0
      vertex 3.52671 4.8541 0
    endloop
  endfacet
  facet normal 0 0 -1
    outer loop
      vertex 2.89052 -5.25784 0
      vertex 3.21496 5.06597 0
      vertex 3.21496 -5.06597 0
    endloop
  endfacet
  facet normal 0 0 -1
    outer loop
      vertex 2.89052 -5.25784 0
      vertex 2.89052 5.25784 0
      vertex 3.21496 5.06597 0
    endloop
  endfacet
  facet normal 0 0 -1
    outer loop
      vertex 2.55468 -5.42896 0
      vertex 2.89052 5.25784 0
      vertex 2.89052 -5.25784 0
    endloop
  endfacet
  facet normal 0 0 -1
    outer loop
      vertex 2.55468 -5.42896 0
      vertex 2.55468 5.42896 0
      vertex 2.89052 5.25784 0
    endloop
  endfacet
  facet normal 0 0 -1
    outer loop
      vertex 2.20875 -5.57866 0
      vertex 2.55468 5.42896 0
      vertex 2.55468 -5.42896 0
    endloop
  endfacet
  facet normal 0 0 -1
    outer loop
      vertex 2.20875 -5.57866 0
      vertex 2.20875 5.57866 0
      vertex 2.55468 5.42896 0
    endloop
  endfacet
  facet normal 0 0 -1
    outer loop
      vertex 1.8541 -5.70634 0
      vertex 2.20875 5.57866 0
      vertex 2.20875 -5.57866 0
    endloop
  endfacet
  facet normal 0 0 -1
    outer loop
      vertex 1.8541 -5.70634 0
      vertex 1.8541 5.70634 0
      vertex 2.20875 5.57866 0
    endloop
  endfacet
  facet normal 0 0 -1
    outer loop
      vertex 1.49214 -5.8115 0
      vertex 1.8541 5.70634 0
      vertex 1.8541 -5.70634 0
    endloop
  endfacet
  facet normal 0 0 -1
    outer loop
      vertex 1.49214 -5.8115 0
      vertex 1.49214 5.8115 0
      vertex 1.8541 5.70634 0
    endloop
  endfacet
  facet normal 0 0 -1
    outer loop
      vertex 1.12429 -5.89372 0
      vertex 1.49214 5.8115 0
      vertex 1.49214 -5.8115 0
    endloop
  endfacet
  facet normal 0 0 -1
    outer loop
      vertex 1.12429 -5.89372 0
      vertex 1.12429 5.89372 0
      vertex 1.49214 5.8115 0
    endloop
  endfacet
  facet normal 0 0 -1
    outer loop
      vertex 0.751999 -5.95269 0
      vertex 1.12429 5.89372 0
      vertex 1.12429 -5.89372 0
    endloop
  endfacet
  facet normal 0 0 -1
    outer loop
      vertex 0.751999 -5.95269 0
      vertex 0.751999 5.95269 0
      vertex 1.12429 5.89372 0
    endloop
  endfacet
  facet normal 0 0 -1
    outer loop
      vertex 0.376742 -5.98816 0
      vertex 0.751999 5.95269 0
      vertex 0.751999 -5.95269 0
    endloop
  endfacet
  facet normal 0 0 -1
    outer loop
      vertex 0.376742 -5.98816 0
      vertex 0.376742 5.98816 0
      vertex 0.751999 5.95269 0
    endloop
  endfacet
  facet normal 0 0 -1
    outer loop
      vertex 0 -6 0
      vertex 0.376742 5.98816 0
      vertex 0.376742 -5.98816 0
    endloop
  endfacet
  facet normal 0 0 -1
    outer loop
      vertex 0 -6 0
      vertex 0 6 0
      vertex 0.376742 5.98816 0
    endloop
  endfacet
  facet normal 0 0 -1
    outer loop
      vertex -0.376742 -5.98816 0
      vertex 0 6 0
      vertex 0 -6 0
    endloop
  endfacet
  facet normal 0 0 -1
    outer loop
      vertex -0.376742 -5.98816 0
      vertex -0.376742 5.98816 0
      vertex 0 6 0
    endloop
  endfacet
  facet normal 0 0 -1
    outer loop
      vertex -0.751999 -5.95269 0
      vertex -0.376742 5.98816 0
      vertex -0.376742 -5.98816 0
    endloop
  endfacet
  facet normal 0 0 -1
    outer loop
      vertex -0.751999 -5.95269 0
      vertex -0.751999 5.95269 0
      vertex -0.376742 5.98816 0
    endloop
  endfacet
  facet normal 0 0 -1
    outer loop
      vertex -1.12429 -5.89372 0
      vertex -0.751999 5.95269 0
      vertex -0.751999 -5.95269 0
    endloop
  endfacet
  facet normal 0 0 -1
    outer loop
      vertex -1.12429 -5.89372 0
      vertex -1.12429 5.89372 0
      vertex -0.751999 5.95269 0
    endloop
  endfacet
  facet normal 0 0 -1
    outer loop
      vertex -1.49214 -5.8115 0
      vertex -1.12429 5.89372 0
      vertex -1.12429 -5.89372 0
    endloop
  endfacet
  facet normal 0 0 -1
    outer loop
      vertex -1.49214 -5.8115 0
      vertex -1.49214 5.8115 0
      vertex -1.12429 5.89372 0
    endloop
  endfacet
  facet normal 0 0 -1
    outer loop
      vertex -1.8541 -5.70634 0
      vertex -1.49214 5.8115 0
      vertex -1.49214 -5.8115 0
    endloop
  endfacet
  facet normal 0 0 -1
    outer loop
      vertex -1.8541 -5.70634 0
      vertex -1.8541 5.70634 0
      vertex -1.49214 5.8115 0
    endloop
  endfacet
  facet normal 0 0 -1
    outer loop
      vertex -2.20875 -5.57866 0
      vertex -1.8541 5.70634 0
      vertex -1.8541 -5.70634 0
    endloop
  endfacet
  facet normal 0 0 -1
    outer loop
      vertex -2.20875 -5.57866 0
      vertex -2.20875 5.57866 0
      vertex -1.8541 5.70634 0
    endloop
  endfacet
  facet normal 0 0 -1
    outer loop
      vertex -2.55468 -5.42896 0
      vertex -2.20875 5.57866 0
      vertex -2.20875 -5.57866 0
    endloop
  endfacet
  facet normal 0 0 -1
    outer loop
      vertex -2.55468 -5.42896 0
      vertex -2.55468 5.42896 0
      vertex -2.20875 5.57866 0
    endloop
  endfacet
  facet normal 0 0 -1
    outer loop
      vertex -2.89052 -5.25784 0
      vertex -2.55468 5.42896 0
      vertex -2.55468 -5.42896 0
    endloop
  endfacet
  facet normal 0 0 -1
    outer loop
      vertex -2.89052 -5.25784 0
      vertex -2.89052 5.25784 0
      vertex -2.55468 5.42896 0
    endloop
  endfacet
  facet normal 0 0 -1
    outer loop
      vertex -3.21496 -5.06597 0
      vertex -2.89052 5.25784 0
      vertex -2.89052 -5.25784 0
    endloop
  endfacet
  facet normal 0 0 -1
    outer loop
      vertex -3.21496 -5.06597 0
      vertex -3.21496 5.06597 0
      vertex -2.89052 5.25784 0
    endloop
  endfacet
  facet normal 0 0 -1
    outer loop
      vertex -3.52671 -4.8541 0
      vertex -3.21496 5.06597 0
      vertex -3.21496 -5.06597 0
    endloop
  endfacet
  facet normal 0 0 -1
    outer loop
      vertex -3.52671 -4.8541 0
      vertex -3.52671 4.8541 0
      vertex -3.21496 5.06597 0
    endloop
  endfacet
  facet normal 0 0 -1
    outer loop
      vertex -3.82454 -4.62308 0
      vertex -3.52671 4.8541 0
      vertex -3.52671 -4.8541 0
    endloop
  endfacet
  facet normal 0 0 -1
    outer loop
      vertex -3.82454 -4.62308 0
      vertex -3.82454 4.62308 0
      vertex -3.52671 4.8541 0
    endloop
  endfacet
  facet normal 0 0 -1
    outer loop
      vertex -4.10728 -4.37381 0
      vertex -3.82454 4.62308 0
      vertex -3.82454 -4.62308 0
    endloop
  endfacet
  facet normal 0 0 -1
    outer loop
      vertex -4.10728 -4.37381 0
      vertex -4.10728 4.37381 0
      vertex -3.82454 4.62308 0
    endloop
  endfacet
  facet normal 0 0 -1
    outer loop
      vertex -4.37381 -4.10728 0
      vertex -4.10728 4.37381 0
      vertex -4.10728 -4.37381 0
    endloop
  endfacet
  facet normal 0 0 -1
    outer loop
      vertex -4.37381 -4.10728 0
      vertex -4.37381 4.10728 0
      vertex -4.10728 4.37381 0
    endloop
  endfacet
  facet normal 0 0 -1
    outer loop
      vertex -4.62308 -3.82454 0
      vertex -4.37381 4.10728 0
      vertex -4.37381 -4.10728 0
    endloop
  endfacet
  facet normal 0 0 -1
    outer loop
      vertex -4.62308 -3.82454 0
      vertex -4.62308 3.82454 0
      vertex -4.37381 4.10728 0
    endloop
  endfacet
  facet normal 0 0 -1
    outer loop
      vertex -4.8541 -3.52671 0
      vertex -4.62308 3.82454 0
      vertex -4.62308 -3.82454 0
    endloop
  endfacet
  facet normal 0 0 -1
    outer loop
      vertex -4.8541 -3.52671 0
      vertex -4.8541 3.52671 0
      vertex -4.62308 3.82454 0
    endloop
  endfacet
  facet normal 0 0 -1
    outer loop
      vertex -5.06597 -3.21496 0
      vertex -4.8541 3.52671 0
      vertex -4.8541 -3.52671 0
    endloop
  endfacet
  facet normal 0 0 -1
    outer loop
      vertex -5.06597 -3.21496 0
      vertex -5.06597 3.21496 0
      vertex -4.8541 3.52671 0
    endloop
  endfacet
  facet normal 0 0 -1
    outer loop
      vertex -5.25784 -2.89052 0
      vertex -5.06597 3.21496 0
      vertex -5.06597 -3.21496 0
    endloop
  endfacet
  facet normal 0 0 -1
    outer loop
      vertex -5.25784 -2.89052 0
      vertex -5.25784 2.89052 0
      vertex -5.06597 3.21496 0
    endloop
  endfacet
  facet normal 0 0 -1
    outer loop
      vertex -5.42896 -2.55468 0
      vertex -5.25784 2.89052 0
      vertex -5.25784 -2.89052 0
    endloop
  endfacet
  facet normal 0 0 -1
    outer loop
      vertex -5.42896 -2.55468 0
      vertex -5.42896 2.55468 0
      vertex -5.25784 2.89052 0
    endloop
  endfacet
  facet normal 0 0 -1
    outer loop
      vertex -5.57866 -2.20875 0
      vertex -5.42896 2.55468 0
      vertex -5.42896 -2.55468 0
    endloop
  endfacet
  facet normal 0 0 -1
    outer loop
      vertex -5.57866 -2.20875 0
      vertex -5.57866 2.20875 0
      vertex -5.42896 2.55468 0
    endloop
  endfacet
  facet normal 0 0 -1
    outer loop
      vertex -5.70634 -1.8541 0
      vertex -5.57866 2.20875 0
      vertex -5.57866 -2.20875 0
    endloop
  endfacet
  facet normal 0 0 -1
    outer loop
      vertex -5.70634 -1.8541 0
      vertex -5.70634 1.8541 0
      vertex -5.57866 2.20875 0
    endloop
  endfacet
  facet normal 0 0 -1
    outer loop
      vertex -5.8115 -1.49214 0
      vertex -5.70634 1.8541 0
      vertex -5.70634 -1.8541 0
    endloop
  endfacet
  facet normal 0 0 -1
    outer loop
      vertex -5.8115 -1.49214 0
      vertex -5.8115 1.49214 0
      vertex -5.70634 1.8541 0
    endloop
  endfacet
  facet normal 0 0 -1
    outer loop
      vertex -5.89372 -1.12429 0
      vertex -5.8115 1.49214 0
      vertex -5.8115 -1.49214 0
    endloop
  endfacet
  facet normal 0 0 -1
    outer loop
      vertex -5.89372 -1.12429 0
      vertex -5.89372 1.12429 0
      vertex -5.8115 1.49214 0
    endloop
  endfacet
  facet normal 0 0 -1
    outer loop
      vertex -5.95269 -0.751999 0
      vertex -5.89372 1.12429 0
      vertex -5.89372 -1.12429 0
    endloop
  endfacet
  facet normal 0 0 -1
    outer loop
      vertex -5.95269 -0.751999 0
      vertex -5.95269 0.751999 0
      vertex -5.89372 1.12429 0
    endloop
  endfacet
  facet normal 0 0 -1
    outer loop
      vertex -5.98816 -0.376742 0
      vertex -5.95269 0.751999 0
      vertex -5.95269 -0.751999 0
    endloop
  endfacet
  facet normal 0 0 -1
    outer loop
      vertex -5.98816 -0.376742 0
      vertex -5.98816 0.376742 0
      vertex -5.95269 0.751999 0
    endloop
  endfacet
  facet normal 0 -0 -1
    outer loop
      vertex -5.98816 0.376742 0
      vertex -5.98816 -0.376742 0
      vertex -6 0 0
    endloop
  endfacet
  facet normal 0.975919 0.218133 0
    outer loop
      vertex 5.89372 1.12429 24
      vertex 5.8115 1.49214 0
      vertex 5.8115 1.49214 24
    endloop
  endfacet
  facet normal 0.975919 0.218133 0
    outer loop
      vertex 5.8115 1.49214 0
      vertex 5.89372 1.12429 24
      vertex 5.89372 1.12429 0
    endloop
  endfacet
  facet normal 0.960293 0.278993 0
    outer loop
      vertex 5.8115 1.49214 24
      vertex 5.70634 1.8541 0
      vertex 5.70634 1.8541 24
    endloop
  endfacet
  facet normal 0.960293 0.278993 0
    outer loop
      vertex 5.70634 1.8541 0
      vertex 5.8115 1.49214 24
      vertex 5.8115 1.49214 0
    endloop
  endfacet
  facet normal 0.827075 0.562092 0
    outer loop
      vertex 5.06597 3.21496 24
      vertex 4.8541 3.52671 0
      vertex 4.8541 3.52671 24
    endloop
  endfacet
  facet normal 0.827075 0.562092 0
    outer loop
      vertex 4.8541 3.52671 0
      vertex 5.06597 3.21496 24
      vertex 5.06597 3.21496 0
    endloop
  endfacet
  facet normal 0.891005 0.453993 0
    outer loop
      vertex 5.42896 2.55468 24
      vertex 5.25784 2.89052 0
      vertex 5.25784 2.89052 24
    endloop
  endfacet
  facet normal 0.891005 0.453993 0
    outer loop
      vertex 5.25784 2.89052 0
      vertex 5.42896 2.55468 24
      vertex 5.42896 2.55468 0
    endloop
  endfacet
  facet normal 0.218133 0.975919 -0
    outer loop
      vertex 1.49214 5.8115 0
      vertex 1.12429 5.89372 24
      vertex 1.49214 5.8115 24
    endloop
  endfacet
  facet normal 0.218133 0.975919 0
    outer loop
      vertex 1.12429 5.89372 24
      vertex 1.49214 5.8115 0
      vertex 1.12429 5.89372 0
    endloop
  endfacet
  facet normal 0.338734 0.940882 -0
    outer loop
      vertex 2.20875 5.57866 0
      vertex 1.8541 5.70634 24
      vertex 2.20875 5.57866 24
    endloop
  endfacet
  facet normal 0.338734 0.940882 0
    outer loop
      vertex 1.8541 5.70634 24
      vertex 2.20875 5.57866 0
      vertex 1.8541 5.70634 0
    endloop
  endfacet
  facet normal 0.509035 0.860746 -0
    outer loop
      vertex 3.21496 5.06597 0
      vertex 2.89052 5.25784 24
      vertex 3.21496 5.06597 24
    endloop
  endfacet
  facet normal 0.509035 0.860746 0
    outer loop
      vertex 2.89052 5.25784 24
      vertex 3.21496 5.06597 0
      vertex 2.89052 5.25784 0
    endloop
  endfacet
  facet normal 0.612906 0.790156 -0
    outer loop
      vertex 3.82454 4.62308 0
      vertex 3.52671 4.8541 24
      vertex 3.82454 4.62308 24
    endloop
  endfacet
  facet normal 0.612906 0.790156 0
    outer loop
      vertex 3.52671 4.8541 24
      vertex 3.82454 4.62308 0
      vertex 3.52671 4.8541 0
    endloop
  endfacet
  facet normal -0.975919 0.218133 0
    outer loop
      vertex -5.89372 1.12429 0
      vertex -5.8115 1.49214 24
      vertex -5.8115 1.49214 0
    endloop
  endfacet
  facet normal -0.975919 0.218133 0
    outer loop
      vertex -5.8115 1.49214 24
      vertex -5.89372 1.12429 0
      vertex -5.89372 1.12429 24
    endloop
  endfacet
  facet normal -0.790156 0.612906 0
    outer loop
      vertex -4.8541 3.52671 0
      vertex -4.62308 3.82454 24
      vertex -4.62308 3.82454 0
    endloop
  endfacet
  facet normal -0.790156 0.612906 0
    outer loop
      vertex -4.62308 3.82454 24
      vertex -4.8541 3.52671 0
      vertex -4.8541 3.52671 24
    endloop
  endfacet
  facet normal -0.707107 0.707107 0
    outer loop
      vertex -4.37381 4.10728 0
      vertex -4.10728 4.37381 24
      vertex -4.10728 4.37381 0
    endloop
  endfacet
  facet normal -0.707107 0.707107 0
    outer loop
      vertex -4.10728 4.37381 24
      vertex -4.37381 4.10728 0
      vertex -4.37381 4.10728 24
    endloop
  endfacet
  facet normal 0 0 1
    outer loop
      vertex 5.5 0 24
      vertex 6 0 24
      vertex 5.98816 0.376742 24
    endloop
  endfacet
  facet normal 0 0 1
    outer loop
      vertex 5.5 0 24
      vertex 5.98816 0.376742 24
      vertex 5.95269 0.751999 24
    endloop
  endfacet
  facet normal 0 0 1
    outer loop
      vertex 6 0 24
      vertex 5.5 0 24
      vertex 5.98816 -0.376742 24
    endloop
  endfacet
  facet normal 0 0 1
    outer loop
      vertex 5.5 0 24
      vertex 5.95269 0.751999 24
      vertex 5.89372 1.12429 24
    endloop
  endfacet
  facet normal 0 0 1
    outer loop
      vertex 5.98816 -0.376742 24
      vertex 5.5 0 24
      vertex 5.95269 -0.751999 24
    endloop
  endfacet
  facet normal 0 0 1
    outer loop
      vertex 5.5 0 24
      vertex 5.89372 1.12429 24
      vertex 5.8115 1.49214 24
    endloop
  endfacet
  facet normal 0 0 1
    outer loop
      vertex 5.95269 -0.751999 24
      vertex 5.5 0 24
      vertex 5.89372 -1.12429 24
    endloop
  endfacet
  facet normal 0 0 1
    outer loop
      vertex 5.5 0 24
      vertex 5.8115 1.49214 24
      vertex 5.70634 1.8541 24
    endloop
  endfacet
  facet normal 0 0 1
    outer loop
      vertex 5.89372 -1.12429 24
      vertex 5.5 0 24
      vertex 5.8115 -1.49214 24
    endloop
  endfacet
  facet normal 0 0 1
    outer loop
      vertex 5.5 0 24
      vertex 5.70634 1.8541 24
      vertex 5.57866 2.20875 24
    endloop
  endfacet
  facet normal 0 0 1
    outer loop
      vertex 5.8115 -1.49214 24
      vertex 5.5 0 24
      vertex 5.70634 -1.8541 24
    endloop
  endfacet
  facet normal 0 0 1
    outer loop
      vertex 5.70634 -1.8541 24
      vertex 5.5 0 24
      vertex 5.57866 -2.20875 24
    endloop
  endfacet
  facet normal 0 0 1
    outer loop
      vertex 5.42896 2.55468 24
      vertex 5.5 0 24
      vertex 5.57866 2.20875 24
    endloop
  endfacet
  facet normal 0 0 1
    outer loop
      vertex 5.25784 2.89052 24
      vertex 5.5 0 24
      vertex 5.42896 2.55468 24
    endloop
  endfacet
  facet normal 0 0 1
    outer loop
      vertex 5.06597 3.21496 24
      vertex 5.5 0 24
      vertex 5.25784 2.89052 24
    endloop
  endfacet
  facet normal 0 0 1
    outer loop
      vertex 2.75 4.76314 24
      vertex 5.06597 3.21496 24
      vertex 4.8541 3.52671 24
    endloop
  endfacet
  facet normal 0 0 1
    outer loop
      vertex 2.75 4.76314 24
      vertex 4.8541 3.52671 24
      vertex 4.62308 3.82454 24
    endloop
  endfacet
  facet normal 0 0 1
    outer loop
      vertex 2.75 4.76314 24
      vertex 4.62308 3.82454 24
      vertex 4.37381 4.10728 24
    endloop
  endfacet
  facet normal 0 0 1
    outer loop
      vertex 2.75 4.76314 24
      vertex 4.37381 4.10728 24
      vertex 4.10728 4.37381 24
    endloop
  endfacet
  facet normal 0 0 1
    outer loop
      vertex 2.75 4.76314 24
      vertex 4.10728 4.37381 24
      vertex 3.82454 4.62308 24
    endloop
  endfacet
  facet normal -0 0 1
    outer loop
      vertex 2.75 4.76314 24
      vertex 3.82454 4.62308 24
      vertex 3.52671 4.8541 24
    endloop
  endfacet
  facet normal 0 0 1
    outer loop
      vertex 2.75 4.76314 24
      vertex 3.52671 4.8541 24
      vertex 3.21496 5.06597 24
    endloop
  endfacet
  facet normal 0 0 1
    outer loop
      vertex 2.75 4.76314 24
      vertex 3.21496 5.06597 24
      vertex 2.89052 5.25784 24
    endloop
  endfacet
  facet normal 0 0 1
    outer loop
      vertex 5.06597 3.21496 24
      vertex 2.75 4.76314 24
      vertex 5.5 0 24
    endloop
  endfacet
  facet normal 0 0 1
    outer loop
      vertex 2.55468 5.42896 24
      vertex 2.75 4.76314 24
      vertex 2.89052 5.25784 24
    endloop
  endfacet
  facet normal 0 0 1
    outer loop
      vertex 2.20875 5.57866 24
      vertex 2.75 4.76314 24
      vertex 2.55468 5.42896 24
    endloop
  endfacet
  facet normal 0 0 1
    outer loop
      vertex 1.8541 5.70634 24
      vertex 2.75 4.76314 24
      vertex 2.20875 5.57866 24
    endloop
  endfacet
  facet normal 0 0 1
    outer loop
      vertex 1.49214 5.8115 24
      vertex 2.75 4.76314 24
      vertex 1.8541 5.70634 24
    endloop
  endfacet
  facet normal 0 0 1
    outer loop
      vertex 1.12429 5.89372 24
      vertex 2.75 4.76314 24
      vertex 1.49214 5.8115 24
    endloop
  endfacet
  facet normal 0 0 1
    outer loop
      vertex 0.751999 5.95269 24
      vertex 2.75 4.76314 24
      vertex 1.12429 5.89372 24
    endloop
  endfacet
  facet normal 0 0 1
    outer loop
      vertex 0.376742 5.98816 24
      vertex 2.75 4.76314 24
      vertex 0.751999 5.95269 24
    endloop
  endfacet
  facet normal 0 0 1
    outer loop
      vertex 0 6 24
      vertex 2.75 4.76314 24
      vertex 0.376742 5.98816 24
    endloop
  endfacet
  facet normal 0 0 1
    outer loop
      vertex -2.75 4.76314 24
      vertex 0 6 24
      vertex -0.376742 5.98816 24
    endloop
  endfacet
  facet normal 0 0 1
    outer loop
      vertex -2.75 4.76314 24
      vertex -0.376742 5.98816 24
      vertex -0.751999 5.95269 24
    endloop
  endfacet
  facet normal 0 0 1
    outer loop
      vertex -2.75 4.76314 24
      vertex -0.751999 5.95269 24
      vertex -1.12429 5.89372 24
    endloop
  endfacet
  facet normal 0 0 1
    outer loop
      vertex -2.75 4.76314 24
      vertex -1.12429 5.89372 24
      vertex -1.49214 5.8115 24
    endloop
  endfacet
  facet normal 0 0 1
    outer loop
      vertex -2.75 4.76314 24
      vertex -1.49214 5.8115 24
      vertex -1.8541 5.70634 24
    endloop
  endfacet
  facet normal 0 0 1
    outer loop
      vertex -2.75 4.76314 24
      vertex -1.8541 5.70634 24
      vertex -2.20875 5.57866 24
    endloop
  endfacet
  facet normal 0 0 1
    outer loop
      vertex -2.75 4.76314 24
      vertex -2.20875 5.57866 24
      vertex -2.55468 5.42896 24
    endloop
  endfacet
  facet normal 0 0 1
    outer loop
      vertex 0 6 24
      vertex -2.75 4.76314 24
      vertex 2.75 4.76314 24
    endloop
  endfacet
  facet normal -0 0 1
    outer loop
      vertex -2.89052 5.25784 24
      vertex -2.75 4.76314 24
      vertex -2.55468 5.42896 24
    endloop
  endfacet
  facet normal -0 0 1
    outer loop
      vertex -3.21496 5.06597 24
      vertex -2.75 4.76314 24
      vertex -2.89052 5.25784 24
    endloop
  endfacet
  facet normal -0 0 1
    outer loop
      vertex -3.52671 4.8541 24
      vertex -2.75 4.76314 24
      vertex -3.21496 5.06597 24
    endloop
  endfacet
  facet normal 0 0 1
    outer loop
      vertex -3.82454 4.62308 24
      vertex -2.75 4.76314 24
      vertex -3.52671 4.8541 24
    endloop
  endfacet
  facet normal 0 0 1
    outer loop
      vertex -4.10728 4.37381 24
      vertex -2.75 4.76314 24
      vertex -3.82454 4.62308 24
    endloop
  endfacet
  facet normal 0 0 1
    outer loop
      vertex -4.37381 4.10728 24
      vertex -2.75 4.76314 24
      vertex -4.10728 4.37381 24
    endloop
  endfacet
  facet normal 0 0 1
    outer loop
      vertex -4.62308 3.82454 24
      vertex -2.75 4.76314 24
      vertex -4.37381 4.10728 24
    endloop
  endfacet
  facet normal 0 0 1
    outer loop
      vertex -4.8541 3.52671 24
      vertex -2.75 4.76314 24
      vertex -4.62308 3.82454 24
    endloop
  endfacet
  facet normal 0 0 1
    outer loop
      vertex -5.06597 3.21496 24
      vertex -2.75 4.76314 24
      vertex -4.8541 3.52671 24
    endloop
  endfacet
  facet normal 0 0 1
    outer loop
      vertex -5.25784 2.89052 24
      vertex -2.75 4.76314 24
      vertex -5.06597 3.21496 24
    endloop
  endfacet
  facet normal 0 0 1
    outer loop
      vertex -5.5 0 24
      vertex -5.25784 2.89052 24
      vertex -5.42896 2.55468 24
    endloop
  endfacet
  facet normal -0 0 1
    outer loop
      vertex -5.25784 2.89052 24
      vertex -5.5 0 24
      vertex -2.75 4.76314 24
    endloop
  endfacet
  facet normal 0 -0 1
    outer loop
      vertex -5.5 0 24
      vertex -5.42896 2.55468 24
      vertex -5.57866 2.20875 24
    endloop
  endfacet
  facet normal 0 0 1
    outer loop
      vertex 5.5 0 24
      vertex 5.42896 -2.55468 24
      vertex 5.57866 -2.20875 24
    endloop
  endfacet
  facet normal 0 0 1
    outer loop
      vertex 5.5 0 24
      vertex 5.25784 -2.89052 24
      vertex 5.42896 -2.55468 24
    endloop
  endfacet
  facet normal 0 0 1
    outer loop
      vertex 5.5 0 24
      vertex 5.06597 -3.21496 24
      vertex 5.25784 -2.89052 24
    endloop
  endfacet
  facet normal 0 0 1
    outer loop
      vertex 2.75 -4.76314 24
      vertex 5.06597 -3.21496 24
      vertex 5.5 0 24
    endloop
  endfacet
  facet normal 0 0 1
    outer loop
      vertex 5.06597 -3.21496 24
      vertex 2.75 -4.76314 24
      vertex 4.8541 -3.52671 24
    endloop
  endfacet
  facet normal 0 0 1
    outer loop
      vertex 4.8541 -3.52671 24
      vertex 2.75 -4.76314 24
      vertex 4.62308 -3.82454 24
    endloop
  endfacet
  facet normal 0 0 1
    outer loop
      vertex 4.62308 -3.82454 24
      vertex 2.75 -4.76314 24
      vertex 4.37381 -4.10728 24
    endloop
  endfacet
  facet normal 0 0 1
    outer loop
      vertex 4.37381 -4.10728 24
      vertex 2.75 -4.76314 24
      vertex 4.10728 -4.37381 24
    endloop
  endfacet
  facet normal 0 0 1
    outer loop
      vertex 4.10728 -4.37381 24
      vertex 2.75 -4.76314 24
      vertex 3.82454 -4.62308 24
    endloop
  endfacet
  facet normal 0 0 1
    outer loop
      vertex 3.82454 -4.62308 24
      vertex 2.75 -4.76314 24
      vertex 3.52671 -4.8541 24
    endloop
  endfacet
  facet normal 0 0 1
    outer loop
      vertex 3.52671 -4.8541 24
      vertex 2.75 -4.76314 24
      vertex 3.21496 -5.06597 24
    endloop
  endfacet
  facet normal 0 0 1
    outer loop
      vertex 3.21496 -5.06597 24
      vertex 2.75 -4.76314 24
      vertex 2.89052 -5.25784 24
    endloop
  endfacet
  facet normal 0 0 1
    outer loop
      vertex 2.75 -4.76314 24
      vertex 2.55468 -5.42896 24
      vertex 2.89052 -5.25784 24
    endloop
  endfacet
  facet normal 0 0 1
    outer loop
      vertex 2.75 -4.76314 24
      vertex 2.20875 -5.57866 24
      vertex 2.55468 -5.42896 24
    endloop
  endfacet
  facet normal 0 0 1
    outer loop
      vertex 2.75 -4.76314 24
      vertex 1.8541 -5.70634 24
      vertex 2.20875 -5.57866 24
    endloop
  endfacet
  facet normal 0 0 1
    outer loop
      vertex 2.75 -4.76314 24
      vertex 1.49214 -5.8115 24
      vertex 1.8541 -5.70634 24
    endloop
  endfacet
  facet normal 0 0 1
    outer loop
      vertex 2.75 -4.76314 24
      vertex 1.12429 -5.89372 24
      vertex 1.49214 -5.8115 24
    endloop
  endfacet
  facet normal 0 0 1
    outer loop
      vertex 2.75 -4.76314 24
      vertex 0.751999 -5.95269 24
      vertex 1.12429 -5.89372 24
    endloop
  endfacet
  facet normal 0 0 1
    outer loop
      vertex 2.75 -4.76314 24
      vertex 0.376742 -5.98816 24
      vertex 0.751999 -5.95269 24
    endloop
  endfacet
  facet normal 0 0 1
    outer loop
      vertex 2.75 -4.76314 24
      vertex 0 -6 24
      vertex 0.376742 -5.98816 24
    endloop
  endfacet
  facet normal -0 0 1
    outer loop
      vertex -2.75 -4.76314 24
      vertex 0 -6 24
      vertex 2.75 -4.76314 24
    endloop
  endfacet
  facet normal 0 0 1
    outer loop
      vertex 0 -6 24
      vertex -2.75 -4.76314 24
      vertex -0.376742 -5.98816 24
    endloop
  endfacet
  facet normal 0 0 1
    outer loop
      vertex -0.376742 -5.98816 24
      vertex -2.75 -4.76314 24
      vertex -0.751999 -5.95269 24
    endloop
  endfacet
  facet normal 0 0 1
    outer loop
      vertex -0.751999 -5.95269 24
      vertex -2.75 -4.76314 24
      vertex -1.12429 -5.89372 24
    endloop
  endfacet
  facet normal 0 0 1
    outer loop
      vertex -1.12429 -5.89372 24
      vertex -2.75 -4.76314 24
      vertex -1.49214 -5.8115 24
    endloop
  endfacet
  facet normal 0 0 1
    outer loop
      vertex -1.49214 -5.8115 24
      vertex -2.75 -4.76314 24
      vertex -1.8541 -5.70634 24
    endloop
  endfacet
  facet normal 0 0 1
    outer loop
      vertex -1.8541 -5.70634 24
      vertex -2.75 -4.76314 24
      vertex -2.20875 -5.57866 24
    endloop
  endfacet
  facet normal 0 0 1
    outer loop
      vertex -2.20875 -5.57866 24
      vertex -2.75 -4.76314 24
      vertex -2.55468 -5.42896 24
    endloop
  endfacet
  facet normal 0 0 1
    outer loop
      vertex -2.75 -4.76314 24
      vertex -2.89052 -5.25784 24
      vertex -2.55468 -5.42896 24
    endloop
  endfacet
  facet normal 0 0 1
    outer loop
      vertex -2.75 -4.76314 24
      vertex -3.21496 -5.06597 24
      vertex -2.89052 -5.25784 24
    endloop
  endfacet
  facet normal 0 0 1
    outer loop
      vertex -2.75 -4.76314 24
      vertex -3.52671 -4.8541 24
      vertex -3.21496 -5.06597 24
    endloop
  endfacet
  facet normal 0 0 1
    outer loop
      vertex -2.75 -4.76314 24
      vertex -3.82454 -4.62308 24
      vertex -3.52671 -4.8541 24
    endloop
  endfacet
  facet normal 0 0 1
    outer loop
      vertex -2.75 -4.76314 24
      vertex -4.10728 -4.37381 24
      vertex -3.82454 -4.62308 24
    endloop
  endfacet
  facet normal 0 0 1
    outer loop
      vertex -2.75 -4.76314 24
      vertex -4.37381 -4.10728 24
      vertex -4.10728 -4.37381 24
    endloop
  endfacet
  facet normal 0 0 1
    outer loop
      vertex -2.75 -4.76314 24
      vertex -4.62308 -3.82454 24
      vertex -4.37381 -4.10728 24
    endloop
  endfacet
  facet normal 0 0 1
    outer loop
      vertex -2.75 -4.76314 24
      vertex -4.8541 -3.52671 24
      vertex -4.62308 -3.82454 24
    endloop
  endfacet
  facet normal 0 0 1
    outer loop
      vertex -2.75 -4.76314 24
      vertex -5.06597 -3.21496 24
      vertex -4.8541 -3.52671 24
    endloop
  endfacet
  facet normal 0 0 1
    outer loop
      vertex -2.75 -4.76314 24
      vertex -5.25784 -2.89052 24
      vertex -5.06597 -3.21496 24
    endloop
  endfacet
  facet normal 0 0 1
    outer loop
      vertex -5.5 0 24
      vertex -5.25784 -2.89052 24
      vertex -2.75 -4.76314 24
    endloop
  endfacet
  facet normal 0 0 1
    outer loop
      vertex -5.25784 -2.89052 24
      vertex -5.5 0 24
      vertex -5.42896 -2.55468 24
    endloop
  endfacet
  facet normal -0 0 1
    outer loop
      vertex -5.70634 1.8541 24
      vertex -5.5 0 24
      vertex -5.57866 2.20875 24
    endloop
  endfacet
  facet normal 0 0 1
    outer loop
      vertex -5.5 0 24
      vertex -5.57866 -2.20875 24
      vertex -5.42896 -2.55468 24
    endloop
  endfacet
  facet normal -0 0 1
    outer loop
      vertex -5.8115 1.49214 24
      vertex -5.5 0 24
      vertex -5.70634 1.8541 24
    endloop
  endfacet
  facet normal 0 0 1
    outer loop
      vertex -5.5 0 24
      vertex -5.70634 -1.8541 24
      vertex -5.57866 -2.20875 24
    endloop
  endfacet
  facet normal -0 0 1
    outer loop
      vertex -5.89372 1.12429 24
      vertex -5.5 0 24
      vertex -5.8115 1.49214 24
    endloop
  endfacet
  facet normal 0 0 1
    outer loop
      vertex -5.5 0 24
      vertex -5.8115 -1.49214 24
      vertex -5.70634 -1.8541 24
    endloop
  endfacet
  facet normal -0 0 1
    outer loop
      vertex -5.95269 0.751999 24
      vertex -5.5 0 24
      vertex -5.89372 1.12429 24
    endloop
  endfacet
  facet normal 0 0 1
    outer loop
      vertex -5.5 0 24
      vertex -5.89372 -1.12429 24
      vertex -5.8115 -1.49214 24
    endloop
  endfacet
  facet normal -0 0 1
    outer loop
      vertex -5.98816 0.376742 24
      vertex -5.5 0 24
      vertex -5.95269 0.751999 24
    endloop
  endfacet
  facet normal 0 0 1
    outer loop
      vertex -5.5 0 24
      vertex -5.95269 -0.751999 24
      vertex -5.89372 -1.12429 24
    endloop
  endfacet
  facet normal 0 0 1
    outer loop
      vertex -6 0 24
      vertex -5.5 0 24
      vertex -5.98816 0.376742 24
    endloop
  endfacet
  facet normal 0 0 1
    outer loop
      vertex -5.5 0 24
      vertex -5.98816 -0.376742 24
      vertex -5.95269 -0.751999 24
    endloop
  endfacet
  facet normal 0 0 1
    outer loop
      vertex -5.5 0 24
      vertex -6 0 24
      vertex -5.98816 -0.376742 24
    endloop
  endfacet
  facet normal -0.509035 0.860746 0
    outer loop
      vertex -2.89052 5.25784 0
      vertex -3.21496 5.06597 24
      vertex -2.89052 5.25784 24
    endloop
  endfacet
  facet normal -0.509035 0.860746 0
    outer loop
      vertex -3.21496 5.06597 24
      vertex -2.89052 5.25784 0
      vertex -3.21496 5.06597 0
    endloop
  endfacet
  facet normal -0.562092 0.827075 0
    outer loop
      vertex -3.21496 5.06597 0
      vertex -3.52671 4.8541 24
      vertex -3.21496 5.06597 24
    endloop
  endfacet
  facet normal -0.562092 0.827075 0
    outer loop
      vertex -3.52671 4.8541 24
      vertex -3.21496 5.06597 0
      vertex -3.52671 4.8541 0
    endloop
  endfacet
  facet normal -0.0314118 0.999507 0
    outer loop
      vertex 0 6 0
      vertex -0.376742 5.98816 24
      vertex 0 6 24
    endloop
  endfacet
  facet normal -0.0314118 0.999507 0
    outer loop
      vertex -0.376742 5.98816 24
      vertex 0 6 0
      vertex -0.376742 5.98816 0
    endloop
  endfacet
  facet normal 0.987686 -0.156447 0
    outer loop
      vertex 5.89372 -1.12429 24
      vertex 5.95269 -0.751999 0
      vertex 5.95269 -0.751999 24
    endloop
  endfacet
  facet normal 0.987686 -0.156447 0
    outer loop
      vertex 5.95269 -0.751999 0
      vertex 5.89372 -1.12429 24
      vertex 5.89372 -1.12429 0
    endloop
  endfacet
  facet normal 0.0314118 -0.999507 0
    outer loop
      vertex 0 -6 0
      vertex 0.376742 -5.98816 24
      vertex 0 -6 24
    endloop
  endfacet
  facet normal 0.0314118 -0.999507 0
    outer loop
      vertex 0.376742 -5.98816 24
      vertex 0 -6 0
      vertex 0.376742 -5.98816 0
    endloop
  endfacet
  facet normal 0.453993 -0.891005 0
    outer loop
      vertex 2.55468 -5.42896 0
      vertex 2.89052 -5.25784 24
      vertex 2.55468 -5.42896 24
    endloop
  endfacet
  facet normal 0.453993 -0.891005 0
    outer loop
      vertex 2.89052 -5.25784 24
      vertex 2.55468 -5.42896 0
      vertex 2.89052 -5.25784 0
    endloop
  endfacet
  facet normal 0.891005 -0.453993 0
    outer loop
      vertex 5.25784 -2.89052 24
      vertex 5.42896 -2.55468 0
      vertex 5.42896 -2.55468 24
    endloop
  endfacet
  facet normal 0.891005 -0.453993 0
    outer loop
      vertex 5.42896 -2.55468 0
      vertex 5.25784 -2.89052 24
      vertex 5.25784 -2.89052 0
    endloop
  endfacet
  facet normal -0.707107 -0.707107 0
    outer loop
      vertex -4.10728 -4.37381 0
      vertex -4.37381 -4.10728 24
      vertex -4.37381 -4.10728 0
    endloop
  endfacet
  facet normal -0.707107 -0.707107 0
    outer loop
      vertex -4.37381 -4.10728 24
      vertex -4.10728 -4.37381 0
      vertex -4.10728 -4.37381 24
    endloop
  endfacet
  facet normal -0.827075 -0.562092 0
    outer loop
      vertex -4.8541 -3.52671 0
      vertex -5.06597 -3.21496 24
      vertex -5.06597 -3.21496 0
    endloop
  endfacet
  facet normal -0.827075 -0.562092 0
    outer loop
      vertex -5.06597 -3.21496 24
      vertex -4.8541 -3.52671 0
      vertex -4.8541 -3.52671 24
    endloop
  endfacet
  facet normal -0.999507 -0.0314118 0
    outer loop
      vertex -5.98816 -0.376742 0
      vertex -6 0 24
      vertex -6 0 0
    endloop
  endfacet
  facet normal -0.999507 -0.0314118 0
    outer loop
      vertex -6 0 24
      vertex -5.98816 -0.376742 0
      vertex -5.98816 -0.376742 24
    endloop
  endfacet
  facet normal 0.987686 0.156447 0
    outer loop
      vertex 5.95269 0.751999 24
      vertex 5.89372 1.12429 0
      vertex 5.89372 1.12429 24
    endloop
  endfacet
  facet normal 0.987686 0.156447 0
    outer loop
      vertex 5.89372 1.12429 0
      vertex 5.95269 0.751999 24
      vertex 5.95269 0.751999 0
    endloop
  endfacet
  facet normal 0.995563 0.0941024 0
    outer loop
      vertex 5.98816 0.376742 24
      vertex 5.95269 0.751999 0
      vertex 5.95269 0.751999 24
    endloop
  endfacet
  facet normal 0.995563 0.0941024 0
    outer loop
      vertex 5.95269 0.751999 0
      vertex 5.98816 0.376742 24
      vertex 5.98816 0.376742 0
    endloop
  endfacet
  facet normal 0.940882 0.338734 0
    outer loop
      vertex 5.70634 1.8541 24
      vertex 5.57866 2.20875 0
      vertex 5.57866 2.20875 24
    endloop
  endfacet
  facet normal 0.940882 0.338734 0
    outer loop
      vertex 5.57866 2.20875 0
      vertex 5.70634 1.8541 24
      vertex 5.70634 1.8541 0
    endloop
  endfacet
  facet normal 0.790156 0.612906 0
    outer loop
      vertex 4.8541 3.52671 24
      vertex 4.62308 3.82454 0
      vertex 4.62308 3.82454 24
    endloop
  endfacet
  facet normal 0.790156 0.612906 0
    outer loop
      vertex 4.62308 3.82454 0
      vertex 4.8541 3.52671 24
      vertex 4.8541 3.52671 0
    endloop
  endfacet
  facet normal 0.75011 0.661314 0
    outer loop
      vertex 4.62308 3.82454 24
      vertex 4.37381 4.10728 0
      vertex 4.37381 4.10728 24
    endloop
  endfacet
  facet normal 0.75011 0.661314 0
    outer loop
      vertex 4.37381 4.10728 0
      vertex 4.62308 3.82454 24
      vertex 4.62308 3.82454 0
    endloop
  endfacet
  facet normal 0.860746 0.509035 0
    outer loop
      vertex 5.25784 2.89052 24
      vertex 5.06597 3.21496 0
      vertex 5.06597 3.21496 24
    endloop
  endfacet
  facet normal 0.860746 0.509035 0
    outer loop
      vertex 5.06597 3.21496 0
      vertex 5.25784 2.89052 24
      vertex 5.25784 2.89052 0
    endloop
  endfacet
  facet normal 0.278993 0.960293 -0
    outer loop
      vertex 1.8541 5.70634 0
      vertex 1.49214 5.8115 24
      vertex 1.8541 5.70634 24
    endloop
  endfacet
  facet normal 0.278993 0.960293 0
    outer loop
      vertex 1.49214 5.8115 24
      vertex 1.8541 5.70634 0
      vertex 1.49214 5.8115 0
    endloop
  endfacet
  facet normal 0.156447 0.987686 -0
    outer loop
      vertex 1.12429 5.89372 0
      vertex 0.751999 5.95269 24
      vertex 1.12429 5.89372 24
    endloop
  endfacet
  facet normal 0.156447 0.987686 0
    outer loop
      vertex 0.751999 5.95269 24
      vertex 1.12429 5.89372 0
      vertex 0.751999 5.95269 0
    endloop
  endfacet
  facet normal 0.0941024 0.995563 -0
    outer loop
      vertex 0.751999 5.95269 0
      vertex 0.376742 5.98816 24
      vertex 0.751999 5.95269 24
    endloop
  endfacet
  facet normal 0.0941024 0.995563 0
    outer loop
      vertex 0.376742 5.98816 24
      vertex 0.751999 5.95269 0
      vertex 0.376742 5.98816 0
    endloop
  endfacet
  facet normal 0.453993 0.891005 -0
    outer loop
      vertex 2.89052 5.25784 0
      vertex 2.55468 5.42896 24
      vertex 2.89052 5.25784 24
    endloop
  endfacet
  facet normal 0.453993 0.891005 0
    outer loop
      vertex 2.55468 5.42896 24
      vertex 2.89052 5.25784 0
      vertex 2.55468 5.42896 0
    endloop
  endfacet
  facet normal 0.661314 0.75011 -0
    outer loop
      vertex 4.10728 4.37381 0
      vertex 3.82454 4.62308 24
      vertex 4.10728 4.37381 24
    endloop
  endfacet
  facet normal 0.661314 0.75011 0
    outer loop
      vertex 3.82454 4.62308 24
      vertex 4.10728 4.37381 0
      vertex 3.82454 4.62308 0
    endloop
  endfacet
  facet normal -0.75011 0.661314 0
    outer loop
      vertex -4.62308 3.82454 0
      vertex -4.37381 4.10728 24
      vertex -4.37381 4.10728 0
    endloop
  endfacet
  facet normal -0.75011 0.661314 0
    outer loop
      vertex -4.37381 4.10728 24
      vertex -4.62308 3.82454 0
      vertex -4.62308 3.82454 24
    endloop
  endfacet
  facet normal -0.860746 0.509035 0
    outer loop
      vertex -5.25784 2.89052 0
      vertex -5.06597 3.21496 24
      vertex -5.06597 3.21496 0
    endloop
  endfacet
  facet normal -0.860746 0.509035 0
    outer loop
      vertex -5.06597 3.21496 24
      vertex -5.25784 2.89052 0
      vertex -5.25784 2.89052 24
    endloop
  endfacet
  facet normal -0.827075 0.562092 0
    outer loop
      vertex -5.06597 3.21496 0
      vertex -4.8541 3.52671 24
      vertex -4.8541 3.52671 0
    endloop
  endfacet
  facet normal -0.827075 0.562092 0
    outer loop
      vertex -4.8541 3.52671 24
      vertex -5.06597 3.21496 0
      vertex -5.06597 3.21496 24
    endloop
  endfacet
  facet normal -0.940882 0.338734 0
    outer loop
      vertex -5.70634 1.8541 0
      vertex -5.57866 2.20875 24
      vertex -5.57866 2.20875 0
    endloop
  endfacet
  facet normal -0.940882 0.338734 0
    outer loop
      vertex -5.57866 2.20875 24
      vertex -5.70634 1.8541 0
      vertex -5.70634 1.8541 24
    endloop
  endfacet
  facet normal -0.917752 0.397154 0
    outer loop
      vertex -5.57866 2.20875 0
      vertex -5.42896 2.55468 24
      vertex -5.42896 2.55468 0
    endloop
  endfacet
  facet normal -0.917752 0.397154 0
    outer loop
      vertex -5.42896 2.55468 24
      vertex -5.57866 2.20875 0
      vertex -5.57866 2.20875 24
    endloop
  endfacet
  facet normal -0.960293 0.278993 0
    outer loop
      vertex -5.8115 1.49214 0
      vertex -5.70634 1.8541 24
      vertex -5.70634 1.8541 0
    endloop
  endfacet
  facet normal -0.960293 0.278993 0
    outer loop
      vertex -5.70634 1.8541 24
      vertex -5.8115 1.49214 0
      vertex -5.8115 1.49214 24
    endloop
  endfacet
  facet normal -0.987686 0.156447 0
    outer loop
      vertex -5.95269 0.751999 0
      vertex -5.89372 1.12429 24
      vertex -5.89372 1.12429 0
    endloop
  endfacet
  facet normal -0.987686 0.156447 0
    outer loop
      vertex -5.89372 1.12429 24
      vertex -5.95269 0.751999 0
      vertex -5.95269 0.751999 24
    endloop
  endfacet
  facet normal -0.995563 0.0941024 0
    outer loop
      vertex -5.98816 0.376742 0
      vertex -5.95269 0.751999 24
      vertex -5.95269 0.751999 0
    endloop
  endfacet
  facet normal -0.995563 0.0941024 0
    outer loop
      vertex -5.95269 0.751999 24
      vertex -5.98816 0.376742 0
      vertex -5.98816 0.376742 24
    endloop
  endfacet
  facet normal -0.453993 0.891005 0
    outer loop
      vertex -2.55468 5.42896 0
      vertex -2.89052 5.25784 24
      vertex -2.55468 5.42896 24
    endloop
  endfacet
  facet normal -0.453993 0.891005 0
    outer loop
      vertex -2.89052 5.25784 24
      vertex -2.55468 5.42896 0
      vertex -2.89052 5.25784 0
    endloop
  endfacet
  facet normal -0.397154 0.917752 0
    outer loop
      vertex -2.20875 5.57866 0
      vertex -2.55468 5.42896 24
      vertex -2.20875 5.57866 24
    endloop
  endfacet
  facet normal -0.397154 0.917752 0
    outer loop
      vertex -2.55468 5.42896 24
      vertex -2.20875 5.57866 0
      vertex -2.55468 5.42896 0
    endloop
  endfacet
  facet normal -0.612906 0.790156 0
    outer loop
      vertex -3.52671 4.8541 0
      vertex -3.82454 4.62308 24
      vertex -3.52671 4.8541 24
    endloop
  endfacet
  facet normal -0.612906 0.790156 0
    outer loop
      vertex -3.82454 4.62308 24
      vertex -3.52671 4.8541 0
      vertex -3.82454 4.62308 0
    endloop
  endfacet
  facet normal -0.218133 0.975919 0
    outer loop
      vertex -1.12429 5.89372 0
      vertex -1.49214 5.8115 24
      vertex -1.12429 5.89372 24
    endloop
  endfacet
  facet normal -0.218133 0.975919 0
    outer loop
      vertex -1.49214 5.8115 24
      vertex -1.12429 5.89372 0
      vertex -1.49214 5.8115 0
    endloop
  endfacet
  facet normal -0.278993 0.960293 0
    outer loop
      vertex -1.49214 5.8115 0
      vertex -1.8541 5.70634 24
      vertex -1.49214 5.8115 24
    endloop
  endfacet
  facet normal -0.278993 0.960293 0
    outer loop
      vertex -1.8541 5.70634 24
      vertex -1.49214 5.8115 0
      vertex -1.8541 5.70634 0
    endloop
  endfacet
  facet normal -0.0941024 0.995563 0
    outer loop
      vertex -0.376742 5.98816 0
      vertex -0.751999 5.95269 24
      vertex -0.376742 5.98816 24
    endloop
  endfacet
  facet normal -0.0941024 0.995563 0
    outer loop
      vertex -0.751999 5.95269 24
      vertex -0.376742 5.98816 0
      vertex -0.751999 5.95269 0
    endloop
  endfacet
  facet normal 0.0941024 -0.995563 0
    outer loop
      vertex 0.376742 -5.98816 0
      vertex 0.751999 -5.95269 24
      vertex 0.376742 -5.98816 24
    endloop
  endfacet
  facet normal 0.0941024 -0.995563 0
    outer loop
      vertex 0.751999 -5.95269 24
      vertex 0.376742 -5.98816 0
      vertex 0.751999 -5.95269 0
    endloop
  endfacet
  facet normal 0.338734 -0.940882 0
    outer loop
      vertex 1.8541 -5.70634 0
      vertex 2.20875 -5.57866 24
      vertex 1.8541 -5.70634 24
    endloop
  endfacet
  facet normal 0.338734 -0.940882 0
    outer loop
      vertex 2.20875 -5.57866 24
      vertex 1.8541 -5.70634 0
      vertex 2.20875 -5.57866 0
    endloop
  endfacet
  facet normal 0.218133 -0.975919 0
    outer loop
      vertex 1.12429 -5.89372 0
      vertex 1.49214 -5.8115 24
      vertex 1.12429 -5.89372 24
    endloop
  endfacet
  facet normal 0.218133 -0.975919 0
    outer loop
      vertex 1.49214 -5.8115 24
      vertex 1.12429 -5.89372 0
      vertex 1.49214 -5.8115 0
    endloop
  endfacet
  facet normal 0.612906 -0.790156 0
    outer loop
      vertex 3.52671 -4.8541 0
      vertex 3.82454 -4.62308 24
      vertex 3.52671 -4.8541 24
    endloop
  endfacet
  facet normal 0.612906 -0.790156 0
    outer loop
      vertex 3.82454 -4.62308 24
      vertex 3.52671 -4.8541 0
      vertex 3.82454 -4.62308 0
    endloop
  endfacet
  facet normal 0.707107 -0.707107 0
    outer loop
      vertex 4.10728 -4.37381 24
      vertex 4.37381 -4.10728 0
      vertex 4.37381 -4.10728 24
    endloop
  endfacet
  facet normal 0.707107 -0.707107 0
    outer loop
      vertex 4.37381 -4.10728 0
      vertex 4.10728 -4.37381 24
      vertex 4.10728 -4.37381 0
    endloop
  endfacet
  facet normal 0.509035 -0.860746 0
    outer loop
      vertex 2.89052 -5.25784 0
      vertex 3.21496 -5.06597 24
      vertex 2.89052 -5.25784 24
    endloop
  endfacet
  facet normal 0.509035 -0.860746 0
    outer loop
      vertex 3.21496 -5.06597 24
      vertex 2.89052 -5.25784 0
      vertex 3.21496 -5.06597 0
    endloop
  endfacet
  facet normal 0.75011 -0.661314 0
    outer loop
      vertex 4.37381 -4.10728 24
      vertex 4.62308 -3.82454 0
      vertex 4.62308 -3.82454 24
    endloop
  endfacet
  facet normal 0.75011 -0.661314 0
    outer loop
      vertex 4.62308 -3.82454 0
      vertex 4.37381 -4.10728 24
      vertex 4.37381 -4.10728 0
    endloop
  endfacet
  facet normal 0.827075 -0.562092 0
    outer loop
      vertex 4.8541 -3.52671 24
      vertex 5.06597 -3.21496 0
      vertex 5.06597 -3.21496 24
    endloop
  endfacet
  facet normal 0.827075 -0.562092 0
    outer loop
      vertex 5.06597 -3.21496 0
      vertex 4.8541 -3.52671 24
      vertex 4.8541 -3.52671 0
    endloop
  endfacet
  facet normal 0.917752 -0.397154 0
    outer loop
      vertex 5.42896 -2.55468 24
      vertex 5.57866 -2.20875 0
      vertex 5.57866 -2.20875 24
    endloop
  endfacet
  facet normal 0.917752 -0.397154 0
    outer loop
      vertex 5.57866 -2.20875 0
      vertex 5.42896 -2.55468 24
      vertex 5.42896 -2.55468 0
    endloop
  endfacet
  facet normal 0.960293 -0.278993 0
    outer loop
      vertex 5.70634 -1.8541 24
      vertex 5.8115 -1.49214 0
      vertex 5.8115 -1.49214 24
    endloop
  endfacet
  facet normal 0.960293 -0.278993 0
    outer loop
      vertex 5.8115 -1.49214 0
      vertex 5.70634 -1.8541 24
      vertex 5.70634 -1.8541 0
    endloop
  endfacet
  facet normal -0.661314 -0.75011 0
    outer loop
      vertex -4.10728 -4.37381 0
      vertex -3.82454 -4.62308 24
      vertex -4.10728 -4.37381 24
    endloop
  endfacet
  facet normal -0.661314 -0.75011 -0
    outer loop
      vertex -3.82454 -4.62308 24
      vertex -4.10728 -4.37381 0
      vertex -3.82454 -4.62308 0
    endloop
  endfacet
  facet normal -0.453993 -0.891005 0
    outer loop
      vertex -2.89052 -5.25784 0
      vertex -2.55468 -5.42896 24
      vertex -2.89052 -5.25784 24
    endloop
  endfacet
  facet normal -0.453993 -0.891005 -0
    outer loop
      vertex -2.55468 -5.42896 24
      vertex -2.89052 -5.25784 0
      vertex -2.55468 -5.42896 0
    endloop
  endfacet
  facet normal -0.562092 -0.827075 0
    outer loop
      vertex -3.52671 -4.8541 0
      vertex -3.21496 -5.06597 24
      vertex -3.52671 -4.8541 24
    endloop
  endfacet
  facet normal -0.562092 -0.827075 -0
    outer loop
      vertex -3.21496 -5.06597 24
      vertex -3.52671 -4.8541 0
      vertex -3.21496 -5.06597 0
    endloop
  endfacet
  facet normal -0.397154 -0.917752 0
    outer loop
      vertex -2.55468 -5.42896 0
      vertex -2.20875 -5.57866 24
      vertex -2.55468 -5.42896 24
    endloop
  endfacet
  facet normal -0.397154 -0.917752 -0
    outer loop
      vertex -2.20875 -5.57866 24
      vertex -2.55468 -5.42896 0
      vertex -2.20875 -5.57866 0
    endloop
  endfacet
  facet normal -0.278993 -0.960293 0
    outer loop
      vertex -1.8541 -5.70634 0
      vertex -1.49214 -5.8115 24
      vertex -1.8541 -5.70634 24
    endloop
  endfacet
  facet normal -0.278993 -0.960293 -0
    outer loop
      vertex -1.49214 -5.8115 24
      vertex -1.8541 -5.70634 0
      vertex -1.49214 -5.8115 0
    endloop
  endfacet
  facet normal -0.156447 -0.987686 0
    outer loop
      vertex -1.12429 -5.89372 0
      vertex -0.751999 -5.95269 24
      vertex -1.12429 -5.89372 24
    endloop
  endfacet
  facet normal -0.156447 -0.987686 -0
    outer loop
      vertex -0.751999 -5.95269 24
      vertex -1.12429 -5.89372 0
      vertex -0.751999 -5.95269 0
    endloop
  endfacet
  facet normal -0.0314118 -0.999507 0
    outer loop
      vertex -0.376742 -5.98816 0
      vertex 0 -6 24
      vertex -0.376742 -5.98816 24
    endloop
  endfacet
  facet normal -0.0314118 -0.999507 -0
    outer loop
      vertex 0 -6 24
      vertex -0.376742 -5.98816 0
      vertex 0 -6 0
    endloop
  endfacet
  facet normal -0.917752 -0.397154 0
    outer loop
      vertex -5.42896 -2.55468 0
      vertex -5.57866 -2.20875 24
      vertex -5.57866 -2.20875 0
    endloop
  endfacet
  facet normal -0.917752 -0.397154 0
    outer loop
      vertex -5.57866 -2.20875 24
      vertex -5.42896 -2.55468 0
      vertex -5.42896 -2.55468 24
    endloop
  endfacet
  facet normal -0.860746 -0.509035 0
    outer loop
      vertex -5.06597 -3.21496 0
      vertex -5.25784 -2.89052 24
      vertex -5.25784 -2.89052 0
    endloop
  endfacet
  facet normal -0.860746 -0.509035 0
    outer loop
      vertex -5.25784 -2.89052 24
      vertex -5.06597 -3.21496 0
      vertex -5.06597 -3.21496 24
    endloop
  endfacet
  facet normal -0.790156 -0.612906 0
    outer loop
      vertex -4.62308 -3.82454 0
      vertex -4.8541 -3.52671 24
      vertex -4.8541 -3.52671 0
    endloop
  endfacet
  facet normal -0.790156 -0.612906 0
    outer loop
      vertex -4.8541 -3.52671 24
      vertex -4.62308 -3.82454 0
      vertex -4.62308 -3.82454 24
    endloop
  endfacet
  facet normal -0.975919 -0.218133 0
    outer loop
      vertex -5.8115 -1.49214 0
      vertex -5.89372 -1.12429 24
      vertex -5.89372 -1.12429 0
    endloop
  endfacet
  facet normal -0.975919 -0.218133 0
    outer loop
      vertex -5.89372 -1.12429 24
      vertex -5.8115 -1.49214 0
      vertex -5.8115 -1.49214 24
    endloop
  endfacet
  facet normal -0.940882 -0.338734 0
    outer loop
      vertex -5.57866 -2.20875 0
      vertex -5.70634 -1.8541 24
      vertex -5.70634 -1.8541 0
    endloop
  endfacet
  facet normal -0.940882 -0.338734 0
    outer loop
      vertex -5.70634 -1.8541 24
      vertex -5.57866 -2.20875 0
      vertex -5.57866 -2.20875 24
    endloop
  endfacet
  facet normal -0.995563 -0.0941024 0
    outer loop
      vertex -5.95269 -0.751999 0
      vertex -5.98816 -0.376742 24
      vertex -5.98816 -0.376742 0
    endloop
  endfacet
  facet normal -0.995563 -0.0941024 0
    outer loop
      vertex -5.98816 -0.376742 24
      vertex -5.95269 -0.751999 0
      vertex -5.95269 -0.751999 24
    endloop
  endfacet
  facet normal 0.156447 -0.987686 0
    outer loop
      vertex 0.751999 -5.95269 0
      vertex 1.12429 -5.89372 24
      vertex 0.751999 -5.95269 24
    endloop
  endfacet
  facet normal 0.156447 -0.987686 0
    outer loop
      vertex 1.12429 -5.89372 24
      vertex 0.751999 -5.95269 0
      vertex 1.12429 -5.89372 0
    endloop
  endfacet
  facet normal 0.397154 -0.917752 0
    outer loop
      vertex 2.20875 -5.57866 0
      vertex 2.55468 -5.42896 24
      vertex 2.20875 -5.57866 24
    endloop
  endfacet
  facet normal 0.397154 -0.917752 0
    outer loop
      vertex 2.55468 -5.42896 24
      vertex 2.20875 -5.57866 0
      vertex 2.55468 -5.42896 0
    endloop
  endfacet
  facet normal 0.278993 -0.960293 0
    outer loop
      vertex 1.49214 -5.8115 0
      vertex 1.8541 -5.70634 24
      vertex 1.49214 -5.8115 24
    endloop
  endfacet
  facet normal 0.278993 -0.960293 0
    outer loop
      vertex 1.8541 -5.70634 24
      vertex 1.49214 -5.8115 0
      vertex 1.8541 -5.70634 0
    endloop
  endfacet
  facet normal 0.661314 -0.75011 0
    outer loop
      vertex 3.82454 -4.62308 0
      vertex 4.10728 -4.37381 24
      vertex 3.82454 -4.62308 24
    endloop
  endfacet
  facet normal 0.661314 -0.75011 0
    outer loop
      vertex 4.10728 -4.37381 24
      vertex 3.82454 -4.62308 0
      vertex 4.10728 -4.37381 0
    endloop
  endfacet
  facet normal 0.562092 -0.827075 0
    outer loop
      vertex 3.21496 -5.06597 0
      vertex 3.52671 -4.8541 24
      vertex 3.21496 -5.06597 24
    endloop
  endfacet
  facet normal 0.562092 -0.827075 0
    outer loop
      vertex 3.52671 -4.8541 24
      vertex 3.21496 -5.06597 0
      vertex 3.52671 -4.8541 0
    endloop
  endfacet
  facet normal 0.790156 -0.612906 0
    outer loop
      vertex 4.62308 -3.82454 24
      vertex 4.8541 -3.52671 0
      vertex 4.8541 -3.52671 24
    endloop
  endfacet
  facet normal 0.790156 -0.612906 0
    outer loop
      vertex 4.8541 -3.52671 0
      vertex 4.62308 -3.82454 24
      vertex 4.62308 -3.82454 0
    endloop
  endfacet
  facet normal 0.860746 -0.509035 0
    outer loop
      vertex 5.06597 -3.21496 24
      vertex 5.25784 -2.89052 0
      vertex 5.25784 -2.89052 24
    endloop
  endfacet
  facet normal 0.860746 -0.509035 0
    outer loop
      vertex 5.25784 -2.89052 0
      vertex 5.06597 -3.21496 24
      vertex 5.06597 -3.21496 0
    endloop
  endfacet
  facet normal 0.940882 -0.338734 0
    outer loop
      vertex 5.57866 -2.20875 24
      vertex 5.70634 -1.8541 0
      vertex 5.70634 -1.8541 24
    endloop
  endfacet
  facet normal 0.940882 -0.338734 0
    outer loop
      vertex 5.70634 -1.8541 0
      vertex 5.57866 -2.20875 24
      vertex 5.57866 -2.20875 0
    endloop
  endfacet
  facet normal 0.995563 -0.0941024 0
    outer loop
      vertex 5.95269 -0.751999 24
      vertex 5.98816 -0.376742 0
      vertex 5.98816 -0.376742 24
    endloop
  endfacet
  facet normal 0.995563 -0.0941024 0
    outer loop
      vertex 5.98816 -0.376742 0
      vertex 5.95269 -0.751999 24
      vertex 5.95269 -0.751999 0
    endloop
  endfacet
  facet normal 0.975919 -0.218133 0
    outer loop
      vertex 5.8115 -1.49214 24
      vertex 5.89372 -1.12429 0
      vertex 5.89372 -1.12429 24
    endloop
  endfacet
  facet normal 0.975919 -0.218133 0
    outer loop
      vertex 5.89372 -1.12429 0
      vertex 5.8115 -1.49214 24
      vertex 5.8115 -1.49214 0
    endloop
  endfacet
  facet normal -0.612906 -0.790156 0
    outer loop
      vertex -3.82454 -4.62308 0
      vertex -3.52671 -4.8541 24
      vertex -3.82454 -4.62308 24
    endloop
  endfacet
  facet normal -0.612906 -0.790156 -0
    outer loop
      vertex -3.52671 -4.8541 24
      vertex -3.82454 -4.62308 0
      vertex -3.52671 -4.8541 0
    endloop
  endfacet
  facet normal -0.509035 -0.860746 0
    outer loop
      vertex -3.21496 -5.06597 0
      vertex -2.89052 -5.25784 24
      vertex -3.21496 -5.06597 24
    endloop
  endfacet
  facet normal -0.509035 -0.860746 -0
    outer loop
      vertex -2.89052 -5.25784 24
      vertex -3.21496 -5.06597 0
      vertex -2.89052 -5.25784 0
    endloop
  endfacet
  facet normal -0.338734 -0.940882 0
    outer loop
      vertex -2.20875 -5.57866 0
      vertex -1.8541 -5.70634 24
      vertex -2.20875 -5.57866 24
    endloop
  endfacet
  facet normal -0.338734 -0.940882 -0
    outer loop
      vertex -1.8541 -5.70634 24
      vertex -2.20875 -5.57866 0
      vertex -1.8541 -5.70634 0
    endloop
  endfacet
  facet normal -0.218133 -0.975919 0
    outer loop
      vertex -1.49214 -5.8115 0
      vertex -1.12429 -5.89372 24
      vertex -1.49214 -5.8115 24
    endloop
  endfacet
  facet normal -0.218133 -0.975919 -0
    outer loop
      vertex -1.12429 -5.89372 24
      vertex -1.49214 -5.8115 0
      vertex -1.12429 -5.89372 0
    endloop
  endfacet
  facet normal -0.0941024 -0.995563 0
    outer loop
      vertex -0.751999 -5.95269 0
      vertex -0.376742 -5.98816 24
      vertex -0.751999 -5.95269 24
    endloop
  endfacet
  facet normal -0.0941024 -0.995563 -0
    outer loop
      vertex -0.376742 -5.98816 24
      vertex -0.751999 -5.95269 0
      vertex -0.376742 -5.98816 0
    endloop
  endfacet
  facet normal -0.891005 -0.453993 0
    outer loop
      vertex -5.25784 -2.89052 0
      vertex -5.42896 -2.55468 24
      vertex -5.42896 -2.55468 0
    endloop
  endfacet
  facet normal -0.891005 -0.453993 0
    outer loop
      vertex -5.42896 -2.55468 24
      vertex -5.25784 -2.89052 0
      vertex -5.25784 -2.89052 24
    endloop
  endfacet
  facet normal -0.75011 -0.661314 0
    outer loop
      vertex -4.37381 -4.10728 0
      vertex -4.62308 -3.82454 24
      vertex -4.62308 -3.82454 0
    endloop
  endfacet
  facet normal -0.75011 -0.661314 0
    outer loop
      vertex -4.62308 -3.82454 24
      vertex -4.37381 -4.10728 0
      vertex -4.37381 -4.10728 24
    endloop
  endfacet
  facet normal -0.960293 -0.278993 0
    outer loop
      vertex -5.70634 -1.8541 0
      vertex -5.8115 -1.49214 24
      vertex -5.8115 -1.49214 0
    endloop
  endfacet
  facet normal -0.960293 -0.278993 0
    outer loop
      vertex -5.8115 -1.49214 24
      vertex -5.70634 -1.8541 0
      vertex -5.70634 -1.8541 24
    endloop
  endfacet
  facet normal -0.987686 -0.156447 0
    outer loop
      vertex -5.89372 -1.12429 0
      vertex -5.95269 -0.751999 24
      vertex -5.95269 -0.751999 0
    endloop
  endfacet
  facet normal -0.987686 -0.156447 0
    outer loop
      vertex -5.95269 -0.751999 24
      vertex -5.89372 -1.12429 0
      vertex -5.89372 -1.12429 24
    endloop
  endfacet
  facet normal 0.999507 -0.0314118 0
    outer loop
      vertex 5.98816 -0.376742 24
      vertex 6 0 0
      vertex 6 0 24
    endloop
  endfacet
  facet normal 0.999507 -0.0314118 0
    outer loop
      vertex 6 0 0
      vertex 5.98816 -0.376742 24
      vertex 5.98816 -0.376742 0
    endloop
  endfacet
  facet normal -0.866025 -0.5 0
    outer loop
      vertex 5.5 0 2
      vertex 2.75 4.76314 24
      vertex 2.75 4.76314 2
    endloop
  endfacet
  facet normal -0.866025 -0.5 0
    outer loop
      vertex 2.75 4.76314 24
      vertex 5.5 0 2
      vertex 5.5 0 24
    endloop
  endfacet
  facet normal 0.866025 -0.5 0
    outer loop
      vertex -5.5 0 24
      vertex -2.75 4.76314 2
      vertex -2.75 4.76314 24
    endloop
  endfacet
  facet normal 0.866025 -0.5 0
    outer loop
      vertex -2.75 4.76314 2
      vertex -5.5 0 24
      vertex -5.5 0 2
    endloop
  endfacet
  facet normal 0 -1 0
    outer loop
      vertex -2.75 4.76314 2
      vertex 2.75 4.76314 24
      vertex -2.75 4.76314 24
    endloop
  endfacet
  facet normal 0 -1 -0
    outer loop
      vertex 2.75 4.76314 24
      vertex -2.75 4.76314 2
      vertex 2.75 4.76314 2
    endloop
  endfacet
  facet normal 0 0 1
    outer loop
      vertex 2.75 4.76314 2
      vertex 2.75 -4.76314 2
      vertex 5.5 0 2
    endloop
  endfacet
  facet normal -0 0 1
    outer loop
      vertex -2.75 4.76314 2
      vertex 2.75 -4.76314 2
      vertex 2.75 4.76314 2
    endloop
  endfacet
  facet normal 0 0 1
    outer loop
      vertex -2.75 4.76314 2
      vertex -2.75 -4.76314 2
      vertex 2.75 -4.76314 2
    endloop
  endfacet
  facet normal 0 -0 1
    outer loop
      vertex -2.75 -4.76314 2
      vertex -2.75 4.76314 2
      vertex -5.5 0 2
    endloop
  endfacet
  facet normal 0 1 -0
    outer loop
      vertex 2.75 -4.76314 2
      vertex -2.75 -4.76314 24
      vertex 2.75 -4.76314 24
    endloop
  endfacet
  facet normal 0 1 0
    outer loop
      vertex -2.75 -4.76314 24
      vertex 2.75 -4.76314 2
      vertex -2.75 -4.76314 2
    endloop
  endfacet
  facet normal 0.866025 0.5 0
    outer loop
      vertex -2.75 -4.76314 24
      vertex -5.5 0 2
      vertex -5.5 0 24
    endloop
  endfacet
  facet normal 0.866025 0.5 0
    outer loop
      vertex -5.5 0 2
      vertex -2.75 -4.76314 24
      vertex -2.75 -4.76314 2
    endloop
  endfacet
  facet normal -0.866025 0.5 0
    outer loop
      vertex 2.75 -4.76314 2
      vertex 5.5 0 24
      vertex 5.5 0 2
    endloop
  endfacet
  facet normal -0.866025 0.5 0
    outer loop
      vertex 5.5 0 24
      vertex 2.75 -4.76314 2
      vertex 2.75 -4.76314 24
    endloop
  endfacet
endsolid OpenSCAD_Model
