solid OpenSCAD_Model
  facet normal 1 -0 0
    outer loop
      vertex -3 1 13.0883
      vertex -3 26 4.27117
      vertex -3 26 13.0883
    endloop
  endfacet
  facet normal 1 0 0
    outer loop
      vertex -3 26 4.27117
      vertex -3 1 13.0883
      vertex -3 1 4.27117
    endloop
  endfacet
  facet normal -1 0 0
    outer loop
      vertex 3 1 4.20129
      vertex 3 26 13.0883
      vertex 3 26 4.20129
    endloop
  endfacet
  facet normal -1 -0 0
    outer loop
      vertex 3 26 13.0883
      vertex 3 1 4.20129
      vertex 3 1 13.0883
    endloop
  endfacet
  facet normal -0.982973 0 -0.183749
    outer loop
      vertex 5.25 1 0
      vertex 4.89548 26 1.89652
      vertex 5.25 26 0
    endloop
  endfacet
  facet normal -0.982973 -0 -0.183749
    outer loop
      vertex 4.89548 26 1.89652
      vertex 5.25 1 0
      vertex 4.89548 1 1.89652
    endloop
  endfacet
  facet normal -0.850217 0 -0.526432
    outer loop
      vertex 4.89548 1 1.89652
      vertex 3.8798 26 3.5369
      vertex 4.89548 26 1.89652
    endloop
  endfacet
  facet normal -0.850217 -0 -0.526432
    outer loop
      vertex 3.8798 26 3.5369
      vertex 4.89548 1 1.89652
      vertex 3.8798 1 3.5369
    endloop
  endfacet
  facet normal 1 -0 0
    outer loop
      vertex -5.16061 1 0.964684
      vertex -5.16061 26 -0.964684
      vertex -5.16061 26 0.964684
    endloop
  endfacet
  facet normal 1 0 0
    outer loop
      vertex -5.16061 26 -0.964684
      vertex -5.16061 1 0.964684
      vertex -5.16061 1 -0.964684
    endloop
  endfacet
  facet normal -0.602636 0 0.798016
    outer loop
      vertex 2.34013 26 -4.69961
      vertex 3.8798 1 -3.5369
      vertex 3.8798 26 -3.5369
    endloop
  endfacet
  facet normal -0.602636 0 0.798016
    outer loop
      vertex 3.8798 1 -3.5369
      vertex 2.34013 26 -4.69961
      vertex 2.34013 1 -4.69961
    endloop
  endfacet
  facet normal -0.602632 0 -0.798019
    outer loop
      vertex 3 1 4.20129
      vertex 3.8798 26 3.5369
      vertex 3.8798 1 3.5369
    endloop
  endfacet
  facet normal -0.602632 0 -0.798019
    outer loop
      vertex 3.8798 26 3.5369
      vertex 3 1 4.20129
      vertex 3 26 4.20129
    endloop
  endfacet
  facet normal 0.739008 0 -0.673697
    outer loop
      vertex -3.16383 1 4.18959
      vertex -4.46364 26 2.76377
      vertex -3.16383 26 4.18959
    endloop
  endfacet
  facet normal 0.739008 0 -0.673697
    outer loop
      vertex -4.46364 26 2.76377
      vertex -3.16383 1 4.18959
      vertex -4.46364 1 2.76377
    endloop
  endfacet
  facet normal 0.445749 0 -0.895158
    outer loop
      vertex -3.16383 1 4.18959
      vertex -3 26 4.27117
      vertex -3 1 4.27117
    endloop
  endfacet
  facet normal 0.445749 0 -0.895158
    outer loop
      vertex -3 26 4.27117
      vertex -3.16383 1 4.18959
      vertex -3.16383 26 4.18959
    endloop
  endfacet
  facet normal 0.932472 0 -0.361242
    outer loop
      vertex -4.46364 1 2.76377
      vertex -5.16061 26 0.964684
      vertex -4.46364 26 2.76377
    endloop
  endfacet
  facet normal 0.932472 0 -0.361242
    outer loop
      vertex -5.16061 26 0.964684
      vertex -4.46364 1 2.76377
      vertex -5.16061 1 0.964684
    endloop
  endfacet
  facet normal 0.932472 -0 0.361242
    outer loop
      vertex -5.16061 1 -0.964684
      vertex -4.46364 26 -2.76377
      vertex -5.16061 26 -0.964684
    endloop
  endfacet
  facet normal 0.932472 0 0.361242
    outer loop
      vertex -4.46364 26 -2.76377
      vertex -5.16061 1 -0.964684
      vertex -4.46364 1 -2.76377
    endloop
  endfacet
  facet normal -0.273659 0 0.961827
    outer loop
      vertex 0.484408 26 -5.2276
      vertex 2.34013 1 -4.69961
      vertex 2.34013 26 -4.69961
    endloop
  endfacet
  facet normal -0.273659 0 0.961827
    outer loop
      vertex 2.34013 1 -4.69961
      vertex 0.484408 26 -5.2276
      vertex 0.484408 1 -5.2276
    endloop
  endfacet
  facet normal -0.850217 0 0.526432
    outer loop
      vertex 3.8798 1 -3.5369
      vertex 4.89548 26 -1.89652
      vertex 3.8798 26 -3.5369
    endloop
  endfacet
  facet normal -0.850217 0 0.526432
    outer loop
      vertex 4.89548 26 -1.89652
      vertex 3.8798 1 -3.5369
      vertex 4.89548 1 -1.89652
    endloop
  endfacet
  facet normal -0.982973 0 0.183749
    outer loop
      vertex 4.89548 1 -1.89652
      vertex 5.25 26 0
      vertex 4.89548 26 -1.89652
    endloop
  endfacet
  facet normal -0.982973 0 0.183749
    outer loop
      vertex 5.25 26 0
      vertex 4.89548 1 -1.89652
      vertex 5.25 1 0
    endloop
  endfacet
  facet normal 0.445737 0 0.895164
    outer loop
      vertex -3.16383 26 -4.18959
      vertex -1.43673 1 -5.04958
      vertex -1.43673 26 -5.04958
    endloop
  endfacet
  facet normal 0.445737 0 0.895164
    outer loop
      vertex -1.43673 1 -5.04958
      vertex -3.16383 26 -4.18959
      vertex -3.16383 1 -4.18959
    endloop
  endfacet
  facet normal 0.0922685 0 0.995734
    outer loop
      vertex -1.43673 26 -5.04958
      vertex 0.484408 1 -5.2276
      vertex 0.484408 26 -5.2276
    endloop
  endfacet
  facet normal 0.0922685 0 0.995734
    outer loop
      vertex 0.484408 1 -5.2276
      vertex -1.43673 26 -5.04958
      vertex -1.43673 1 -5.04958
    endloop
  endfacet
  facet normal 0.739008 -0 0.673697
    outer loop
      vertex -4.46364 1 -2.76377
      vertex -3.16383 26 -4.18959
      vertex -4.46364 26 -2.76377
    endloop
  endfacet
  facet normal 0.739008 0 0.673697
    outer loop
      vertex -3.16383 26 -4.18959
      vertex -4.46364 1 -2.76377
      vertex -3.16383 1 -4.18959
    endloop
  endfacet
  facet normal 1 -0 0
    outer loop
      vertex -5 1 -10
      vertex -5 26 -15
      vertex -5 26 -10
    endloop
  endfacet
  facet normal 1 0 0
    outer loop
      vertex -5 26 -15
      vertex -5 1 -10
      vertex -5 1 -15
    endloop
  endfacet
  facet normal 0 0 -1
    outer loop
      vertex -5 1 -10
      vertex 5 26 -10
      vertex 5 1 -10
    endloop
  endfacet
  facet normal -0 0 -1
    outer loop
      vertex 5 26 -10
      vertex -5 1 -10
      vertex -5 26 -10
    endloop
  endfacet
  facet normal -1 0 0
    outer loop
      vertex 5 1 -15
      vertex 5 26 -10
      vertex 5 26 -15
    endloop
  endfacet
  facet normal -1 -0 0
    outer loop
      vertex 5 26 -10
      vertex 5 1 -15
      vertex 5 1 -10
    endloop
  endfacet
  facet normal -0 0 1
    outer loop
      vertex -5 26 -15
      vertex 5 1 -15
      vertex 5 26 -15
    endloop
  endfacet
  facet normal 0 0 1
    outer loop
      vertex 5 1 -15
      vertex -5 26 -15
      vertex -5 1 -15
    endloop
  endfacet
  facet normal 0.994522 -0 0.104526
    outer loop
      vertex 13.205 1 2.80681
      vertex 13.5 26 0
      vertex 13.205 26 2.80681
    endloop
  endfacet
  facet normal 0.994522 0 0.104526
    outer loop
      vertex 13.5 26 0
      vertex 13.205 1 2.80681
      vertex 13.5 1 0
    endloop
  endfacet
  facet normal 0.951059 -0 0.309008
    outer loop
      vertex 12.3329 1 5.49094
      vertex 13.205 26 2.80681
      vertex 12.3329 26 5.49094
    endloop
  endfacet
  facet normal 0.951059 0 0.309008
    outer loop
      vertex 13.205 26 2.80681
      vertex 12.3329 1 5.49094
      vertex 13.205 1 2.80681
    endloop
  endfacet
  facet normal 0.994522 0 -0.104526
    outer loop
      vertex 13.5 1 -10
      vertex 13.205 26 -12.8068
      vertex 13.5 26 -10
    endloop
  endfacet
  facet normal 0.994522 0 -0.104526
    outer loop
      vertex 13.205 26 -12.8068
      vertex 13.5 1 -10
      vertex 13.205 1 -12.8068
    endloop
  endfacet
  facet normal -0.40676 0 0.913535
    outer loop
      vertex -6.75 26 11.6913
      vertex -4.17173 1 12.8393
      vertex -4.17173 26 12.8393
    endloop
  endfacet
  facet normal -0.40676 0 0.913535
    outer loop
      vertex -4.17173 1 12.8393
      vertex -6.75 26 11.6913
      vertex -6.75 1 11.6913
    endloop
  endfacet
  facet normal 0.40676 0 0.913535
    outer loop
      vertex 4.17173 26 12.8393
      vertex 6.75 1 11.6913
      vertex 6.75 26 11.6913
    endloop
  endfacet
  facet normal 0.40676 0 0.913535
    outer loop
      vertex 6.75 1 11.6913
      vertex 4.17173 26 12.8393
      vertex 4.17173 1 12.8393
    endloop
  endfacet
  facet normal -0.951059 0 0.309008
    outer loop
      vertex -13.205 1 2.80681
      vertex -12.3329 26 5.49094
      vertex -13.205 26 2.80681
    endloop
  endfacet
  facet normal -0.951059 0 0.309008
    outer loop
      vertex -12.3329 26 5.49094
      vertex -13.205 1 2.80681
      vertex -12.3329 1 5.49094
    endloop
  endfacet
  facet normal 0 1 0
    outer loop
      vertex 3 26 4.20129
      vertex 4.17173 26 12.8393
      vertex 6.75 26 11.6913
    endloop
  endfacet
  facet normal 0 1 0
    outer loop
      vertex 3 26 4.20129
      vertex 6.75 26 11.6913
      vertex 9.03326 26 10.0325
    endloop
  endfacet
  facet normal 0 1 0
    outer loop
      vertex 3.8798 26 3.5369
      vertex 9.03326 26 10.0325
      vertex 10.9217 26 7.9351
    endloop
  endfacet
  facet normal 0 1 0
    outer loop
      vertex 4.89548 26 1.89652
      vertex 10.9217 26 7.9351
      vertex 12.3329 26 5.49094
    endloop
  endfacet
  facet normal 0 1 0
    outer loop
      vertex 9.03326 26 10.0325
      vertex 3.8798 26 3.5369
      vertex 3 26 4.20129
    endloop
  endfacet
  facet normal 0 1 0
    outer loop
      vertex 4.17173 26 12.8393
      vertex 3 26 4.20129
      vertex 3 26 13.0883
    endloop
  endfacet
  facet normal 0 1 0
    outer loop
      vertex 4.89548 26 1.89652
      vertex 12.3329 26 5.49094
      vertex 13.205 26 2.80681
    endloop
  endfacet
  facet normal 0 1 0
    outer loop
      vertex 10.9217 26 7.9351
      vertex 4.89548 26 1.89652
      vertex 3.8798 26 3.5369
    endloop
  endfacet
  facet normal 0 1 0
    outer loop
      vertex 5.25 26 0
      vertex 13.205 26 2.80681
      vertex 13.5 26 0
    endloop
  endfacet
  facet normal 0 1 0
    outer loop
      vertex 13.205 26 2.80681
      vertex 5.25 26 0
      vertex 4.89548 26 1.89652
    endloop
  endfacet
  facet normal 0 1 0
    outer loop
      vertex 13.5 26 0
      vertex 4.89548 26 -1.89652
      vertex 5.25 26 0
    endloop
  endfacet
  facet normal 0 1 -0
    outer loop
      vertex 13.5 26 -10
      vertex 4.89548 26 -1.89652
      vertex 13.5 26 0
    endloop
  endfacet
  facet normal 0 1 0
    outer loop
      vertex 4.89548 26 -1.89652
      vertex 13.5 26 -10
      vertex 3.8798 26 -3.5369
    endloop
  endfacet
  facet normal 0 1 0
    outer loop
      vertex 3.8798 26 -3.5369
      vertex 5 26 -10
      vertex 2.34013 26 -4.69961
    endloop
  endfacet
  facet normal 0 1 0
    outer loop
      vertex 3.8798 26 -3.5369
      vertex 13.5 26 -10
      vertex 5 26 -10
    endloop
  endfacet
  facet normal 0 1 -0
    outer loop
      vertex -3 26 4.27117
      vertex -4.17173 26 12.8393
      vertex -3 26 13.0883
    endloop
  endfacet
  facet normal 0 1 0
    outer loop
      vertex -4.17173 26 12.8393
      vertex -3 26 4.27117
      vertex -6.75 26 11.6913
    endloop
  endfacet
  facet normal 0 1 -0
    outer loop
      vertex -3.16383 26 4.18959
      vertex -6.75 26 11.6913
      vertex -3 26 4.27117
    endloop
  endfacet
  facet normal 0 1 -0
    outer loop
      vertex -4.46364 26 2.76377
      vertex -9.03326 26 10.0325
      vertex -3.16383 26 4.18959
    endloop
  endfacet
  facet normal 0 1 0
    outer loop
      vertex -6.75 26 11.6913
      vertex -3.16383 26 4.18959
      vertex -9.03326 26 10.0325
    endloop
  endfacet
  facet normal 0 1 0
    outer loop
      vertex -9.03326 26 10.0325
      vertex -4.46364 26 2.76377
      vertex -10.9217 26 7.9351
    endloop
  endfacet
  facet normal 0 1 0
    outer loop
      vertex -10.9217 26 7.9351
      vertex -4.46364 26 2.76377
      vertex -12.3329 26 5.49094
    endloop
  endfacet
  facet normal 0 1 -0
    outer loop
      vertex -5.16061 26 0.964684
      vertex -12.3329 26 5.49094
      vertex -4.46364 26 2.76377
    endloop
  endfacet
  facet normal 0 1 0
    outer loop
      vertex -12.3329 26 5.49094
      vertex -5.16061 26 0.964684
      vertex -13.205 26 2.80681
    endloop
  endfacet
  facet normal 0 1 0
    outer loop
      vertex -5.16061 26 0.964684
      vertex -13.5 26 0
      vertex -13.205 26 2.80681
    endloop
  endfacet
  facet normal 0 1 -0
    outer loop
      vertex -5.16061 26 -0.964684
      vertex -13.5 26 0
      vertex -5.16061 26 0.964684
    endloop
  endfacet
  facet normal 0 1 0
    outer loop
      vertex -4.46364 26 -2.76377
      vertex -13.5 26 0
      vertex -5.16061 26 -0.964684
    endloop
  endfacet
  facet normal 0 1 0
    outer loop
      vertex -5 26 -10
      vertex -4.46364 26 -2.76377
      vertex -3.16383 26 -4.18959
    endloop
  endfacet
  facet normal 0 1 0
    outer loop
      vertex -5 26 -10
      vertex -3.16383 26 -4.18959
      vertex -1.43673 26 -5.04958
    endloop
  endfacet
  facet normal 0 1 0
    outer loop
      vertex 2.34013 26 -4.69961
      vertex 5 26 -10
      vertex 0.484408 26 -5.2276
    endloop
  endfacet
  facet normal 0 1 0
    outer loop
      vertex -5 26 -10
      vertex 0.484408 26 -5.2276
      vertex 5 26 -10
    endloop
  endfacet
  facet normal 0 1 0
    outer loop
      vertex 0.484408 26 -5.2276
      vertex -5 26 -10
      vertex -1.43673 26 -5.04958
    endloop
  endfacet
  facet normal 0 1 0
    outer loop
      vertex -4.46364 26 -2.76377
      vertex -5 26 -10
      vertex -13.5 26 -10
    endloop
  endfacet
  facet normal 0 1 0
    outer loop
      vertex -4.46364 26 -2.76377
      vertex -13.5 26 -10
      vertex -13.5 26 0
    endloop
  endfacet
  facet normal 0 1 0
    outer loop
      vertex -5 26 -10
      vertex -13.205 26 -12.8068
      vertex -13.5 26 -10
    endloop
  endfacet
  facet normal 0 1 -0
    outer loop
      vertex -5 26 -15
      vertex -13.205 26 -12.8068
      vertex -5 26 -10
    endloop
  endfacet
  facet normal 0 1 0
    outer loop
      vertex -5 26 -15
      vertex -12.3329 26 -15.4909
      vertex -13.205 26 -12.8068
    endloop
  endfacet
  facet normal 0 1 -0
    outer loop
      vertex 9.03326 26 -20.0325
      vertex 5 26 -15
      vertex 10.9217 26 -17.9351
    endloop
  endfacet
  facet normal 0 1 -0
    outer loop
      vertex 6.75 26 -21.6913
      vertex 5 26 -15
      vertex 9.03326 26 -20.0325
    endloop
  endfacet
  facet normal 0 1 0
    outer loop
      vertex -5 26 -15
      vertex -10.9217 26 -17.9351
      vertex -12.3329 26 -15.4909
    endloop
  endfacet
  facet normal 0 1 0
    outer loop
      vertex 4.17173 26 -22.8393
      vertex 5 26 -15
      vertex 6.75 26 -21.6913
    endloop
  endfacet
  facet normal 0 1 0
    outer loop
      vertex -5 26 -15
      vertex -9.03326 26 -20.0325
      vertex -10.9217 26 -17.9351
    endloop
  endfacet
  facet normal 0 1 0
    outer loop
      vertex 1.41113 26 -23.426
      vertex 5 26 -15
      vertex 4.17173 26 -22.8393
    endloop
  endfacet
  facet normal 0 1 0
    outer loop
      vertex -5 26 -15
      vertex -6.75 26 -21.6913
      vertex -9.03326 26 -20.0325
    endloop
  endfacet
  facet normal 0 1 0
    outer loop
      vertex 5 26 -15
      vertex 1.41113 26 -23.426
      vertex -5 26 -15
    endloop
  endfacet
  facet normal 0 1 0
    outer loop
      vertex -5 26 -15
      vertex -4.17173 26 -22.8393
      vertex -6.75 26 -21.6913
    endloop
  endfacet
  facet normal 0 1 -0
    outer loop
      vertex -1.41113 26 -23.426
      vertex -5 26 -15
      vertex 1.41113 26 -23.426
    endloop
  endfacet
  facet normal 0 1 0
    outer loop
      vertex -5 26 -15
      vertex -1.41113 26 -23.426
      vertex -4.17173 26 -22.8393
    endloop
  endfacet
  facet normal 0 1 -0
    outer loop
      vertex 13.205 26 -12.8068
      vertex 5 26 -10
      vertex 13.5 26 -10
    endloop
  endfacet
  facet normal 0 1 0
    outer loop
      vertex 13.205 26 -12.8068
      vertex 5 26 -15
      vertex 5 26 -10
    endloop
  endfacet
  facet normal 0 1 -0
    outer loop
      vertex 10.9217 26 -17.9351
      vertex 5 26 -15
      vertex 12.3329 26 -15.4909
    endloop
  endfacet
  facet normal 0 1 -0
    outer loop
      vertex 12.3329 26 -15.4909
      vertex 5 26 -15
      vertex 13.205 26 -12.8068
    endloop
  endfacet
  facet normal -0.587765 0 0.809031
    outer loop
      vertex -9.03326 26 10.0325
      vertex -6.75 1 11.6913
      vertex -6.75 26 11.6913
    endloop
  endfacet
  facet normal -0.587765 0 0.809031
    outer loop
      vertex -6.75 1 11.6913
      vertex -9.03326 26 10.0325
      vertex -9.03326 1 10.0325
    endloop
  endfacet
  facet normal 0 -1 0
    outer loop
      vertex -3 1 4.27117
      vertex -4.17173 1 12.8393
      vertex -6.75 1 11.6913
    endloop
  endfacet
  facet normal 0 -1 0
    outer loop
      vertex -3.16383 1 4.18959
      vertex -6.75 1 11.6913
      vertex -9.03326 1 10.0325
    endloop
  endfacet
  facet normal 0 -1 0
    outer loop
      vertex -4.46364 1 2.76377
      vertex -9.03326 1 10.0325
      vertex -10.9217 1 7.9351
    endloop
  endfacet
  facet normal 0 -1 0
    outer loop
      vertex -4.46364 1 2.76377
      vertex -10.9217 1 7.9351
      vertex -12.3329 1 5.49094
    endloop
  endfacet
  facet normal 0 -1 0
    outer loop
      vertex -6.75 1 11.6913
      vertex -3.16383 1 4.18959
      vertex -3 1 4.27117
    endloop
  endfacet
  facet normal 0 -1 0
    outer loop
      vertex -4.17173 1 12.8393
      vertex -3 1 4.27117
      vertex -3 1 13.0883
    endloop
  endfacet
  facet normal 0 -1 0
    outer loop
      vertex -5.16061 1 0.964684
      vertex -12.3329 1 5.49094
      vertex -13.205 1 2.80681
    endloop
  endfacet
  facet normal 0 -1 0
    outer loop
      vertex -9.03326 1 10.0325
      vertex -4.46364 1 2.76377
      vertex -3.16383 1 4.18959
    endloop
  endfacet
  facet normal 0 -1 0
    outer loop
      vertex -12.3329 1 5.49094
      vertex -5.16061 1 0.964684
      vertex -4.46364 1 2.76377
    endloop
  endfacet
  facet normal 0 -1 0
    outer loop
      vertex -13.5 1 0
      vertex -5.16061 1 0.964684
      vertex -13.205 1 2.80681
    endloop
  endfacet
  facet normal 0 -1 0
    outer loop
      vertex -13.5 1 0
      vertex -5.16061 1 -0.964684
      vertex -5.16061 1 0.964684
    endloop
  endfacet
  facet normal 0 -1 0
    outer loop
      vertex -13.5 1 0
      vertex -4.46364 1 -2.76377
      vertex -5.16061 1 -0.964684
    endloop
  endfacet
  facet normal 0 -1 0
    outer loop
      vertex -13.5 1 -10
      vertex -4.46364 1 -2.76377
      vertex -13.5 1 0
    endloop
  endfacet
  facet normal 0 -1 0
    outer loop
      vertex -5 1 -10
      vertex -4.46364 1 -2.76377
      vertex -13.5 1 -10
    endloop
  endfacet
  facet normal 0 -1 -0
    outer loop
      vertex -3.16383 1 -4.18959
      vertex -5 1 -10
      vertex -1.43673 1 -5.04958
    endloop
  endfacet
  facet normal 0 -1 -0
    outer loop
      vertex -4.46364 1 -2.76377
      vertex -5 1 -10
      vertex -3.16383 1 -4.18959
    endloop
  endfacet
  facet normal 0 -1 0
    outer loop
      vertex 3 1 4.20129
      vertex 4.17173 1 12.8393
      vertex 3 1 13.0883
    endloop
  endfacet
  facet normal 0 -1 -0
    outer loop
      vertex 4.17173 1 12.8393
      vertex 3 1 4.20129
      vertex 6.75 1 11.6913
    endloop
  endfacet
  facet normal 0 -1 -0
    outer loop
      vertex 6.75 1 11.6913
      vertex 3 1 4.20129
      vertex 9.03326 1 10.0325
    endloop
  endfacet
  facet normal 0 -1 0
    outer loop
      vertex 3.8798 1 3.5369
      vertex 9.03326 1 10.0325
      vertex 3 1 4.20129
    endloop
  endfacet
  facet normal 0 -1 -0
    outer loop
      vertex 9.03326 1 10.0325
      vertex 3.8798 1 3.5369
      vertex 10.9217 1 7.9351
    endloop
  endfacet
  facet normal 0 -1 0
    outer loop
      vertex 4.89548 1 1.89652
      vertex 10.9217 1 7.9351
      vertex 3.8798 1 3.5369
    endloop
  endfacet
  facet normal 0 -1 -0
    outer loop
      vertex 10.9217 1 7.9351
      vertex 4.89548 1 1.89652
      vertex 12.3329 1 5.49094
    endloop
  endfacet
  facet normal 0 -1 -0
    outer loop
      vertex 12.3329 1 5.49094
      vertex 4.89548 1 1.89652
      vertex 13.205 1 2.80681
    endloop
  endfacet
  facet normal 0 -1 0
    outer loop
      vertex 5.25 1 0
      vertex 13.205 1 2.80681
      vertex 4.89548 1 1.89652
    endloop
  endfacet
  facet normal 0 -1 0
    outer loop
      vertex 5.25 1 0
      vertex 13.5 1 0
      vertex 13.205 1 2.80681
    endloop
  endfacet
  facet normal 0 -1 0
    outer loop
      vertex 4.89548 1 -1.89652
      vertex 13.5 1 0
      vertex 5.25 1 0
    endloop
  endfacet
  facet normal 0 -1 0
    outer loop
      vertex 13.5 1 -10
      vertex 4.89548 1 -1.89652
      vertex 3.8798 1 -3.5369
    endloop
  endfacet
  facet normal 0 -1 0
    outer loop
      vertex 5 1 -10
      vertex 3.8798 1 -3.5369
      vertex 2.34013 1 -4.69961
    endloop
  endfacet
  facet normal 0 -1 -0
    outer loop
      vertex -1.43673 1 -5.04958
      vertex -5 1 -10
      vertex 0.484408 1 -5.2276
    endloop
  endfacet
  facet normal 0 -1 0
    outer loop
      vertex 5 1 -10
      vertex 0.484408 1 -5.2276
      vertex -5 1 -10
    endloop
  endfacet
  facet normal 0 -1 0
    outer loop
      vertex 0.484408 1 -5.2276
      vertex 5 1 -10
      vertex 2.34013 1 -4.69961
    endloop
  endfacet
  facet normal 0 -1 0
    outer loop
      vertex 13.5 1 -10
      vertex 3.8798 1 -3.5369
      vertex 5 1 -10
    endloop
  endfacet
  facet normal 0 -1 0
    outer loop
      vertex 4.89548 1 -1.89652
      vertex 13.5 1 -10
      vertex 13.5 1 0
    endloop
  endfacet
  facet normal 0 -1 0
    outer loop
      vertex 5 1 -10
      vertex 13.205 1 -12.8068
      vertex 13.5 1 -10
    endloop
  endfacet
  facet normal 0 -1 0
    outer loop
      vertex 5 1 -15
      vertex 13.205 1 -12.8068
      vertex 5 1 -10
    endloop
  endfacet
  facet normal 0 -1 0
    outer loop
      vertex 5 1 -15
      vertex 12.3329 1 -15.4909
      vertex 13.205 1 -12.8068
    endloop
  endfacet
  facet normal 0 -1 0
    outer loop
      vertex -9.03326 1 -20.0325
      vertex -5 1 -15
      vertex -10.9217 1 -17.9351
    endloop
  endfacet
  facet normal 0 -1 0
    outer loop
      vertex -6.75 1 -21.6913
      vertex -5 1 -15
      vertex -9.03326 1 -20.0325
    endloop
  endfacet
  facet normal 0 -1 0
    outer loop
      vertex 5 1 -15
      vertex 10.9217 1 -17.9351
      vertex 12.3329 1 -15.4909
    endloop
  endfacet
  facet normal 0 -1 0
    outer loop
      vertex -4.17173 1 -22.8393
      vertex -5 1 -15
      vertex -6.75 1 -21.6913
    endloop
  endfacet
  facet normal 0 -1 0
    outer loop
      vertex 5 1 -15
      vertex 9.03326 1 -20.0325
      vertex 10.9217 1 -17.9351
    endloop
  endfacet
  facet normal 0 -1 0
    outer loop
      vertex -1.41113 1 -23.426
      vertex -5 1 -15
      vertex -4.17173 1 -22.8393
    endloop
  endfacet
  facet normal 0 -1 0
    outer loop
      vertex 5 1 -15
      vertex 6.75 1 -21.6913
      vertex 9.03326 1 -20.0325
    endloop
  endfacet
  facet normal 0 -1 0
    outer loop
      vertex -5 1 -15
      vertex -1.41113 1 -23.426
      vertex 5 1 -15
    endloop
  endfacet
  facet normal 0 -1 -0
    outer loop
      vertex 5 1 -15
      vertex 4.17173 1 -22.8393
      vertex 6.75 1 -21.6913
    endloop
  endfacet
  facet normal 0 -1 0
    outer loop
      vertex 1.41113 1 -23.426
      vertex 5 1 -15
      vertex -1.41113 1 -23.426
    endloop
  endfacet
  facet normal 0 -1 0
    outer loop
      vertex 5 1 -15
      vertex 1.41113 1 -23.426
      vertex 4.17173 1 -22.8393
    endloop
  endfacet
  facet normal 0 -1 0
    outer loop
      vertex -13.205 1 -12.8068
      vertex -5 1 -10
      vertex -13.5 1 -10
    endloop
  endfacet
  facet normal 0 -1 0
    outer loop
      vertex -13.205 1 -12.8068
      vertex -5 1 -15
      vertex -5 1 -10
    endloop
  endfacet
  facet normal 0 -1 0
    outer loop
      vertex -10.9217 1 -17.9351
      vertex -5 1 -15
      vertex -12.3329 1 -15.4909
    endloop
  endfacet
  facet normal 0 -1 0
    outer loop
      vertex -12.3329 1 -15.4909
      vertex -5 1 -15
      vertex -13.205 1 -12.8068
    endloop
  endfacet
  facet normal -0.207883 0 -0.978154
    outer loop
      vertex -4.17173 1 -22.8393
      vertex -1.41113 26 -23.426
      vertex -1.41113 1 -23.426
    endloop
  endfacet
  facet normal -0.207883 0 -0.978154
    outer loop
      vertex -1.41113 26 -23.426
      vertex -4.17173 1 -22.8393
      vertex -4.17173 26 -22.8393
    endloop
  endfacet
  facet normal -0.951058 0 -0.309012
    outer loop
      vertex -12.3329 1 -15.4909
      vertex -13.205 26 -12.8068
      vertex -12.3329 26 -15.4909
    endloop
  endfacet
  facet normal -0.951058 -0 -0.309012
    outer loop
      vertex -13.205 26 -12.8068
      vertex -12.3329 1 -15.4909
      vertex -13.205 1 -12.8068
    endloop
  endfacet
  facet normal 1 -0 0
    outer loop
      vertex 13.5 1 0
      vertex 13.5 26 -10
      vertex 13.5 26 0
    endloop
  endfacet
  facet normal 1 0 0
    outer loop
      vertex 13.5 26 -10
      vertex 13.5 1 0
      vertex 13.5 1 -10
    endloop
  endfacet
  facet normal 0.587765 0 -0.809031
    outer loop
      vertex 6.75 1 -21.6913
      vertex 9.03326 26 -20.0325
      vertex 9.03326 1 -20.0325
    endloop
  endfacet
  facet normal 0.587765 0 -0.809031
    outer loop
      vertex 9.03326 26 -20.0325
      vertex 6.75 1 -21.6913
      vertex 6.75 26 -21.6913
    endloop
  endfacet
  facet normal 0.866016 -0 0.500017
    outer loop
      vertex 10.9217 1 7.9351
      vertex 12.3329 26 5.49094
      vertex 10.9217 26 7.9351
    endloop
  endfacet
  facet normal 0.866016 0 0.500017
    outer loop
      vertex 12.3329 26 5.49094
      vertex 10.9217 1 7.9351
      vertex 12.3329 1 5.49094
    endloop
  endfacet
  facet normal 0.207865 0 0.978158
    outer loop
      vertex 3 26 13.0883
      vertex 4.17173 1 12.8393
      vertex 4.17173 26 12.8393
    endloop
  endfacet
  facet normal 0.207865 0 0.978158
    outer loop
      vertex 4.17173 1 12.8393
      vertex 3 26 13.0883
      vertex 3 1 13.0883
    endloop
  endfacet
  facet normal -0.743157 0 0.669117
    outer loop
      vertex -10.9217 1 7.9351
      vertex -9.03326 26 10.0325
      vertex -10.9217 26 7.9351
    endloop
  endfacet
  facet normal -0.743157 0 0.669117
    outer loop
      vertex -9.03326 26 10.0325
      vertex -10.9217 1 7.9351
      vertex -9.03326 1 10.0325
    endloop
  endfacet
  facet normal -0.994522 0 0.104526
    outer loop
      vertex -13.5 1 0
      vertex -13.205 26 2.80681
      vertex -13.5 26 0
    endloop
  endfacet
  facet normal -0.994522 0 0.104526
    outer loop
      vertex -13.205 26 2.80681
      vertex -13.5 1 0
      vertex -13.205 1 2.80681
    endloop
  endfacet
  facet normal -1 0 0
    outer loop
      vertex -13.5 1 -10
      vertex -13.5 26 0
      vertex -13.5 26 -10
    endloop
  endfacet
  facet normal -1 -0 0
    outer loop
      vertex -13.5 26 0
      vertex -13.5 1 -10
      vertex -13.5 1 0
    endloop
  endfacet
  facet normal -0.994522 0 -0.104526
    outer loop
      vertex -13.205 1 -12.8068
      vertex -13.5 26 -10
      vertex -13.205 26 -12.8068
    endloop
  endfacet
  facet normal -0.994522 -0 -0.104526
    outer loop
      vertex -13.5 26 -10
      vertex -13.205 1 -12.8068
      vertex -13.5 1 -10
    endloop
  endfacet
  facet normal 0 0 -1
    outer loop
      vertex -1.41113 1 -23.426
      vertex 1.41113 26 -23.426
      vertex 1.41113 1 -23.426
    endloop
  endfacet
  facet normal -0 0 -1
    outer loop
      vertex 1.41113 26 -23.426
      vertex -1.41113 1 -23.426
      vertex -1.41113 26 -23.426
    endloop
  endfacet
  facet normal 0.207883 0 -0.978154
    outer loop
      vertex 1.41113 1 -23.426
      vertex 4.17173 26 -22.8393
      vertex 4.17173 1 -22.8393
    endloop
  endfacet
  facet normal 0.207883 0 -0.978154
    outer loop
      vertex 4.17173 26 -22.8393
      vertex 1.41113 1 -23.426
      vertex 1.41113 26 -23.426
    endloop
  endfacet
  facet normal 0.40676 0 -0.913535
    outer loop
      vertex 4.17173 1 -22.8393
      vertex 6.75 26 -21.6913
      vertex 6.75 1 -21.6913
    endloop
  endfacet
  facet normal 0.40676 0 -0.913535
    outer loop
      vertex 6.75 26 -21.6913
      vertex 4.17173 1 -22.8393
      vertex 4.17173 26 -22.8393
    endloop
  endfacet
  facet normal -0.743157 0 -0.669117
    outer loop
      vertex -9.03326 1 -20.0325
      vertex -10.9217 26 -17.9351
      vertex -9.03326 26 -20.0325
    endloop
  endfacet
  facet normal -0.743157 -0 -0.669117
    outer loop
      vertex -10.9217 26 -17.9351
      vertex -9.03326 1 -20.0325
      vertex -10.9217 1 -17.9351
    endloop
  endfacet
  facet normal -0.40676 0 -0.913535
    outer loop
      vertex -6.75 1 -21.6913
      vertex -4.17173 26 -22.8393
      vertex -4.17173 1 -22.8393
    endloop
  endfacet
  facet normal -0.40676 0 -0.913535
    outer loop
      vertex -4.17173 26 -22.8393
      vertex -6.75 1 -21.6913
      vertex -6.75 26 -21.6913
    endloop
  endfacet
  facet normal -0.866019 0 -0.500011
    outer loop
      vertex -10.9217 1 -17.9351
      vertex -12.3329 26 -15.4909
      vertex -10.9217 26 -17.9351
    endloop
  endfacet
  facet normal -0.866019 -0 -0.500011
    outer loop
      vertex -12.3329 26 -15.4909
      vertex -10.9217 1 -17.9351
      vertex -12.3329 1 -15.4909
    endloop
  endfacet
  facet normal 0.866019 0 -0.500011
    outer loop
      vertex 12.3329 1 -15.4909
      vertex 10.9217 26 -17.9351
      vertex 12.3329 26 -15.4909
    endloop
  endfacet
  facet normal 0.866019 0 -0.500011
    outer loop
      vertex 10.9217 26 -17.9351
      vertex 12.3329 1 -15.4909
      vertex 10.9217 1 -17.9351
    endloop
  endfacet
  facet normal 0.951058 0 -0.309012
    outer loop
      vertex 13.205 1 -12.8068
      vertex 12.3329 26 -15.4909
      vertex 13.205 26 -12.8068
    endloop
  endfacet
  facet normal 0.951058 0 -0.309012
    outer loop
      vertex 12.3329 26 -15.4909
      vertex 13.205 1 -12.8068
      vertex 12.3329 1 -15.4909
    endloop
  endfacet
  facet normal 0.743157 0 -0.669117
    outer loop
      vertex 10.9217 1 -17.9351
      vertex 9.03326 26 -20.0325
      vertex 10.9217 26 -17.9351
    endloop
  endfacet
  facet normal 0.743157 0 -0.669117
    outer loop
      vertex 9.03326 26 -20.0325
      vertex 10.9217 1 -17.9351
      vertex 9.03326 1 -20.0325
    endloop
  endfacet
  facet normal 0.587765 0 0.809031
    outer loop
      vertex 6.75 26 11.6913
      vertex 9.03326 1 10.0325
      vertex 9.03326 26 10.0325
    endloop
  endfacet
  facet normal 0.587765 0 0.809031
    outer loop
      vertex 9.03326 1 10.0325
      vertex 6.75 26 11.6913
      vertex 6.75 1 11.6913
    endloop
  endfacet
  facet normal 0.743157 -0 0.669117
    outer loop
      vertex 9.03326 1 10.0325
      vertex 10.9217 26 7.9351
      vertex 9.03326 26 10.0325
    endloop
  endfacet
  facet normal 0.743157 0 0.669117
    outer loop
      vertex 10.9217 26 7.9351
      vertex 9.03326 1 10.0325
      vertex 10.9217 1 7.9351
    endloop
  endfacet
  facet normal -0.207865 0 0.978158
    outer loop
      vertex -4.17173 26 12.8393
      vertex -3 1 13.0883
      vertex -3 26 13.0883
    endloop
  endfacet
  facet normal -0.207865 0 0.978158
    outer loop
      vertex -3 1 13.0883
      vertex -4.17173 26 12.8393
      vertex -4.17173 1 12.8393
    endloop
  endfacet
  facet normal -0.866016 0 0.500017
    outer loop
      vertex -12.3329 1 5.49094
      vertex -10.9217 26 7.9351
      vertex -12.3329 26 5.49094
    endloop
  endfacet
  facet normal -0.866016 0 0.500017
    outer loop
      vertex -10.9217 26 7.9351
      vertex -12.3329 1 5.49094
      vertex -10.9217 1 7.9351
    endloop
  endfacet
  facet normal -0.587765 0 -0.809031
    outer loop
      vertex -9.03326 1 -20.0325
      vertex -6.75 26 -21.6913
      vertex -6.75 1 -21.6913
    endloop
  endfacet
  facet normal -0.587765 0 -0.809031
    outer loop
      vertex -6.75 26 -21.6913
      vertex -9.03326 1 -20.0325
      vertex -9.03326 26 -20.0325
    endloop
  endfacet
endsolid OpenSCAD_Model
