solid OpenSCAD_Model
  facet normal -1 0 0
    outer loop
      vertex -15 20 -25
      vertex -15 40 10
      vertex -15 40 -25
    endloop
  endfacet
  facet normal -1 -0 0
    outer loop
      vertex -15 40 10
      vertex -15 20 -25
      vertex -15 20 10
    endloop
  endfacet
  facet normal -0 0 1
    outer loop
      vertex 9.06112 40 10
      vertex 15 20 10
      vertex 15 40 10
    endloop
  endfacet
  facet normal 0 0 1
    outer loop
      vertex 15 20 10
      vertex 9.06112 40 10
      vertex 9.06112 20 10
    endloop
  endfacet
  facet normal -0 0 1
    outer loop
      vertex -15 40 10
      vertex -9.06112 20 10
      vertex -9.06112 40 10
    endloop
  endfacet
  facet normal 0 0 1
    outer loop
      vertex -9.06112 20 10
      vertex -15 40 10
      vertex -15 20 10
    endloop
  endfacet
  facet normal 1 -0 0
    outer loop
      vertex 15 20 10
      vertex 15 40 -25
      vertex 15 40 10
    endloop
  endfacet
  facet normal 1 0 0
    outer loop
      vertex 15 40 -25
      vertex 15 20 10
      vertex 15 20 -25
    endloop
  endfacet
  facet normal 0 1 0
    outer loop
      vertex 15 40 10
      vertex 9.24139 40 9.84108
      vertex 9.06112 40 10
    endloop
  endfacet
  facet normal 0 1 0
    outer loop
      vertex 15 40 10
      vertex 9.84108 40 9.24139
      vertex 9.24139 40 9.84108
    endloop
  endfacet
  facet normal 0 1 0
    outer loop
      vertex 15 40 10
      vertex 10.4019 40 8.60522
      vertex 9.84108 40 9.24139
    endloop
  endfacet
  facet normal 0 1 0
    outer loop
      vertex 15 40 10
      vertex 10.9217 40 7.9351
      vertex 10.4019 40 8.60522
    endloop
  endfacet
  facet normal 0 1 0
    outer loop
      vertex 15 40 10
      vertex 11.3984 40 7.23366
      vertex 10.9217 40 7.9351
    endloop
  endfacet
  facet normal 0 1 0
    outer loop
      vertex 15 40 10
      vertex 11.8301 40 6.50367
      vertex 11.3984 40 7.23366
    endloop
  endfacet
  facet normal 0 1 0
    outer loop
      vertex 15 40 10
      vertex 12.2152 40 5.74802
      vertex 11.8301 40 6.50367
    endloop
  endfacet
  facet normal 0 1 0
    outer loop
      vertex 15 40 10
      vertex 12.552 40 4.96968
      vertex 12.2152 40 5.74802
    endloop
  endfacet
  facet normal 0 1 0
    outer loop
      vertex 15 40 10
      vertex 12.8393 40 4.17173
      vertex 12.552 40 4.96968
    endloop
  endfacet
  facet normal 0 1 0
    outer loop
      vertex 15 40 10
      vertex 13.0759 40 3.35731
      vertex 12.8393 40 4.17173
    endloop
  endfacet
  facet normal 0 1 0
    outer loop
      vertex 15 40 10
      vertex 13.2609 40 2.52965
      vertex 13.0759 40 3.35731
    endloop
  endfacet
  facet normal 0 1 0
    outer loop
      vertex 15 40 10
      vertex 13.3935 40 1.692
      vertex 13.2609 40 2.52965
    endloop
  endfacet
  facet normal 0 1 0
    outer loop
      vertex 15 40 10
      vertex 13.4734 40 0.847672
      vertex 13.3935 40 1.692
    endloop
  endfacet
  facet normal 0 1 0
    outer loop
      vertex 15 40 10
      vertex 13.5 40 0
      vertex 13.4734 40 0.847672
    endloop
  endfacet
  facet normal 0 1 0
    outer loop
      vertex 15 40 10
      vertex 13.5 40 -10
      vertex 13.5 40 0
    endloop
  endfacet
  facet normal 0 1 -0
    outer loop
      vertex 15 40 -25
      vertex 13.5 40 -10
      vertex 15 40 10
    endloop
  endfacet
  facet normal 0 1 0
    outer loop
      vertex 0.847672 40 -23.4734
      vertex 15 40 -25
      vertex 0 40 -23.5
    endloop
  endfacet
  facet normal 0 1 0
    outer loop
      vertex 1.692 40 -23.3935
      vertex 15 40 -25
      vertex 0.847672 40 -23.4734
    endloop
  endfacet
  facet normal 0 1 0
    outer loop
      vertex 2.52965 40 -23.2609
      vertex 15 40 -25
      vertex 1.692 40 -23.3935
    endloop
  endfacet
  facet normal 0 1 0
    outer loop
      vertex 3.35731 40 -23.0759
      vertex 15 40 -25
      vertex 2.52965 40 -23.2609
    endloop
  endfacet
  facet normal 0 1 0
    outer loop
      vertex 4.17173 40 -22.8393
      vertex 15 40 -25
      vertex 3.35731 40 -23.0759
    endloop
  endfacet
  facet normal 0 1 0
    outer loop
      vertex 4.96968 40 -22.552
      vertex 15 40 -25
      vertex 4.17173 40 -22.8393
    endloop
  endfacet
  facet normal 0 1 0
    outer loop
      vertex 5.74802 40 -22.2152
      vertex 15 40 -25
      vertex 4.96968 40 -22.552
    endloop
  endfacet
  facet normal 0 1 0
    outer loop
      vertex 6.50367 40 -21.8301
      vertex 15 40 -25
      vertex 5.74802 40 -22.2152
    endloop
  endfacet
  facet normal 0 1 0
    outer loop
      vertex 7.23366 40 -21.3984
      vertex 15 40 -25
      vertex 6.50367 40 -21.8301
    endloop
  endfacet
  facet normal 0 1 0
    outer loop
      vertex 7.9351 40 -20.9217
      vertex 15 40 -25
      vertex 7.23366 40 -21.3984
    endloop
  endfacet
  facet normal 0 1 0
    outer loop
      vertex 8.60522 40 -20.4019
      vertex 15 40 -25
      vertex 7.9351 40 -20.9217
    endloop
  endfacet
  facet normal 0 1 0
    outer loop
      vertex 9.24139 40 -19.8411
      vertex 15 40 -25
      vertex 8.60522 40 -20.4019
    endloop
  endfacet
  facet normal 0 1 0
    outer loop
      vertex 9.84108 40 -19.2414
      vertex 15 40 -25
      vertex 9.24139 40 -19.8411
    endloop
  endfacet
  facet normal 0 1 0
    outer loop
      vertex 10.4019 40 -18.6052
      vertex 15 40 -25
      vertex 9.84108 40 -19.2414
    endloop
  endfacet
  facet normal 0 1 0
    outer loop
      vertex 10.9217 40 -17.9351
      vertex 15 40 -25
      vertex 10.4019 40 -18.6052
    endloop
  endfacet
  facet normal 0 1 0
    outer loop
      vertex 11.3984 40 -17.2337
      vertex 15 40 -25
      vertex 10.9217 40 -17.9351
    endloop
  endfacet
  facet normal 0 1 0
    outer loop
      vertex 11.8301 40 -16.5037
      vertex 15 40 -25
      vertex 11.3984 40 -17.2337
    endloop
  endfacet
  facet normal 0 1 0
    outer loop
      vertex 12.2152 40 -15.748
      vertex 15 40 -25
      vertex 11.8301 40 -16.5037
    endloop
  endfacet
  facet normal 0 1 0
    outer loop
      vertex 12.552 40 -14.9697
      vertex 15 40 -25
      vertex 12.2152 40 -15.748
    endloop
  endfacet
  facet normal 0 1 0
    outer loop
      vertex 12.8393 40 -14.1717
      vertex 15 40 -25
      vertex 12.552 40 -14.9697
    endloop
  endfacet
  facet normal 0 1 0
    outer loop
      vertex 13.0759 40 -13.3573
      vertex 15 40 -25
      vertex 12.8393 40 -14.1717
    endloop
  endfacet
  facet normal 0 1 0
    outer loop
      vertex 13.2609 40 -12.5296
      vertex 15 40 -25
      vertex 13.0759 40 -13.3573
    endloop
  endfacet
  facet normal 0 1 0
    outer loop
      vertex 13.3935 40 -11.692
      vertex 15 40 -25
      vertex 13.2609 40 -12.5296
    endloop
  endfacet
  facet normal 0 1 0
    outer loop
      vertex 13.4734 40 -10.8477
      vertex 15 40 -25
      vertex 13.3935 40 -11.692
    endloop
  endfacet
  facet normal 0 1 0
    outer loop
      vertex 13.5 40 -10
      vertex 15 40 -25
      vertex 13.4734 40 -10.8477
    endloop
  endfacet
  facet normal 0 1 -0
    outer loop
      vertex -9.24139 40 9.84108
      vertex -15 40 10
      vertex -9.06112 40 10
    endloop
  endfacet
  facet normal 0 1 -0
    outer loop
      vertex -9.84108 40 9.24139
      vertex -15 40 10
      vertex -9.24139 40 9.84108
    endloop
  endfacet
  facet normal 0 1 -0
    outer loop
      vertex -10.4019 40 8.60522
      vertex -15 40 10
      vertex -9.84108 40 9.24139
    endloop
  endfacet
  facet normal 0 1 -0
    outer loop
      vertex -10.9217 40 7.9351
      vertex -15 40 10
      vertex -10.4019 40 8.60522
    endloop
  endfacet
  facet normal 0 1 -0
    outer loop
      vertex -11.3984 40 7.23366
      vertex -15 40 10
      vertex -10.9217 40 7.9351
    endloop
  endfacet
  facet normal 0 1 -0
    outer loop
      vertex -11.8301 40 6.50367
      vertex -15 40 10
      vertex -11.3984 40 7.23366
    endloop
  endfacet
  facet normal 0 1 -0
    outer loop
      vertex -12.2152 40 5.74802
      vertex -15 40 10
      vertex -11.8301 40 6.50367
    endloop
  endfacet
  facet normal 0 1 -0
    outer loop
      vertex -12.552 40 4.96968
      vertex -15 40 10
      vertex -12.2152 40 5.74802
    endloop
  endfacet
  facet normal 0 1 -0
    outer loop
      vertex -12.8393 40 4.17173
      vertex -15 40 10
      vertex -12.552 40 4.96968
    endloop
  endfacet
  facet normal 0 1 -0
    outer loop
      vertex -13.0759 40 3.35731
      vertex -15 40 10
      vertex -12.8393 40 4.17173
    endloop
  endfacet
  facet normal 0 1 -0
    outer loop
      vertex -13.2609 40 2.52965
      vertex -15 40 10
      vertex -13.0759 40 3.35731
    endloop
  endfacet
  facet normal 0 1 -0
    outer loop
      vertex -13.3935 40 1.692
      vertex -15 40 10
      vertex -13.2609 40 2.52965
    endloop
  endfacet
  facet normal 0 1 -0
    outer loop
      vertex -13.4734 40 0.847672
      vertex -15 40 10
      vertex -13.3935 40 1.692
    endloop
  endfacet
  facet normal 0 1 -0
    outer loop
      vertex -13.5 40 0
      vertex -15 40 10
      vertex -13.4734 40 0.847672
    endloop
  endfacet
  facet normal 0 1 -0
    outer loop
      vertex -13.5 40 -10
      vertex -15 40 10
      vertex -13.5 40 0
    endloop
  endfacet
  facet normal 0 1 0
    outer loop
      vertex -15 40 -25
      vertex -13.5 40 -10
      vertex -13.4734 40 -10.8477
    endloop
  endfacet
  facet normal 0 1 0
    outer loop
      vertex -15 40 -25
      vertex 0 40 -23.5
      vertex 15 40 -25
    endloop
  endfacet
  facet normal 0 1 0
    outer loop
      vertex 0 40 -23.5
      vertex -15 40 -25
      vertex -0.847672 40 -23.4734
    endloop
  endfacet
  facet normal 0 1 0
    outer loop
      vertex -13.5 40 -10
      vertex -15 40 -25
      vertex -15 40 10
    endloop
  endfacet
  facet normal 0 1 0
    outer loop
      vertex -13.3935 40 -11.692
      vertex -15 40 -25
      vertex -13.4734 40 -10.8477
    endloop
  endfacet
  facet normal 0 1 0
    outer loop
      vertex -13.2609 40 -12.5296
      vertex -15 40 -25
      vertex -13.3935 40 -11.692
    endloop
  endfacet
  facet normal 0 1 0
    outer loop
      vertex -13.0759 40 -13.3573
      vertex -15 40 -25
      vertex -13.2609 40 -12.5296
    endloop
  endfacet
  facet normal 0 1 0
    outer loop
      vertex -12.8393 40 -14.1717
      vertex -15 40 -25
      vertex -13.0759 40 -13.3573
    endloop
  endfacet
  facet normal 0 1 0
    outer loop
      vertex -12.552 40 -14.9697
      vertex -15 40 -25
      vertex -12.8393 40 -14.1717
    endloop
  endfacet
  facet normal 0 1 0
    outer loop
      vertex -12.2152 40 -15.748
      vertex -15 40 -25
      vertex -12.552 40 -14.9697
    endloop
  endfacet
  facet normal 0 1 0
    outer loop
      vertex -11.8301 40 -16.5037
      vertex -15 40 -25
      vertex -12.2152 40 -15.748
    endloop
  endfacet
  facet normal 0 1 0
    outer loop
      vertex -11.3984 40 -17.2337
      vertex -15 40 -25
      vertex -11.8301 40 -16.5037
    endloop
  endfacet
  facet normal 0 1 0
    outer loop
      vertex -10.9217 40 -17.9351
      vertex -15 40 -25
      vertex -11.3984 40 -17.2337
    endloop
  endfacet
  facet normal 0 1 0
    outer loop
      vertex -10.4019 40 -18.6052
      vertex -15 40 -25
      vertex -10.9217 40 -17.9351
    endloop
  endfacet
  facet normal 0 1 0
    outer loop
      vertex -9.84108 40 -19.2414
      vertex -15 40 -25
      vertex -10.4019 40 -18.6052
    endloop
  endfacet
  facet normal 0 1 0
    outer loop
      vertex -9.24139 40 -19.8411
      vertex -15 40 -25
      vertex -9.84108 40 -19.2414
    endloop
  endfacet
  facet normal 0 1 0
    outer loop
      vertex -8.60522 40 -20.4019
      vertex -15 40 -25
      vertex -9.24139 40 -19.8411
    endloop
  endfacet
  facet normal 0 1 0
    outer loop
      vertex -7.9351 40 -20.9217
      vertex -15 40 -25
      vertex -8.60522 40 -20.4019
    endloop
  endfacet
  facet normal 0 1 0
    outer loop
      vertex -7.23366 40 -21.3984
      vertex -15 40 -25
      vertex -7.9351 40 -20.9217
    endloop
  endfacet
  facet normal 0 1 0
    outer loop
      vertex -6.50367 40 -21.8301
      vertex -15 40 -25
      vertex -7.23366 40 -21.3984
    endloop
  endfacet
  facet normal 0 1 0
    outer loop
      vertex -5.74802 40 -22.2152
      vertex -15 40 -25
      vertex -6.50367 40 -21.8301
    endloop
  endfacet
  facet normal 0 1 0
    outer loop
      vertex -4.96968 40 -22.552
      vertex -15 40 -25
      vertex -5.74802 40 -22.2152
    endloop
  endfacet
  facet normal 0 1 0
    outer loop
      vertex -4.17173 40 -22.8393
      vertex -15 40 -25
      vertex -4.96968 40 -22.552
    endloop
  endfacet
  facet normal 0 1 0
    outer loop
      vertex -3.35731 40 -23.0759
      vertex -15 40 -25
      vertex -4.17173 40 -22.8393
    endloop
  endfacet
  facet normal 0 1 0
    outer loop
      vertex -2.52965 40 -23.2609
      vertex -15 40 -25
      vertex -3.35731 40 -23.0759
    endloop
  endfacet
  facet normal 0 1 0
    outer loop
      vertex -1.692 40 -23.3935
      vertex -15 40 -25
      vertex -2.52965 40 -23.2609
    endloop
  endfacet
  facet normal 0 1 0
    outer loop
      vertex -0.847672 40 -23.4734
      vertex -15 40 -25
      vertex -1.692 40 -23.3935
    endloop
  endfacet
  facet normal 0 0 -1
    outer loop
      vertex -15 20 -25
      vertex 15 40 -25
      vertex 15 20 -25
    endloop
  endfacet
  facet normal -0 0 -1
    outer loop
      vertex 15 40 -25
      vertex -15 20 -25
      vertex -15 40 -25
    endloop
  endfacet
  facet normal 0 -1 0
    outer loop
      vertex -15 20 10
      vertex -9.24139 20 9.84108
      vertex -9.06112 20 10
    endloop
  endfacet
  facet normal 0 -1 0
    outer loop
      vertex -15 20 10
      vertex -9.84108 20 9.24139
      vertex -9.24139 20 9.84108
    endloop
  endfacet
  facet normal 0 -1 0
    outer loop
      vertex -15 20 10
      vertex -10.4019 20 8.60522
      vertex -9.84108 20 9.24139
    endloop
  endfacet
  facet normal 0 -1 0
    outer loop
      vertex -15 20 10
      vertex -10.9217 20 7.9351
      vertex -10.4019 20 8.60522
    endloop
  endfacet
  facet normal 0 -1 0
    outer loop
      vertex -15 20 10
      vertex -11.3984 20 7.23366
      vertex -10.9217 20 7.9351
    endloop
  endfacet
  facet normal 0 -1 0
    outer loop
      vertex -15 20 10
      vertex -11.8301 20 6.50367
      vertex -11.3984 20 7.23366
    endloop
  endfacet
  facet normal 0 -1 0
    outer loop
      vertex -15 20 10
      vertex -12.2152 20 5.74802
      vertex -11.8301 20 6.50367
    endloop
  endfacet
  facet normal 0 -1 0
    outer loop
      vertex -15 20 10
      vertex -12.552 20 4.96968
      vertex -12.2152 20 5.74802
    endloop
  endfacet
  facet normal 0 -1 0
    outer loop
      vertex -15 20 10
      vertex -12.8393 20 4.17173
      vertex -12.552 20 4.96968
    endloop
  endfacet
  facet normal 0 -1 0
    outer loop
      vertex -15 20 10
      vertex -13.0759 20 3.35731
      vertex -12.8393 20 4.17173
    endloop
  endfacet
  facet normal 0 -1 0
    outer loop
      vertex -15 20 10
      vertex -13.2609 20 2.52965
      vertex -13.0759 20 3.35731
    endloop
  endfacet
  facet normal 0 -1 0
    outer loop
      vertex -15 20 10
      vertex -13.3935 20 1.692
      vertex -13.2609 20 2.52965
    endloop
  endfacet
  facet normal 0 -1 0
    outer loop
      vertex -15 20 10
      vertex -13.4734 20 0.847672
      vertex -13.3935 20 1.692
    endloop
  endfacet
  facet normal 0 -1 0
    outer loop
      vertex -15 20 10
      vertex -13.5 20 0
      vertex -13.4734 20 0.847672
    endloop
  endfacet
  facet normal 0 -1 0
    outer loop
      vertex -15 20 10
      vertex -13.5 20 -10
      vertex -13.5 20 0
    endloop
  endfacet
  facet normal 0 -1 0
    outer loop
      vertex -15 20 -25
      vertex -13.5 20 -10
      vertex -15 20 10
    endloop
  endfacet
  facet normal 0 -1 -0
    outer loop
      vertex -0.847672 20 -23.4734
      vertex -15 20 -25
      vertex 0 20 -23.5
    endloop
  endfacet
  facet normal 0 -1 -0
    outer loop
      vertex -1.692 20 -23.3935
      vertex -15 20 -25
      vertex -0.847672 20 -23.4734
    endloop
  endfacet
  facet normal 0 -1 -0
    outer loop
      vertex -2.52965 20 -23.2609
      vertex -15 20 -25
      vertex -1.692 20 -23.3935
    endloop
  endfacet
  facet normal 0 -1 -0
    outer loop
      vertex -3.35731 20 -23.0759
      vertex -15 20 -25
      vertex -2.52965 20 -23.2609
    endloop
  endfacet
  facet normal 0 -1 -0
    outer loop
      vertex -4.17173 20 -22.8393
      vertex -15 20 -25
      vertex -3.35731 20 -23.0759
    endloop
  endfacet
  facet normal 0 -1 -0
    outer loop
      vertex -4.96968 20 -22.552
      vertex -15 20 -25
      vertex -4.17173 20 -22.8393
    endloop
  endfacet
  facet normal 0 -1 -0
    outer loop
      vertex -5.74802 20 -22.2152
      vertex -15 20 -25
      vertex -4.96968 20 -22.552
    endloop
  endfacet
  facet normal 0 -1 -0
    outer loop
      vertex -6.50367 20 -21.8301
      vertex -15 20 -25
      vertex -5.74802 20 -22.2152
    endloop
  endfacet
  facet normal 0 -1 -0
    outer loop
      vertex -7.23366 20 -21.3984
      vertex -15 20 -25
      vertex -6.50367 20 -21.8301
    endloop
  endfacet
  facet normal 0 -1 -0
    outer loop
      vertex -7.9351 20 -20.9217
      vertex -15 20 -25
      vertex -7.23366 20 -21.3984
    endloop
  endfacet
  facet normal 0 -1 -0
    outer loop
      vertex -8.60522 20 -20.4019
      vertex -15 20 -25
      vertex -7.9351 20 -20.9217
    endloop
  endfacet
  facet normal 0 -1 -0
    outer loop
      vertex -9.24139 20 -19.8411
      vertex -15 20 -25
      vertex -8.60522 20 -20.4019
    endloop
  endfacet
  facet normal 0 -1 -0
    outer loop
      vertex -9.84108 20 -19.2414
      vertex -15 20 -25
      vertex -9.24139 20 -19.8411
    endloop
  endfacet
  facet normal 0 -1 -0
    outer loop
      vertex -10.4019 20 -18.6052
      vertex -15 20 -25
      vertex -9.84108 20 -19.2414
    endloop
  endfacet
  facet normal 0 -1 -0
    outer loop
      vertex -10.9217 20 -17.9351
      vertex -15 20 -25
      vertex -10.4019 20 -18.6052
    endloop
  endfacet
  facet normal 0 -1 -0
    outer loop
      vertex -11.3984 20 -17.2337
      vertex -15 20 -25
      vertex -10.9217 20 -17.9351
    endloop
  endfacet
  facet normal 0 -1 -0
    outer loop
      vertex -11.8301 20 -16.5037
      vertex -15 20 -25
      vertex -11.3984 20 -17.2337
    endloop
  endfacet
  facet normal 0 -1 -0
    outer loop
      vertex -12.2152 20 -15.748
      vertex -15 20 -25
      vertex -11.8301 20 -16.5037
    endloop
  endfacet
  facet normal 0 -1 -0
    outer loop
      vertex -12.552 20 -14.9697
      vertex -15 20 -25
      vertex -12.2152 20 -15.748
    endloop
  endfacet
  facet normal 0 -1 -0
    outer loop
      vertex -12.8393 20 -14.1717
      vertex -15 20 -25
      vertex -12.552 20 -14.9697
    endloop
  endfacet
  facet normal 0 -1 -0
    outer loop
      vertex -13.0759 20 -13.3573
      vertex -15 20 -25
      vertex -12.8393 20 -14.1717
    endloop
  endfacet
  facet normal 0 -1 -0
    outer loop
      vertex -13.2609 20 -12.5296
      vertex -15 20 -25
      vertex -13.0759 20 -13.3573
    endloop
  endfacet
  facet normal 0 -1 -0
    outer loop
      vertex -13.3935 20 -11.692
      vertex -15 20 -25
      vertex -13.2609 20 -12.5296
    endloop
  endfacet
  facet normal 0 -1 -0
    outer loop
      vertex -13.4734 20 -10.8477
      vertex -15 20 -25
      vertex -13.3935 20 -11.692
    endloop
  endfacet
  facet normal 0 -1 -0
    outer loop
      vertex -13.5 20 -10
      vertex -15 20 -25
      vertex -13.4734 20 -10.8477
    endloop
  endfacet
  facet normal 0 -1 0
    outer loop
      vertex 9.24139 20 9.84108
      vertex 15 20 10
      vertex 9.06112 20 10
    endloop
  endfacet
  facet normal 0 -1 0
    outer loop
      vertex 9.84108 20 9.24139
      vertex 15 20 10
      vertex 9.24139 20 9.84108
    endloop
  endfacet
  facet normal 0 -1 0
    outer loop
      vertex 10.4019 20 8.60522
      vertex 15 20 10
      vertex 9.84108 20 9.24139
    endloop
  endfacet
  facet normal 0 -1 0
    outer loop
      vertex 10.9217 20 7.9351
      vertex 15 20 10
      vertex 10.4019 20 8.60522
    endloop
  endfacet
  facet normal 0 -1 0
    outer loop
      vertex 11.3984 20 7.23366
      vertex 15 20 10
      vertex 10.9217 20 7.9351
    endloop
  endfacet
  facet normal 0 -1 0
    outer loop
      vertex 11.8301 20 6.50367
      vertex 15 20 10
      vertex 11.3984 20 7.23366
    endloop
  endfacet
  facet normal 0 -1 0
    outer loop
      vertex 12.2152 20 5.74802
      vertex 15 20 10
      vertex 11.8301 20 6.50367
    endloop
  endfacet
  facet normal 0 -1 0
    outer loop
      vertex 12.552 20 4.96968
      vertex 15 20 10
      vertex 12.2152 20 5.74802
    endloop
  endfacet
  facet normal 0 -1 0
    outer loop
      vertex 12.8393 20 4.17173
      vertex 15 20 10
      vertex 12.552 20 4.96968
    endloop
  endfacet
  facet normal 0 -1 0
    outer loop
      vertex 13.0759 20 3.35731
      vertex 15 20 10
      vertex 12.8393 20 4.17173
    endloop
  endfacet
  facet normal 0 -1 0
    outer loop
      vertex 13.2609 20 2.52965
      vertex 15 20 10
      vertex 13.0759 20 3.35731
    endloop
  endfacet
  facet normal 0 -1 0
    outer loop
      vertex 13.3935 20 1.692
      vertex 15 20 10
      vertex 13.2609 20 2.52965
    endloop
  endfacet
  facet normal 0 -1 0
    outer loop
      vertex 13.4734 20 0.847672
      vertex 15 20 10
      vertex 13.3935 20 1.692
    endloop
  endfacet
  facet normal 0 -1 0
    outer loop
      vertex 13.5 20 0
      vertex 15 20 10
      vertex 13.4734 20 0.847672
    endloop
  endfacet
  facet normal 0 -1 0
    outer loop
      vertex 13.5 20 -10
      vertex 15 20 10
      vertex 13.5 20 0
    endloop
  endfacet
  facet normal 0 -1 0
    outer loop
      vertex 15 20 -25
      vertex 13.5 20 -10
      vertex 13.4734 20 -10.8477
    endloop
  endfacet
  facet normal 0 -1 0
    outer loop
      vertex 15 20 -25
      vertex 0 20 -23.5
      vertex -15 20 -25
    endloop
  endfacet
  facet normal 0 -1 0
    outer loop
      vertex 0 20 -23.5
      vertex 15 20 -25
      vertex 0.847672 20 -23.4734
    endloop
  endfacet
  facet normal 0 -1 0
    outer loop
      vertex 13.5 20 -10
      vertex 15 20 -25
      vertex 15 20 10
    endloop
  endfacet
  facet normal 0 -1 0
    outer loop
      vertex 13.3935 20 -11.692
      vertex 15 20 -25
      vertex 13.4734 20 -10.8477
    endloop
  endfacet
  facet normal 0 -1 0
    outer loop
      vertex 13.2609 20 -12.5296
      vertex 15 20 -25
      vertex 13.3935 20 -11.692
    endloop
  endfacet
  facet normal 0 -1 0
    outer loop
      vertex 13.0759 20 -13.3573
      vertex 15 20 -25
      vertex 13.2609 20 -12.5296
    endloop
  endfacet
  facet normal 0 -1 0
    outer loop
      vertex 12.8393 20 -14.1717
      vertex 15 20 -25
      vertex 13.0759 20 -13.3573
    endloop
  endfacet
  facet normal 0 -1 0
    outer loop
      vertex 12.552 20 -14.9697
      vertex 15 20 -25
      vertex 12.8393 20 -14.1717
    endloop
  endfacet
  facet normal 0 -1 0
    outer loop
      vertex 12.2152 20 -15.748
      vertex 15 20 -25
      vertex 12.552 20 -14.9697
    endloop
  endfacet
  facet normal 0 -1 0
    outer loop
      vertex 11.8301 20 -16.5037
      vertex 15 20 -25
      vertex 12.2152 20 -15.748
    endloop
  endfacet
  facet normal 0 -1 0
    outer loop
      vertex 11.3984 20 -17.2337
      vertex 15 20 -25
      vertex 11.8301 20 -16.5037
    endloop
  endfacet
  facet normal 0 -1 0
    outer loop
      vertex 10.9217 20 -17.9351
      vertex 15 20 -25
      vertex 11.3984 20 -17.2337
    endloop
  endfacet
  facet normal 0 -1 0
    outer loop
      vertex 10.4019 20 -18.6052
      vertex 15 20 -25
      vertex 10.9217 20 -17.9351
    endloop
  endfacet
  facet normal 0 -1 0
    outer loop
      vertex 9.84108 20 -19.2414
      vertex 15 20 -25
      vertex 10.4019 20 -18.6052
    endloop
  endfacet
  facet normal 0 -1 0
    outer loop
      vertex 9.24139 20 -19.8411
      vertex 15 20 -25
      vertex 9.84108 20 -19.2414
    endloop
  endfacet
  facet normal 0 -1 0
    outer loop
      vertex 8.60522 20 -20.4019
      vertex 15 20 -25
      vertex 9.24139 20 -19.8411
    endloop
  endfacet
  facet normal 0 -1 0
    outer loop
      vertex 7.9351 20 -20.9217
      vertex 15 20 -25
      vertex 8.60522 20 -20.4019
    endloop
  endfacet
  facet normal 0 -1 0
    outer loop
      vertex 7.23366 20 -21.3984
      vertex 15 20 -25
      vertex 7.9351 20 -20.9217
    endloop
  endfacet
  facet normal 0 -1 0
    outer loop
      vertex 6.50367 20 -21.8301
      vertex 15 20 -25
      vertex 7.23366 20 -21.3984
    endloop
  endfacet
  facet normal 0 -1 0
    outer loop
      vertex 5.74802 20 -22.2152
      vertex 15 20 -25
      vertex 6.50367 20 -21.8301
    endloop
  endfacet
  facet normal 0 -1 0
    outer loop
      vertex 4.96968 20 -22.552
      vertex 15 20 -25
      vertex 5.74802 20 -22.2152
    endloop
  endfacet
  facet normal 0 -1 0
    outer loop
      vertex 4.17173 20 -22.8393
      vertex 15 20 -25
      vertex 4.96968 20 -22.552
    endloop
  endfacet
  facet normal 0 -1 0
    outer loop
      vertex 3.35731 20 -23.0759
      vertex 15 20 -25
      vertex 4.17173 20 -22.8393
    endloop
  endfacet
  facet normal 0 -1 0
    outer loop
      vertex 2.52965 20 -23.2609
      vertex 15 20 -25
      vertex 3.35731 20 -23.0759
    endloop
  endfacet
  facet normal 0 -1 0
    outer loop
      vertex 1.692 20 -23.3935
      vertex 15 20 -25
      vertex 2.52965 20 -23.2609
    endloop
  endfacet
  facet normal 0 -1 0
    outer loop
      vertex 0.847672 20 -23.4734
      vertex 15 20 -25
      vertex 1.692 20 -23.3935
    endloop
  endfacet
  facet normal -0.999508 0 -0.0313646
    outer loop
      vertex 13.5 20 0
      vertex 13.4734 40 0.847672
      vertex 13.5 40 0
    endloop
  endfacet
  facet normal -0.999508 -0 -0.0313646
    outer loop
      vertex 13.4734 40 0.847672
      vertex 13.5 20 0
      vertex 13.4734 20 0.847672
    endloop
  endfacet
  facet normal 1 -0 0
    outer loop
      vertex -13.5 20 0
      vertex -13.5 40 -10
      vertex -13.5 40 0
    endloop
  endfacet
  facet normal 1 0 0
    outer loop
      vertex -13.5 40 -10
      vertex -13.5 20 0
      vertex -13.5 20 -10
    endloop
  endfacet
  facet normal -0.995552 0 -0.0942106
    outer loop
      vertex 13.4734 20 0.847672
      vertex 13.3935 40 1.692
      vertex 13.4734 40 0.847672
    endloop
  endfacet
  facet normal -0.995552 -0 -0.0942106
    outer loop
      vertex 13.3935 40 1.692
      vertex 13.4734 20 0.847672
      vertex 13.3935 20 1.692
    endloop
  endfacet
  facet normal -0.999508 0 0.0313636
    outer loop
      vertex 13.4734 20 -10.8477
      vertex 13.5 40 -10
      vertex 13.4734 40 -10.8477
    endloop
  endfacet
  facet normal -0.999508 0 0.0313636
    outer loop
      vertex 13.5 40 -10
      vertex 13.4734 20 -10.8477
      vertex 13.5 20 -10
    endloop
  endfacet
  facet normal 0.917762 0 -0.39713
    outer loop
      vertex -12.2152 20 5.74802
      vertex -12.552 40 4.96968
      vertex -12.2152 40 5.74802
    endloop
  endfacet
  facet normal 0.917762 0 -0.39713
    outer loop
      vertex -12.552 40 4.96968
      vertex -12.2152 20 5.74802
      vertex -12.552 20 4.96968
    endloop
  endfacet
  facet normal 0.562085 0 0.82708
    outer loop
      vertex -7.9351 40 -20.9217
      vertex -7.23366 20 -21.3984
      vertex -7.23366 40 -21.3984
    endloop
  endfacet
  facet normal 0.562085 0 0.82708
    outer loop
      vertex -7.23366 20 -21.3984
      vertex -7.9351 40 -20.9217
      vertex -7.9351 20 -20.9217
    endloop
  endfacet
  facet normal -0.89097 0 -0.454063
    outer loop
      vertex 12.2152 20 5.74802
      vertex 11.8301 40 6.50367
      vertex 12.2152 40 5.74802
    endloop
  endfacet
  facet normal -0.89097 -0 -0.454063
    outer loop
      vertex 11.8301 40 6.50367
      vertex 12.2152 20 5.74802
      vertex 11.8301 20 6.50367
    endloop
  endfacet
  facet normal 0.995552 0 -0.0942106
    outer loop
      vertex -13.3935 20 1.692
      vertex -13.4734 40 0.847672
      vertex -13.3935 40 1.692
    endloop
  endfacet
  facet normal 0.995552 0 -0.0942106
    outer loop
      vertex -13.4734 40 0.847672
      vertex -13.3935 20 1.692
      vertex -13.4734 20 0.847672
    endloop
  endfacet
  facet normal 0.66129 0 -0.75013
    outer loop
      vertex -9.24139 20 9.84108
      vertex -9.06112 40 10
      vertex -9.06112 20 10
    endloop
  endfacet
  facet normal 0.66129 0 -0.75013
    outer loop
      vertex -9.06112 40 10
      vertex -9.24139 20 9.84108
      vertex -9.24139 40 9.84108
    endloop
  endfacet
  facet normal 0.940873 0 -0.338759
    outer loop
      vertex -12.552 20 4.96968
      vertex -12.8393 40 4.17173
      vertex -12.552 40 4.96968
    endloop
  endfacet
  facet normal 0.940873 0 -0.338759
    outer loop
      vertex -12.8393 40 4.17173
      vertex -12.552 20 4.96968
      vertex -12.8393 20 4.17173
    endloop
  endfacet
  facet normal 0.0942106 0 0.995552
    outer loop
      vertex -1.692 40 -23.3935
      vertex -0.847672 20 -23.4734
      vertex -0.847672 40 -23.4734
    endloop
  endfacet
  facet normal 0.0942106 0 0.995552
    outer loop
      vertex -0.847672 20 -23.4734
      vertex -1.692 40 -23.3935
      vertex -1.692 20 -23.3935
    endloop
  endfacet
  facet normal 0.860753 -0 0.509023
    outer loop
      vertex -11.8301 20 -16.5037
      vertex -11.3984 40 -17.2337
      vertex -11.8301 40 -16.5037
    endloop
  endfacet
  facet normal 0.860753 0 0.509023
    outer loop
      vertex -11.3984 40 -17.2337
      vertex -11.8301 20 -16.5037
      vertex -11.3984 20 -17.2337
    endloop
  endfacet
  facet normal -0.707113 0 0.707101
    outer loop
      vertex 9.24139 40 -19.8411
      vertex 9.84108 20 -19.2414
      vertex 9.84108 40 -19.2414
    endloop
  endfacet
  facet normal -0.707113 0 0.707101
    outer loop
      vertex 9.84108 20 -19.2414
      vertex 9.24139 40 -19.8411
      vertex 9.24139 20 -19.8411
    endloop
  endfacet
  facet normal -1 0 0
    outer loop
      vertex 13.5 20 -10
      vertex 13.5 40 0
      vertex 13.5 40 -10
    endloop
  endfacet
  facet normal -1 -0 0
    outer loop
      vertex 13.5 40 0
      vertex 13.5 20 -10
      vertex 13.5 20 0
    endloop
  endfacet
  facet normal -0.94088 0 0.33874
    outer loop
      vertex 12.552 20 -14.9697
      vertex 12.8393 40 -14.1717
      vertex 12.552 40 -14.9697
    endloop
  endfacet
  facet normal -0.94088 0 0.33874
    outer loop
      vertex 12.8393 40 -14.1717
      vertex 12.552 20 -14.9697
      vertex 12.8393 20 -14.1717
    endloop
  endfacet
  facet normal -0.960297 0 -0.278979
    outer loop
      vertex 13.0759 20 3.35731
      vertex 12.8393 40 4.17173
      vertex 13.0759 40 3.35731
    endloop
  endfacet
  facet normal -0.960297 -0 -0.278979
    outer loop
      vertex 12.8393 40 4.17173
      vertex 13.0759 20 3.35731
      vertex 12.8393 20 4.17173
    endloop
  endfacet
  facet normal -0.750134 0 -0.661286
    outer loop
      vertex 10.4019 20 8.60522
      vertex 9.84108 40 9.24139
      vertex 10.4019 40 8.60522
    endloop
  endfacet
  facet normal -0.750134 -0 -0.661286
    outer loop
      vertex 9.84108 40 9.24139
      vertex 10.4019 20 8.60522
      vertex 9.84108 20 9.24139
    endloop
  endfacet
  facet normal -0.82708 0 -0.562085
    outer loop
      vertex 11.3984 20 7.23366
      vertex 10.9217 40 7.9351
      vertex 11.3984 40 7.23366
    endloop
  endfacet
  facet normal -0.82708 -0 -0.562085
    outer loop
      vertex 10.9217 40 7.9351
      vertex 11.3984 20 7.23366
      vertex 10.9217 20 7.9351
    endloop
  endfacet
  facet normal 0.790154 0 -0.612908
    outer loop
      vertex -10.4019 20 8.60522
      vertex -10.9217 40 7.9351
      vertex -10.4019 40 8.60522
    endloop
  endfacet
  facet normal 0.790154 0 -0.612908
    outer loop
      vertex -10.9217 40 7.9351
      vertex -10.4019 20 8.60522
      vertex -10.9217 20 7.9351
    endloop
  endfacet
  facet normal 0.960297 0 -0.278979
    outer loop
      vertex -12.8393 20 4.17173
      vertex -13.0759 40 3.35731
      vertex -12.8393 40 4.17173
    endloop
  endfacet
  facet normal 0.960297 0 -0.278979
    outer loop
      vertex -13.0759 40 3.35731
      vertex -12.8393 20 4.17173
      vertex -13.0759 20 3.35731
    endloop
  endfacet
  facet normal 0.999508 0 -0.0313646
    outer loop
      vertex -13.4734 20 0.847672
      vertex -13.5 40 0
      vertex -13.4734 40 0.847672
    endloop
  endfacet
  facet normal 0.999508 0 -0.0313646
    outer loop
      vertex -13.5 40 0
      vertex -13.4734 20 0.847672
      vertex -13.5 20 0
    endloop
  endfacet
  facet normal 0.454063 0 0.89097
    outer loop
      vertex -6.50367 40 -21.8301
      vertex -5.74802 20 -22.2152
      vertex -5.74802 40 -22.2152
    endloop
  endfacet
  facet normal 0.454063 0 0.89097
    outer loop
      vertex -5.74802 20 -22.2152
      vertex -6.50367 40 -21.8301
      vertex -6.50367 20 -21.8301
    endloop
  endfacet
  facet normal -0.0313646 0 0.999508
    outer loop
      vertex 0 40 -23.5
      vertex 0.847672 20 -23.4734
      vertex 0.847672 40 -23.4734
    endloop
  endfacet
  facet normal -0.0313646 0 0.999508
    outer loop
      vertex 0.847672 20 -23.4734
      vertex 0 40 -23.5
      vertex 0 20 -23.5
    endloop
  endfacet
  facet normal -0.218139 0 0.975918
    outer loop
      vertex 2.52965 40 -23.2609
      vertex 3.35731 20 -23.0759
      vertex 3.35731 40 -23.0759
    endloop
  endfacet
  facet normal -0.218139 0 0.975918
    outer loop
      vertex 3.35731 20 -23.0759
      vertex 2.52965 40 -23.2609
      vertex 2.52965 20 -23.2609
    endloop
  endfacet
  facet normal -0.156353 0 0.987701
    outer loop
      vertex 1.692 40 -23.3935
      vertex 2.52965 20 -23.2609
      vertex 2.52965 40 -23.2609
    endloop
  endfacet
  facet normal -0.156353 0 0.987701
    outer loop
      vertex 2.52965 20 -23.2609
      vertex 1.692 40 -23.3935
      vertex 1.692 20 -23.3935
    endloop
  endfacet
  facet normal 0.707113 0 0.707101
    outer loop
      vertex -9.84108 40 -19.2414
      vertex -9.24139 20 -19.8411
      vertex -9.24139 40 -19.8411
    endloop
  endfacet
  facet normal 0.707113 0 0.707101
    outer loop
      vertex -9.24139 20 -19.8411
      vertex -9.84108 40 -19.2414
      vertex -9.84108 20 -19.2414
    endloop
  endfacet
  facet normal 0.790145 -0 0.61292
    outer loop
      vertex -10.9217 20 -17.9351
      vertex -10.4019 40 -18.6052
      vertex -10.9217 40 -17.9351
    endloop
  endfacet
  facet normal 0.790145 0 0.61292
    outer loop
      vertex -10.4019 40 -18.6052
      vertex -10.9217 20 -17.9351
      vertex -10.4019 20 -18.6052
    endloop
  endfacet
  facet normal 0.94088 -0 0.33874
    outer loop
      vertex -12.8393 20 -14.1717
      vertex -12.552 40 -14.9697
      vertex -12.8393 40 -14.1717
    endloop
  endfacet
  facet normal 0.94088 0 0.33874
    outer loop
      vertex -12.552 40 -14.9697
      vertex -12.8393 20 -14.1717
      vertex -12.552 20 -14.9697
    endloop
  endfacet
  facet normal 0.960295 -0 0.278986
    outer loop
      vertex -13.0759 20 -13.3573
      vertex -12.8393 40 -14.1717
      vertex -13.0759 40 -13.3573
    endloop
  endfacet
  facet normal 0.960295 0 0.278986
    outer loop
      vertex -12.8393 40 -14.1717
      vertex -13.0759 20 -13.3573
      vertex -12.8393 20 -14.1717
    endloop
  endfacet
  facet normal 0.9877 -0 0.156362
    outer loop
      vertex -13.3935 20 -11.692
      vertex -13.2609 40 -12.5296
      vertex -13.3935 40 -11.692
    endloop
  endfacet
  facet normal 0.9877 0 0.156362
    outer loop
      vertex -13.2609 40 -12.5296
      vertex -13.3935 20 -11.692
      vertex -13.2609 20 -12.5296
    endloop
  endfacet
  facet normal 0.97592 -0 0.218129
    outer loop
      vertex -13.2609 20 -12.5296
      vertex -13.0759 40 -13.3573
      vertex -13.2609 40 -12.5296
    endloop
  endfacet
  facet normal 0.97592 0 0.218129
    outer loop
      vertex -13.0759 40 -13.3573
      vertex -13.2609 20 -12.5296
      vertex -13.0759 20 -13.3573
    endloop
  endfacet
  facet normal 0.999508 -0 0.0313636
    outer loop
      vertex -13.5 20 -10
      vertex -13.4734 40 -10.8477
      vertex -13.5 40 -10
    endloop
  endfacet
  facet normal 0.999508 0 0.0313636
    outer loop
      vertex -13.4734 40 -10.8477
      vertex -13.5 20 -10
      vertex -13.4734 20 -10.8477
    endloop
  endfacet
  facet normal -0.75015 0 0.661268
    outer loop
      vertex 9.84108 20 -19.2414
      vertex 10.4019 40 -18.6052
      vertex 9.84108 40 -19.2414
    endloop
  endfacet
  facet normal -0.75015 0 0.661268
    outer loop
      vertex 10.4019 40 -18.6052
      vertex 9.84108 20 -19.2414
      vertex 10.4019 20 -18.6052
    endloop
  endfacet
  facet normal -0.860753 0 0.509023
    outer loop
      vertex 11.3984 20 -17.2337
      vertex 11.8301 40 -16.5037
      vertex 11.3984 40 -17.2337
    endloop
  endfacet
  facet normal -0.860753 0 0.509023
    outer loop
      vertex 11.8301 40 -16.5037
      vertex 11.3984 20 -17.2337
      vertex 11.8301 20 -16.5037
    endloop
  endfacet
  facet normal -0.827065 0 0.562107
    outer loop
      vertex 10.9217 20 -17.9351
      vertex 11.3984 40 -17.2337
      vertex 10.9217 40 -17.9351
    endloop
  endfacet
  facet normal -0.827065 0 0.562107
    outer loop
      vertex 11.3984 40 -17.2337
      vertex 10.9217 20 -17.9351
      vertex 11.3984 20 -17.2337
    endloop
  endfacet
  facet normal -0.562085 0 0.82708
    outer loop
      vertex 7.23366 40 -21.3984
      vertex 7.9351 20 -20.9217
      vertex 7.9351 40 -20.9217
    endloop
  endfacet
  facet normal -0.562085 0 0.82708
    outer loop
      vertex 7.9351 20 -20.9217
      vertex 7.23366 40 -21.3984
      vertex 7.23366 20 -21.3984
    endloop
  endfacet
  facet normal -0.509028 0 0.86075
    outer loop
      vertex 6.50367 40 -21.8301
      vertex 7.23366 20 -21.3984
      vertex 7.23366 40 -21.3984
    endloop
  endfacet
  facet normal -0.509028 0 0.86075
    outer loop
      vertex 7.23366 20 -21.3984
      vertex 6.50367 40 -21.8301
      vertex 6.50367 20 -21.8301
    endloop
  endfacet
  facet normal -0.39713 0 0.917762
    outer loop
      vertex 4.96968 40 -22.552
      vertex 5.74802 20 -22.2152
      vertex 5.74802 40 -22.2152
    endloop
  endfacet
  facet normal -0.39713 0 0.917762
    outer loop
      vertex 5.74802 20 -22.2152
      vertex 4.96968 40 -22.552
      vertex 4.96968 20 -22.552
    endloop
  endfacet
  facet normal -0.9877 0 0.156362
    outer loop
      vertex 13.2609 20 -12.5296
      vertex 13.3935 40 -11.692
      vertex 13.2609 40 -12.5296
    endloop
  endfacet
  facet normal -0.9877 0 0.156362
    outer loop
      vertex 13.3935 40 -11.692
      vertex 13.2609 20 -12.5296
      vertex 13.3935 20 -11.692
    endloop
  endfacet
  facet normal -0.97592 0 0.218129
    outer loop
      vertex 13.0759 20 -13.3573
      vertex 13.2609 40 -12.5296
      vertex 13.0759 40 -13.3573
    endloop
  endfacet
  facet normal -0.97592 0 0.218129
    outer loop
      vertex 13.2609 40 -12.5296
      vertex 13.0759 20 -13.3573
      vertex 13.2609 20 -12.5296
    endloop
  endfacet
  facet normal -0.995552 0 0.0942137
    outer loop
      vertex 13.3935 20 -11.692
      vertex 13.4734 40 -10.8477
      vertex 13.3935 40 -11.692
    endloop
  endfacet
  facet normal -0.995552 0 0.0942137
    outer loop
      vertex 13.4734 40 -10.8477
      vertex 13.3935 20 -11.692
      vertex 13.4734 20 -10.8477
    endloop
  endfacet
  facet normal -0.960295 0 0.278986
    outer loop
      vertex 12.8393 20 -14.1717
      vertex 13.0759 40 -13.3573
      vertex 12.8393 40 -14.1717
    endloop
  endfacet
  facet normal -0.960295 0 0.278986
    outer loop
      vertex 13.0759 40 -13.3573
      vertex 12.8393 20 -14.1717
      vertex 13.0759 20 -13.3573
    endloop
  endfacet
  facet normal -0.987701 0 -0.156353
    outer loop
      vertex 13.3935 20 1.692
      vertex 13.2609 40 2.52965
      vertex 13.3935 40 1.692
    endloop
  endfacet
  facet normal -0.987701 -0 -0.156353
    outer loop
      vertex 13.2609 40 2.52965
      vertex 13.3935 20 1.692
      vertex 13.2609 20 2.52965
    endloop
  endfacet
  facet normal -0.975918 0 -0.218139
    outer loop
      vertex 13.2609 20 2.52965
      vertex 13.0759 40 3.35731
      vertex 13.2609 40 2.52965
    endloop
  endfacet
  facet normal -0.975918 -0 -0.218139
    outer loop
      vertex 13.0759 40 3.35731
      vertex 13.2609 20 2.52965
      vertex 13.0759 20 3.35731
    endloop
  endfacet
  facet normal -0.66129 0 -0.75013
    outer loop
      vertex 9.06112 20 10
      vertex 9.24139 40 9.84108
      vertex 9.24139 20 9.84108
    endloop
  endfacet
  facet normal -0.66129 0 -0.75013
    outer loop
      vertex 9.24139 40 9.84108
      vertex 9.06112 20 10
      vertex 9.06112 40 10
    endloop
  endfacet
  facet normal -0.86075 0 -0.509028
    outer loop
      vertex 11.8301 20 6.50367
      vertex 11.3984 40 7.23366
      vertex 11.8301 40 6.50367
    endloop
  endfacet
  facet normal -0.86075 -0 -0.509028
    outer loop
      vertex 11.3984 40 7.23366
      vertex 11.8301 20 6.50367
      vertex 11.3984 20 7.23366
    endloop
  endfacet
  facet normal 0.86075 0 -0.509028
    outer loop
      vertex -11.3984 20 7.23366
      vertex -11.8301 40 6.50367
      vertex -11.3984 40 7.23366
    endloop
  endfacet
  facet normal 0.86075 0 -0.509028
    outer loop
      vertex -11.8301 40 6.50367
      vertex -11.3984 20 7.23366
      vertex -11.8301 20 6.50367
    endloop
  endfacet
  facet normal 0.707107 0 -0.707107
    outer loop
      vertex -9.24139 20 9.84108
      vertex -9.84108 40 9.24139
      vertex -9.24139 40 9.84108
    endloop
  endfacet
  facet normal 0.707107 0 -0.707107
    outer loop
      vertex -9.84108 40 9.24139
      vertex -9.24139 20 9.84108
      vertex -9.84108 20 9.24139
    endloop
  endfacet
  facet normal 0.509028 0 0.86075
    outer loop
      vertex -7.23366 40 -21.3984
      vertex -6.50367 20 -21.8301
      vertex -6.50367 40 -21.8301
    endloop
  endfacet
  facet normal 0.509028 0 0.86075
    outer loop
      vertex -6.50367 20 -21.8301
      vertex -7.23366 40 -21.3984
      vertex -7.23366 20 -21.3984
    endloop
  endfacet
  facet normal 0.39713 0 0.917762
    outer loop
      vertex -5.74802 40 -22.2152
      vertex -4.96968 20 -22.552
      vertex -4.96968 40 -22.552
    endloop
  endfacet
  facet normal 0.39713 0 0.917762
    outer loop
      vertex -4.96968 20 -22.552
      vertex -5.74802 40 -22.2152
      vertex -5.74802 20 -22.2152
    endloop
  endfacet
  facet normal 0.218139 0 0.975918
    outer loop
      vertex -3.35731 40 -23.0759
      vertex -2.52965 20 -23.2609
      vertex -2.52965 40 -23.2609
    endloop
  endfacet
  facet normal 0.218139 0 0.975918
    outer loop
      vertex -2.52965 20 -23.2609
      vertex -3.35731 40 -23.0759
      vertex -3.35731 20 -23.0759
    endloop
  endfacet
  facet normal 0.156353 0 0.987701
    outer loop
      vertex -2.52965 40 -23.2609
      vertex -1.692 20 -23.3935
      vertex -1.692 40 -23.3935
    endloop
  endfacet
  facet normal 0.156353 0 0.987701
    outer loop
      vertex -1.692 20 -23.3935
      vertex -2.52965 40 -23.2609
      vertex -2.52965 20 -23.2609
    endloop
  endfacet
  facet normal 0.338759 0 0.940873
    outer loop
      vertex -4.96968 40 -22.552
      vertex -4.17173 20 -22.8393
      vertex -4.17173 40 -22.8393
    endloop
  endfacet
  facet normal 0.338759 0 0.940873
    outer loop
      vertex -4.17173 20 -22.8393
      vertex -4.96968 40 -22.552
      vertex -4.96968 20 -22.552
    endloop
  endfacet
  facet normal 0.278979 0 0.960297
    outer loop
      vertex -4.17173 40 -22.8393
      vertex -3.35731 20 -23.0759
      vertex -3.35731 40 -23.0759
    endloop
  endfacet
  facet normal 0.278979 0 0.960297
    outer loop
      vertex -3.35731 20 -23.0759
      vertex -4.17173 40 -22.8393
      vertex -4.17173 20 -22.8393
    endloop
  endfacet
  facet normal 0.0313646 0 0.999508
    outer loop
      vertex -0.847672 40 -23.4734
      vertex 0 20 -23.5
      vertex 0 40 -23.5
    endloop
  endfacet
  facet normal 0.0313646 0 0.999508
    outer loop
      vertex 0 20 -23.5
      vertex -0.847672 40 -23.4734
      vertex -0.847672 20 -23.4734
    endloop
  endfacet
  facet normal -0.0942106 0 0.995552
    outer loop
      vertex 0.847672 40 -23.4734
      vertex 1.692 20 -23.3935
      vertex 1.692 40 -23.3935
    endloop
  endfacet
  facet normal -0.0942106 0 0.995552
    outer loop
      vertex 1.692 20 -23.3935
      vertex 0.847672 40 -23.4734
      vertex 0.847672 20 -23.4734
    endloop
  endfacet
  facet normal -0.278979 0 0.960297
    outer loop
      vertex 3.35731 40 -23.0759
      vertex 4.17173 20 -22.8393
      vertex 4.17173 40 -22.8393
    endloop
  endfacet
  facet normal -0.278979 0 0.960297
    outer loop
      vertex 4.17173 20 -22.8393
      vertex 3.35731 40 -23.0759
      vertex 3.35731 20 -23.0759
    endloop
  endfacet
  facet normal -0.338759 0 0.940873
    outer loop
      vertex 4.17173 40 -22.8393
      vertex 4.96968 20 -22.552
      vertex 4.96968 40 -22.552
    endloop
  endfacet
  facet normal -0.338759 0 0.940873
    outer loop
      vertex 4.96968 20 -22.552
      vertex 4.17173 40 -22.8393
      vertex 4.17173 20 -22.8393
    endloop
  endfacet
  facet normal 0.827065 -0 0.562107
    outer loop
      vertex -11.3984 20 -17.2337
      vertex -10.9217 40 -17.9351
      vertex -11.3984 40 -17.2337
    endloop
  endfacet
  facet normal 0.827065 0 0.562107
    outer loop
      vertex -10.9217 40 -17.9351
      vertex -11.3984 20 -17.2337
      vertex -10.9217 20 -17.9351
    endloop
  endfacet
  facet normal 0.75015 -0 0.661268
    outer loop
      vertex -10.4019 20 -18.6052
      vertex -9.84108 40 -19.2414
      vertex -10.4019 40 -18.6052
    endloop
  endfacet
  facet normal 0.75015 0 0.661268
    outer loop
      vertex -9.84108 40 -19.2414
      vertex -10.4019 20 -18.6052
      vertex -9.84108 20 -19.2414
    endloop
  endfacet
  facet normal 0.661273 0 0.750146
    outer loop
      vertex -9.24139 40 -19.8411
      vertex -8.60522 20 -20.4019
      vertex -8.60522 40 -20.4019
    endloop
  endfacet
  facet normal 0.661273 0 0.750146
    outer loop
      vertex -8.60522 20 -20.4019
      vertex -9.24139 40 -19.8411
      vertex -9.24139 20 -19.8411
    endloop
  endfacet
  facet normal 0.612908 0 0.790154
    outer loop
      vertex -8.60522 40 -20.4019
      vertex -7.9351 20 -20.9217
      vertex -7.9351 40 -20.9217
    endloop
  endfacet
  facet normal 0.612908 0 0.790154
    outer loop
      vertex -7.9351 20 -20.9217
      vertex -8.60522 40 -20.4019
      vertex -8.60522 20 -20.4019
    endloop
  endfacet
  facet normal 0.917755 -0 0.397147
    outer loop
      vertex -12.552 20 -14.9697
      vertex -12.2152 40 -15.748
      vertex -12.552 40 -14.9697
    endloop
  endfacet
  facet normal 0.917755 0 0.397147
    outer loop
      vertex -12.2152 40 -15.748
      vertex -12.552 20 -14.9697
      vertex -12.2152 20 -15.748
    endloop
  endfacet
  facet normal 0.890982 -0 0.454039
    outer loop
      vertex -12.2152 20 -15.748
      vertex -11.8301 40 -16.5037
      vertex -12.2152 40 -15.748
    endloop
  endfacet
  facet normal 0.890982 0 0.454039
    outer loop
      vertex -11.8301 40 -16.5037
      vertex -12.2152 20 -15.748
      vertex -11.8301 20 -16.5037
    endloop
  endfacet
  facet normal 0.995552 -0 0.0942137
    outer loop
      vertex -13.4734 20 -10.8477
      vertex -13.3935 40 -11.692
      vertex -13.4734 40 -10.8477
    endloop
  endfacet
  facet normal 0.995552 0 0.0942137
    outer loop
      vertex -13.3935 40 -11.692
      vertex -13.4734 20 -10.8477
      vertex -13.3935 20 -11.692
    endloop
  endfacet
  facet normal -0.790145 0 0.61292
    outer loop
      vertex 10.4019 20 -18.6052
      vertex 10.9217 40 -17.9351
      vertex 10.4019 40 -18.6052
    endloop
  endfacet
  facet normal -0.790145 0 0.61292
    outer loop
      vertex 10.9217 40 -17.9351
      vertex 10.4019 20 -18.6052
      vertex 10.9217 20 -17.9351
    endloop
  endfacet
  facet normal -0.890982 0 0.454039
    outer loop
      vertex 11.8301 20 -16.5037
      vertex 12.2152 40 -15.748
      vertex 11.8301 40 -16.5037
    endloop
  endfacet
  facet normal -0.890982 0 0.454039
    outer loop
      vertex 12.2152 40 -15.748
      vertex 11.8301 20 -16.5037
      vertex 12.2152 20 -15.748
    endloop
  endfacet
  facet normal -0.917755 0 0.397147
    outer loop
      vertex 12.2152 20 -15.748
      vertex 12.552 40 -14.9697
      vertex 12.2152 40 -15.748
    endloop
  endfacet
  facet normal -0.917755 0 0.397147
    outer loop
      vertex 12.552 40 -14.9697
      vertex 12.2152 20 -15.748
      vertex 12.552 20 -14.9697
    endloop
  endfacet
  facet normal -0.612908 0 0.790154
    outer loop
      vertex 7.9351 40 -20.9217
      vertex 8.60522 20 -20.4019
      vertex 8.60522 40 -20.4019
    endloop
  endfacet
  facet normal -0.612908 0 0.790154
    outer loop
      vertex 8.60522 20 -20.4019
      vertex 7.9351 40 -20.9217
      vertex 7.9351 20 -20.9217
    endloop
  endfacet
  facet normal -0.661273 0 0.750146
    outer loop
      vertex 8.60522 40 -20.4019
      vertex 9.24139 20 -19.8411
      vertex 9.24139 40 -19.8411
    endloop
  endfacet
  facet normal -0.661273 0 0.750146
    outer loop
      vertex 9.24139 20 -19.8411
      vertex 8.60522 40 -20.4019
      vertex 8.60522 20 -20.4019
    endloop
  endfacet
  facet normal -0.454063 0 0.89097
    outer loop
      vertex 5.74802 40 -22.2152
      vertex 6.50367 20 -21.8301
      vertex 6.50367 40 -21.8301
    endloop
  endfacet
  facet normal -0.454063 0 0.89097
    outer loop
      vertex 6.50367 20 -21.8301
      vertex 5.74802 40 -22.2152
      vertex 5.74802 20 -22.2152
    endloop
  endfacet
  facet normal -0.940873 0 -0.338759
    outer loop
      vertex 12.8393 20 4.17173
      vertex 12.552 40 4.96968
      vertex 12.8393 40 4.17173
    endloop
  endfacet
  facet normal -0.940873 -0 -0.338759
    outer loop
      vertex 12.552 40 4.96968
      vertex 12.8393 20 4.17173
      vertex 12.552 20 4.96968
    endloop
  endfacet
  facet normal -0.917762 0 -0.39713
    outer loop
      vertex 12.552 20 4.96968
      vertex 12.2152 40 5.74802
      vertex 12.552 40 4.96968
    endloop
  endfacet
  facet normal -0.917762 -0 -0.39713
    outer loop
      vertex 12.2152 40 5.74802
      vertex 12.552 20 4.96968
      vertex 12.2152 20 5.74802
    endloop
  endfacet
  facet normal -0.707107 0 -0.707107
    outer loop
      vertex 9.84108 20 9.24139
      vertex 9.24139 40 9.84108
      vertex 9.84108 40 9.24139
    endloop
  endfacet
  facet normal -0.707107 -0 -0.707107
    outer loop
      vertex 9.24139 40 9.84108
      vertex 9.84108 20 9.24139
      vertex 9.24139 20 9.84108
    endloop
  endfacet
  facet normal -0.790154 0 -0.612908
    outer loop
      vertex 10.9217 20 7.9351
      vertex 10.4019 40 8.60522
      vertex 10.9217 40 7.9351
    endloop
  endfacet
  facet normal -0.790154 -0 -0.612908
    outer loop
      vertex 10.4019 40 8.60522
      vertex 10.9217 20 7.9351
      vertex 10.4019 20 8.60522
    endloop
  endfacet
  facet normal 0.89097 0 -0.454063
    outer loop
      vertex -11.8301 20 6.50367
      vertex -12.2152 40 5.74802
      vertex -11.8301 40 6.50367
    endloop
  endfacet
  facet normal 0.89097 0 -0.454063
    outer loop
      vertex -12.2152 40 5.74802
      vertex -11.8301 20 6.50367
      vertex -12.2152 20 5.74802
    endloop
  endfacet
  facet normal 0.82708 0 -0.562085
    outer loop
      vertex -10.9217 20 7.9351
      vertex -11.3984 40 7.23366
      vertex -10.9217 40 7.9351
    endloop
  endfacet
  facet normal 0.82708 0 -0.562085
    outer loop
      vertex -11.3984 40 7.23366
      vertex -10.9217 20 7.9351
      vertex -11.3984 20 7.23366
    endloop
  endfacet
  facet normal 0.750134 0 -0.661286
    outer loop
      vertex -9.84108 20 9.24139
      vertex -10.4019 40 8.60522
      vertex -9.84108 40 9.24139
    endloop
  endfacet
  facet normal 0.750134 0 -0.661286
    outer loop
      vertex -10.4019 40 8.60522
      vertex -9.84108 20 9.24139
      vertex -10.4019 20 8.60522
    endloop
  endfacet
  facet normal 0.975918 0 -0.218139
    outer loop
      vertex -13.0759 20 3.35731
      vertex -13.2609 40 2.52965
      vertex -13.0759 40 3.35731
    endloop
  endfacet
  facet normal 0.975918 0 -0.218139
    outer loop
      vertex -13.2609 40 2.52965
      vertex -13.0759 20 3.35731
      vertex -13.2609 20 2.52965
    endloop
  endfacet
  facet normal 0.987701 0 -0.156353
    outer loop
      vertex -13.2609 20 2.52965
      vertex -13.3935 40 1.692
      vertex -13.2609 40 2.52965
    endloop
  endfacet
  facet normal 0.987701 0 -0.156353
    outer loop
      vertex -13.3935 40 1.692
      vertex -13.2609 20 2.52965
      vertex -13.3935 20 1.692
    endloop
  endfacet
endsolid OpenSCAD_Model
