solid OpenSCAD_Model
  facet normal 0 -0.0313992 -0.999507
    outer loop
      vertex 0 0 25.5
      vertex 80 1.60116 25.4497
      vertex 80 0 25.5
    endloop
  endfacet
  facet normal -0 -0.0313992 -0.999507
    outer loop
      vertex 80 1.60116 25.4497
      vertex 0 0 25.5
      vertex 0 1.60116 25.4497
    endloop
  endfacet
  facet normal 0 0.661297 -0.750124
    outer loop
      vertex 0 -17.456 18.5887
      vertex 80 -16.2543 19.6481
      vertex 80 -17.456 18.5887
    endloop
  endfacet
  facet normal 0 0.661297 -0.750124
    outer loop
      vertex 80 -16.2543 19.6481
      vertex 0 -17.456 18.5887
      vertex 0 -16.2543 19.6481
    endloop
  endfacet
  facet normal 0 -0.750124 -0.661297
    outer loop
      vertex 0 19.6481 16.2543
      vertex 80 18.5887 17.456
      vertex 0 18.5887 17.456
    endloop
  endfacet
  facet normal 0 -0.750124 -0.661297
    outer loop
      vertex 80 18.5887 17.456
      vertex 0 19.6481 16.2543
      vertex 80 19.6481 16.2543
    endloop
  endfacet
  facet normal 0 -0.940884 -0.338729
    outer loop
      vertex 0 24.2087 8
      vertex 80 23.7093 9.38718
      vertex 0 23.7093 9.38718
    endloop
  endfacet
  facet normal 0 -0.940884 -0.338729
    outer loop
      vertex 80 23.7093 9.38718
      vertex 0 24.2087 8
      vertex 80 24.2087 8
    endloop
  endfacet
  facet normal 0 0.338714 -0.940889
    outer loop
      vertex 0 -9.38718 23.7093
      vertex 80 -7.87993 24.2519
      vertex 80 -9.38718 23.7093
    endloop
  endfacet
  facet normal 0 0.338714 -0.940889
    outer loop
      vertex 80 -7.87993 24.2519
      vertex 0 -9.38718 23.7093
      vertex 0 -7.87993 24.2519
    endloop
  endfacet
  facet normal 0 -0.454017 -0.890993
    outer loop
      vertex 0 10.8574 23.0731
      vertex 80 12.2847 22.3458
      vertex 80 10.8574 23.0731
    endloop
  endfacet
  facet normal -0 -0.454017 -0.890993
    outer loop
      vertex 80 12.2847 22.3458
      vertex 0 10.8574 23.0731
      vertex 0 12.2847 22.3458
    endloop
  endfacet
  facet normal 0 -0.661297 -0.750124
    outer loop
      vertex 0 16.2543 19.6481
      vertex 80 17.456 18.5887
      vertex 80 16.2543 19.6481
    endloop
  endfacet
  facet normal -0 -0.661297 -0.750124
    outer loop
      vertex 80 17.456 18.5887
      vertex 0 16.2543 19.6481
      vertex 0 17.456 18.5887
    endloop
  endfacet
  facet normal 0 0.890993 -0.454017
    outer loop
      vertex 80 -23.0731 10.8574
      vertex 0 -22.3458 12.2847
      vertex 80 -22.3458 12.2847
    endloop
  endfacet
  facet normal 0 0.890993 -0.454017
    outer loop
      vertex 0 -22.3458 12.2847
      vertex 80 -23.0731 10.8574
      vertex 0 -23.0731 10.8574
    endloop
  endfacet
  facet normal 0 0.750124 -0.661297
    outer loop
      vertex 80 -19.6481 16.2543
      vertex 0 -18.5887 17.456
      vertex 80 -18.5887 17.456
    endloop
  endfacet
  facet normal 0 0.750124 -0.661297
    outer loop
      vertex 0 -18.5887 17.456
      vertex 80 -19.6481 16.2543
      vertex 0 -19.6481 16.2543
    endloop
  endfacet
  facet normal 0 0.0941351 -0.995559
    outer loop
      vertex 0 -3.196 25.2989
      vertex 80 -1.60116 25.4497
      vertex 80 -3.196 25.2989
    endloop
  endfacet
  facet normal 0 0.0941351 -0.995559
    outer loop
      vertex 80 -1.60116 25.4497
      vertex 0 -3.196 25.2989
      vertex 0 -1.60116 25.4497
    endloop
  endfacet
  facet normal 0 -0.279032 -0.960282
    outer loop
      vertex 0 6.34159 24.6989
      vertex 80 7.87993 24.2519
      vertex 80 6.34159 24.6989
    endloop
  endfacet
  facet normal -0 -0.279032 -0.960282
    outer loop
      vertex 80 7.87993 24.2519
      vertex 0 6.34159 24.6989
      vertex 0 7.87993 24.2519
    endloop
  endfacet
  facet normal 0 -0.612886 -0.790172
    outer loop
      vertex 0 14.9885 20.6299
      vertex 80 16.2543 19.6481
      vertex 80 14.9885 20.6299
    endloop
  endfacet
  facet normal -0 -0.612886 -0.790172
    outer loop
      vertex 80 16.2543 19.6481
      vertex 0 14.9885 20.6299
      vertex 0 16.2543 19.6481
    endloop
  endfacet
  facet normal 0 -0.338714 -0.940889
    outer loop
      vertex 0 7.87993 24.2519
      vertex 80 9.38718 23.7093
      vertex 80 7.87993 24.2519
    endloop
  endfacet
  facet normal -0 -0.338714 -0.940889
    outer loop
      vertex 80 9.38718 23.7093
      vertex 0 7.87993 24.2519
      vertex 0 9.38718 23.7093
    endloop
  endfacet
  facet normal 0 -0.890993 -0.454017
    outer loop
      vertex 0 23.0731 10.8574
      vertex 80 22.3458 12.2847
      vertex 0 22.3458 12.2847
    endloop
  endfacet
  facet normal 0 -0.890993 -0.454017
    outer loop
      vertex 80 22.3458 12.2847
      vertex 0 23.0731 10.8574
      vertex 80 23.0731 10.8574
    endloop
  endfacet
  facet normal 0 -0.917759 -0.397137
    outer loop
      vertex 0 23.7093 9.38718
      vertex 80 23.0731 10.8574
      vertex 0 23.0731 10.8574
    endloop
  endfacet
  facet normal 0 -0.917759 -0.397137
    outer loop
      vertex 80 23.0731 10.8574
      vertex 0 23.7093 9.38718
      vertex 80 23.7093 9.38718
    endloop
  endfacet
  facet normal 0 -0.790172 -0.612886
    outer loop
      vertex 0 20.6299 14.9885
      vertex 80 19.6481 16.2543
      vertex 0 19.6481 16.2543
    endloop
  endfacet
  facet normal 0 -0.790172 -0.612886
    outer loop
      vertex 80 19.6481 16.2543
      vertex 0 20.6299 14.9885
      vertex 80 20.6299 14.9885
    endloop
  endfacet
  facet normal 0 0.790172 -0.612886
    outer loop
      vertex 80 -20.6299 14.9885
      vertex 0 -19.6481 16.2543
      vertex 80 -19.6481 16.2543
    endloop
  endfacet
  facet normal 0 0.790172 -0.612886
    outer loop
      vertex 0 -19.6481 16.2543
      vertex 80 -20.6299 14.9885
      vertex 0 -20.6299 14.9885
    endloop
  endfacet
  facet normal 0 0.940884 -0.338729
    outer loop
      vertex 80 -24.2087 8
      vertex 0 -23.7093 9.38718
      vertex 80 -23.7093 9.38718
    endloop
  endfacet
  facet normal 0 0.940884 -0.338729
    outer loop
      vertex 0 -23.7093 9.38718
      vertex 80 -24.2087 8
      vertex 0 -24.2087 8
    endloop
  endfacet
  facet normal 0 0.509005 -0.860764
    outer loop
      vertex 0 -13.6636 21.5304
      vertex 80 -12.2847 22.3458
      vertex 80 -13.6636 21.5304
    endloop
  endfacet
  facet normal 0 0.509005 -0.860764
    outer loop
      vertex 80 -12.2847 22.3458
      vertex 0 -13.6636 21.5304
      vertex 0 -12.2847 22.3458
    endloop
  endfacet
  facet normal 0 0.397137 -0.917759
    outer loop
      vertex 0 -10.8574 23.0731
      vertex 80 -9.38718 23.7093
      vertex 80 -10.8574 23.0731
    endloop
  endfacet
  facet normal 0 0.397137 -0.917759
    outer loop
      vertex 80 -9.38718 23.7093
      vertex 0 -10.8574 23.0731
      vertex 0 -9.38718 23.7093
    endloop
  endfacet
  facet normal 0 0.612886 -0.790172
    outer loop
      vertex 0 -16.2543 19.6481
      vertex 80 -14.9885 20.6299
      vertex 80 -16.2543 19.6481
    endloop
  endfacet
  facet normal 0 0.612886 -0.790172
    outer loop
      vertex 80 -14.9885 20.6299
      vertex 0 -16.2543 19.6481
      vertex 0 -14.9885 20.6299
    endloop
  endfacet
  facet normal 0 0.0313992 -0.999507
    outer loop
      vertex 0 -1.60116 25.4497
      vertex 80 0 25.5
      vertex 80 -1.60116 25.4497
    endloop
  endfacet
  facet normal 0 0.0313992 -0.999507
    outer loop
      vertex 80 0 25.5
      vertex 0 -1.60116 25.4497
      vertex 0 0 25.5
    endloop
  endfacet
  facet normal 0 -0.562126 -0.827052
    outer loop
      vertex 0 13.6636 21.5304
      vertex 80 14.9885 20.6299
      vertex 80 13.6636 21.5304
    endloop
  endfacet
  facet normal -0 -0.562126 -0.827052
    outer loop
      vertex 80 14.9885 20.6299
      vertex 0 13.6636 21.5304
      vertex 0 14.9885 20.6299
    endloop
  endfacet
  facet normal 0 -0.509005 -0.860764
    outer loop
      vertex 0 12.2847 22.3458
      vertex 80 13.6636 21.5304
      vertex 80 12.2847 22.3458
    endloop
  endfacet
  facet normal -0 -0.509005 -0.860764
    outer loop
      vertex 80 13.6636 21.5304
      vertex 0 12.2847 22.3458
      vertex 0 13.6636 21.5304
    endloop
  endfacet
  facet normal 0 -0.218111 -0.975924
    outer loop
      vertex 0 4.77822 25.0483
      vertex 80 6.34159 24.6989
      vertex 80 4.77822 25.0483
    endloop
  endfacet
  facet normal -0 -0.218111 -0.975924
    outer loop
      vertex 80 6.34159 24.6989
      vertex 0 4.77822 25.0483
      vertex 0 6.34159 24.6989
    endloop
  endfacet
  facet normal 0 -0.156435 -0.987688
    outer loop
      vertex 0 3.196 25.2989
      vertex 80 4.77822 25.0483
      vertex 80 3.196 25.2989
    endloop
  endfacet
  facet normal -0 -0.156435 -0.987688
    outer loop
      vertex 80 4.77822 25.0483
      vertex 0 3.196 25.2989
      vertex 0 4.77822 25.0483
    endloop
  endfacet
  facet normal 0 -0.0941351 -0.995559
    outer loop
      vertex 0 1.60116 25.4497
      vertex 80 3.196 25.2989
      vertex 80 1.60116 25.4497
    endloop
  endfacet
  facet normal -0 -0.0941351 -0.995559
    outer loop
      vertex 80 3.196 25.2989
      vertex 0 1.60116 25.4497
      vertex 0 3.196 25.2989
    endloop
  endfacet
  facet normal 0 -0.860764 -0.509005
    outer loop
      vertex 0 22.3458 12.2847
      vertex 80 21.5304 13.6636
      vertex 0 21.5304 13.6636
    endloop
  endfacet
  facet normal 0 -0.860764 -0.509005
    outer loop
      vertex 80 21.5304 13.6636
      vertex 0 22.3458 12.2847
      vertex 80 22.3458 12.2847
    endloop
  endfacet
  facet normal 0 0.827052 -0.562126
    outer loop
      vertex 80 -21.5304 13.6636
      vertex 0 -20.6299 14.9885
      vertex 80 -20.6299 14.9885
    endloop
  endfacet
  facet normal 0 0.827052 -0.562126
    outer loop
      vertex 0 -20.6299 14.9885
      vertex 80 -21.5304 13.6636
      vertex 0 -21.5304 13.6636
    endloop
  endfacet
  facet normal 0 0.860764 -0.509005
    outer loop
      vertex 80 -22.3458 12.2847
      vertex 0 -21.5304 13.6636
      vertex 80 -21.5304 13.6636
    endloop
  endfacet
  facet normal 0 0.860764 -0.509005
    outer loop
      vertex 0 -21.5304 13.6636
      vertex 80 -22.3458 12.2847
      vertex 0 -22.3458 12.2847
    endloop
  endfacet
  facet normal 0 0.917759 -0.397137
    outer loop
      vertex 80 -23.7093 9.38718
      vertex 0 -23.0731 10.8574
      vertex 80 -23.0731 10.8574
    endloop
  endfacet
  facet normal 0 0.917759 -0.397137
    outer loop
      vertex 0 -23.0731 10.8574
      vertex 80 -23.7093 9.38718
      vertex 0 -23.7093 9.38718
    endloop
  endfacet
  facet normal 0 0.454017 -0.890993
    outer loop
      vertex 0 -12.2847 22.3458
      vertex 80 -10.8574 23.0731
      vertex 80 -12.2847 22.3458
    endloop
  endfacet
  facet normal 0 0.454017 -0.890993
    outer loop
      vertex 80 -10.8574 23.0731
      vertex 0 -12.2847 22.3458
      vertex 0 -10.8574 23.0731
    endloop
  endfacet
  facet normal 0 0.562126 -0.827052
    outer loop
      vertex 0 -14.9885 20.6299
      vertex 80 -13.6636 21.5304
      vertex 80 -14.9885 20.6299
    endloop
  endfacet
  facet normal 0 0.562126 -0.827052
    outer loop
      vertex 80 -13.6636 21.5304
      vertex 0 -14.9885 20.6299
      vertex 0 -13.6636 21.5304
    endloop
  endfacet
  facet normal 0 0.218111 -0.975924
    outer loop
      vertex 0 -6.34159 24.6989
      vertex 80 -4.77822 25.0483
      vertex 80 -6.34159 24.6989
    endloop
  endfacet
  facet normal 0 0.218111 -0.975924
    outer loop
      vertex 80 -4.77822 25.0483
      vertex 0 -6.34159 24.6989
      vertex 0 -4.77822 25.0483
    endloop
  endfacet
  facet normal 0 0.279032 -0.960282
    outer loop
      vertex 0 -7.87993 24.2519
      vertex 80 -6.34159 24.6989
      vertex 80 -7.87993 24.2519
    endloop
  endfacet
  facet normal 0 0.279032 -0.960282
    outer loop
      vertex 80 -6.34159 24.6989
      vertex 0 -7.87993 24.2519
      vertex 0 -6.34159 24.6989
    endloop
  endfacet
  facet normal 0 0.156435 -0.987688
    outer loop
      vertex 0 -4.77822 25.0483
      vertex 80 -3.196 25.2989
      vertex 80 -4.77822 25.0483
    endloop
  endfacet
  facet normal 0 0.156435 -0.987688
    outer loop
      vertex 80 -3.196 25.2989
      vertex 0 -4.77822 25.0483
      vertex 0 -3.196 25.2989
    endloop
  endfacet
  facet normal 0 -0.707107 -0.707107
    outer loop
      vertex 0 18.5887 17.456
      vertex 80 17.456 18.5887
      vertex 0 17.456 18.5887
    endloop
  endfacet
  facet normal 0 -0.707107 -0.707107
    outer loop
      vertex 80 17.456 18.5887
      vertex 0 18.5887 17.456
      vertex 80 18.5887 17.456
    endloop
  endfacet
  facet normal 0 -0.397137 -0.917759
    outer loop
      vertex 0 9.38718 23.7093
      vertex 80 10.8574 23.0731
      vertex 80 9.38718 23.7093
    endloop
  endfacet
  facet normal -0 -0.397137 -0.917759
    outer loop
      vertex 80 10.8574 23.0731
      vertex 0 9.38718 23.7093
      vertex 0 10.8574 23.0731
    endloop
  endfacet
  facet normal 0 -0.827052 -0.562126
    outer loop
      vertex 0 21.5304 13.6636
      vertex 80 20.6299 14.9885
      vertex 0 20.6299 14.9885
    endloop
  endfacet
  facet normal 0 -0.827052 -0.562126
    outer loop
      vertex 80 20.6299 14.9885
      vertex 0 21.5304 13.6636
      vertex 80 21.5304 13.6636
    endloop
  endfacet
  facet normal 0 0.707107 -0.707107
    outer loop
      vertex 80 -18.5887 17.456
      vertex 0 -17.456 18.5887
      vertex 80 -17.456 18.5887
    endloop
  endfacet
  facet normal 0 0.707107 -0.707107
    outer loop
      vertex 0 -17.456 18.5887
      vertex 80 -18.5887 17.456
      vertex 0 -18.5887 17.456
    endloop
  endfacet
  facet normal 0 0 -1
    outer loop
      vertex 0 -25.7783 8
      vertex 80 -24.2087 8
      vertex 80 -25.7783 8
    endloop
  endfacet
  facet normal -0 0 -1
    outer loop
      vertex 80 -24.2087 8
      vertex 0 -25.7783 8
      vertex 0 -24.2087 8
    endloop
  endfacet
  facet normal 0 0 -1
    outer loop
      vertex 0 24.2087 8
      vertex 80 25.7783 8
      vertex 80 24.2087 8
    endloop
  endfacet
  facet normal -0 0 -1
    outer loop
      vertex 80 25.7783 8
      vertex 0 24.2087 8
      vertex 0 25.7783 8
    endloop
  endfacet
  facet normal -0 0.0314236 0.999506
    outer loop
      vertex 0 1.69534 26.9467
      vertex 80 0 27
      vertex 80 1.69534 26.9467
    endloop
  endfacet
  facet normal 0 0.0314236 0.999506
    outer loop
      vertex 80 0 27
      vertex 0 1.69534 26.9467
      vertex 0 0 27
    endloop
  endfacet
  facet normal 0 -0.661288 0.750132
    outer loop
      vertex 0 -17.2104 20.8039
      vertex 80 -18.4828 19.6822
      vertex 80 -17.2104 20.8039
    endloop
  endfacet
  facet normal 0 -0.661288 0.750132
    outer loop
      vertex 80 -18.4828 19.6822
      vertex 0 -17.2104 20.8039
      vertex 0 -18.4828 19.6822
    endloop
  endfacet
  facet normal 0 0.750132 0.661288
    outer loop
      vertex 80 20.8039 17.2104
      vertex 0 19.6822 18.4828
      vertex 80 19.6822 18.4828
    endloop
  endfacet
  facet normal 0 0.750132 0.661288
    outer loop
      vertex 0 19.6822 18.4828
      vertex 80 20.8039 17.2104
      vertex 0 20.8039 17.2104
    endloop
  endfacet
  facet normal 0 0.940892 0.338707
    outer loop
      vertex 80 25.6785 8.34346
      vertex 0 25.104 9.93936
      vertex 80 25.104 9.93936
    endloop
  endfacet
  facet normal 0 0.940892 0.338707
    outer loop
      vertex 0 25.104 9.93936
      vertex 80 25.6785 8.34346
      vertex 0 25.6785 8.34346
    endloop
  endfacet
  facet normal 0 -0.338707 0.940892
    outer loop
      vertex 0 -8.34346 25.6785
      vertex 80 -9.93936 25.104
      vertex 80 -8.34346 25.6785
    endloop
  endfacet
  facet normal 0 -0.338707 0.940892
    outer loop
      vertex 80 -9.93936 25.104
      vertex 0 -8.34346 25.6785
      vertex 0 -9.93936 25.104
    endloop
  endfacet
  facet normal -0 0.453969 0.891017
    outer loop
      vertex 0 13.0073 23.6603
      vertex 80 11.496 24.4303
      vertex 80 13.0073 23.6603
    endloop
  endfacet
  facet normal 0 0.453969 0.891017
    outer loop
      vertex 80 11.496 24.4303
      vertex 0 13.0073 23.6603
      vertex 0 11.496 24.4303
    endloop
  endfacet
  facet normal 0 -0.891017 0.453969
    outer loop
      vertex 0 -24.4303 11.496
      vertex 80 -23.6603 13.0073
      vertex 0 -23.6603 13.0073
    endloop
  endfacet
  facet normal 0 -0.891017 0.453969
    outer loop
      vertex 80 -23.6603 13.0073
      vertex 0 -24.4303 11.496
      vertex 80 -24.4303 11.496
    endloop
  endfacet
  facet normal 0 -0.156412 0.987692
    outer loop
      vertex 0 -3.384 26.7871
      vertex 80 -5.05929 26.5218
      vertex 80 -3.384 26.7871
    endloop
  endfacet
  facet normal 0 -0.156412 0.987692
    outer loop
      vertex 80 -5.05929 26.5218
      vertex 0 -3.384 26.7871
      vertex 0 -5.05929 26.5218
    endloop
  endfacet
  facet normal -0 0.278981 0.960297
    outer loop
      vertex 0 8.34346 25.6785
      vertex 80 6.71463 26.1517
      vertex 80 8.34346 25.6785
    endloop
  endfacet
  facet normal 0 0.278981 0.960297
    outer loop
      vertex 80 6.71463 26.1517
      vertex 0 8.34346 25.6785
      vertex 0 6.71463 26.1517
    endloop
  endfacet
  facet normal -0 0.61292 0.790145
    outer loop
      vertex 0 17.2104 20.8039
      vertex 80 15.8702 21.8435
      vertex 80 17.2104 20.8039
    endloop
  endfacet
  facet normal 0 0.61292 0.790145
    outer loop
      vertex 80 15.8702 21.8435
      vertex 0 17.2104 20.8039
      vertex 0 15.8702 21.8435
    endloop
  endfacet
  facet normal 0 0.860753 0.509023
    outer loop
      vertex 80 23.6603 13.0073
      vertex 0 22.7969 14.4673
      vertex 80 22.7969 14.4673
    endloop
  endfacet
  facet normal 0 0.860753 0.509023
    outer loop
      vertex 0 22.7969 14.4673
      vertex 80 23.6603 13.0073
      vertex 0 23.6603 13.0073
    endloop
  endfacet
  facet normal -1 0 0
    outer loop
      vertex 0 24.2087 8
      vertex 0 25.6785 8.34346
      vertex 0 25.7783 8
    endloop
  endfacet
  facet normal -1 -0 0
    outer loop
      vertex 0 25.6785 8.34346
      vertex 0 24.2087 8
      vertex 0 25.104 9.93936
    endloop
  endfacet
  facet normal -1 0 0
    outer loop
      vertex 0 25.104 9.93936
      vertex 0 24.2087 8
      vertex 0 23.7093 9.38718
    endloop
  endfacet
  facet normal -1 -0 0
    outer loop
      vertex 0 25.104 9.93936
      vertex 0 23.7093 9.38718
      vertex 0 24.4303 11.496
    endloop
  endfacet
  facet normal -1 0 0
    outer loop
      vertex 0 23.0731 10.8574
      vertex 0 24.4303 11.496
      vertex 0 23.7093 9.38718
    endloop
  endfacet
  facet normal -1 -0 0
    outer loop
      vertex 0 24.4303 11.496
      vertex 0 23.0731 10.8574
      vertex 0 23.6603 13.0073
    endloop
  endfacet
  facet normal -1 0 0
    outer loop
      vertex 0 22.3458 12.2847
      vertex 0 23.6603 13.0073
      vertex 0 23.0731 10.8574
    endloop
  endfacet
  facet normal -1 -0 0
    outer loop
      vertex 0 23.6603 13.0073
      vertex 0 22.3458 12.2847
      vertex 0 22.7969 14.4673
    endloop
  endfacet
  facet normal -1 0 0
    outer loop
      vertex 0 21.5304 13.6636
      vertex 0 22.7969 14.4673
      vertex 0 22.3458 12.2847
    endloop
  endfacet
  facet normal -1 -0 0
    outer loop
      vertex 0 22.7969 14.4673
      vertex 0 21.5304 13.6636
      vertex 0 21.8435 15.8702
    endloop
  endfacet
  facet normal -1 0 0
    outer loop
      vertex 0 20.6299 14.9885
      vertex 0 21.8435 15.8702
      vertex 0 21.5304 13.6636
    endloop
  endfacet
  facet normal -1 -0 0
    outer loop
      vertex 0 21.8435 15.8702
      vertex 0 20.6299 14.9885
      vertex 0 20.8039 17.2104
    endloop
  endfacet
  facet normal -1 0 0
    outer loop
      vertex 0 19.6481 16.2543
      vertex 0 20.8039 17.2104
      vertex 0 20.6299 14.9885
    endloop
  endfacet
  facet normal -1 -0 0
    outer loop
      vertex 0 20.8039 17.2104
      vertex 0 19.6481 16.2543
      vertex 0 19.6822 18.4828
    endloop
  endfacet
  facet normal -1 0 0
    outer loop
      vertex 0 18.5887 17.456
      vertex 0 19.6822 18.4828
      vertex 0 19.6481 16.2543
    endloop
  endfacet
  facet normal -1 0 0
    outer loop
      vertex 0 18.5887 17.456
      vertex 0 18.4828 19.6822
      vertex 0 19.6822 18.4828
    endloop
  endfacet
  facet normal -1 0 0
    outer loop
      vertex 0 17.456 18.5887
      vertex 0 18.4828 19.6822
      vertex 0 18.5887 17.456
    endloop
  endfacet
  facet normal -1 0 0
    outer loop
      vertex 0 17.456 18.5887
      vertex 0 17.2104 20.8039
      vertex 0 18.4828 19.6822
    endloop
  endfacet
  facet normal -1 0 0
    outer loop
      vertex 0 16.2543 19.6481
      vertex 0 17.2104 20.8039
      vertex 0 17.456 18.5887
    endloop
  endfacet
  facet normal -1 0 0
    outer loop
      vertex 0 16.2543 19.6481
      vertex 0 15.8702 21.8435
      vertex 0 17.2104 20.8039
    endloop
  endfacet
  facet normal -1 0 0
    outer loop
      vertex 0 14.9885 20.6299
      vertex 0 15.8702 21.8435
      vertex 0 16.2543 19.6481
    endloop
  endfacet
  facet normal -1 0 0
    outer loop
      vertex 0 14.9885 20.6299
      vertex 0 14.4673 22.7969
      vertex 0 15.8702 21.8435
    endloop
  endfacet
  facet normal -1 0 0
    outer loop
      vertex 0 13.6636 21.5304
      vertex 0 14.4673 22.7969
      vertex 0 14.9885 20.6299
    endloop
  endfacet
  facet normal -1 0 0
    outer loop
      vertex 0 13.6636 21.5304
      vertex 0 13.0073 23.6603
      vertex 0 14.4673 22.7969
    endloop
  endfacet
  facet normal -1 0 0
    outer loop
      vertex 0 12.2847 22.3458
      vertex 0 13.0073 23.6603
      vertex 0 13.6636 21.5304
    endloop
  endfacet
  facet normal -1 0 0
    outer loop
      vertex 0 12.2847 22.3458
      vertex 0 11.496 24.4303
      vertex 0 13.0073 23.6603
    endloop
  endfacet
  facet normal -1 0 0
    outer loop
      vertex 0 10.8574 23.0731
      vertex 0 11.496 24.4303
      vertex 0 12.2847 22.3458
    endloop
  endfacet
  facet normal -1 0 0
    outer loop
      vertex 0 10.8574 23.0731
      vertex 0 9.93936 25.104
      vertex 0 11.496 24.4303
    endloop
  endfacet
  facet normal -1 0 0
    outer loop
      vertex 0 9.38718 23.7093
      vertex 0 9.93936 25.104
      vertex 0 10.8574 23.0731
    endloop
  endfacet
  facet normal -1 0 0
    outer loop
      vertex 0 9.38718 23.7093
      vertex 0 8.34346 25.6785
      vertex 0 9.93936 25.104
    endloop
  endfacet
  facet normal -1 0 0
    outer loop
      vertex 0 7.87993 24.2519
      vertex 0 8.34346 25.6785
      vertex 0 9.38718 23.7093
    endloop
  endfacet
  facet normal -1 0 0
    outer loop
      vertex 0 7.87993 24.2519
      vertex 0 6.71463 26.1517
      vertex 0 8.34346 25.6785
    endloop
  endfacet
  facet normal -1 0 0
    outer loop
      vertex 0 6.34159 24.6989
      vertex 0 6.71463 26.1517
      vertex 0 7.87993 24.2519
    endloop
  endfacet
  facet normal -1 0 0
    outer loop
      vertex 0 6.34159 24.6989
      vertex 0 5.05929 26.5218
      vertex 0 6.71463 26.1517
    endloop
  endfacet
  facet normal -1 0 0
    outer loop
      vertex 0 4.77822 25.0483
      vertex 0 5.05929 26.5218
      vertex 0 6.34159 24.6989
    endloop
  endfacet
  facet normal -1 0 0
    outer loop
      vertex 0 4.77822 25.0483
      vertex 0 3.384 26.7871
      vertex 0 5.05929 26.5218
    endloop
  endfacet
  facet normal -1 0 0
    outer loop
      vertex 0 3.196 25.2989
      vertex 0 3.384 26.7871
      vertex 0 4.77822 25.0483
    endloop
  endfacet
  facet normal -1 0 0
    outer loop
      vertex 0 3.196 25.2989
      vertex 0 1.69534 26.9467
      vertex 0 3.384 26.7871
    endloop
  endfacet
  facet normal -1 0 0
    outer loop
      vertex 0 1.60116 25.4497
      vertex 0 1.69534 26.9467
      vertex 0 3.196 25.2989
    endloop
  endfacet
  facet normal -1 0 0
    outer loop
      vertex 0 0 25.5
      vertex 0 1.69534 26.9467
      vertex 0 1.60116 25.4497
    endloop
  endfacet
  facet normal -1 0 0
    outer loop
      vertex 0 0 25.5
      vertex 0 0 27
      vertex 0 1.69534 26.9467
    endloop
  endfacet
  facet normal -1 0 0
    outer loop
      vertex 0 -1.60116 25.4497
      vertex 0 0 27
      vertex 0 0 25.5
    endloop
  endfacet
  facet normal -1 0 0
    outer loop
      vertex 0 -1.60116 25.4497
      vertex 0 -1.69534 26.9467
      vertex 0 0 27
    endloop
  endfacet
  facet normal -1 0 0
    outer loop
      vertex 0 -3.196 25.2989
      vertex 0 -1.69534 26.9467
      vertex 0 -1.60116 25.4497
    endloop
  endfacet
  facet normal -1 0 0
    outer loop
      vertex 0 -3.196 25.2989
      vertex 0 -3.384 26.7871
      vertex 0 -1.69534 26.9467
    endloop
  endfacet
  facet normal -1 0 0
    outer loop
      vertex 0 -4.77822 25.0483
      vertex 0 -3.384 26.7871
      vertex 0 -3.196 25.2989
    endloop
  endfacet
  facet normal -1 0 0
    outer loop
      vertex 0 -4.77822 25.0483
      vertex 0 -5.05929 26.5218
      vertex 0 -3.384 26.7871
    endloop
  endfacet
  facet normal -1 0 0
    outer loop
      vertex 0 -6.34159 24.6989
      vertex 0 -5.05929 26.5218
      vertex 0 -4.77822 25.0483
    endloop
  endfacet
  facet normal -1 0 0
    outer loop
      vertex 0 -6.34159 24.6989
      vertex 0 -6.71463 26.1517
      vertex 0 -5.05929 26.5218
    endloop
  endfacet
  facet normal -1 0 0
    outer loop
      vertex 0 -7.87993 24.2519
      vertex 0 -6.71463 26.1517
      vertex 0 -6.34159 24.6989
    endloop
  endfacet
  facet normal -1 0 0
    outer loop
      vertex 0 -7.87993 24.2519
      vertex 0 -8.34346 25.6785
      vertex 0 -6.71463 26.1517
    endloop
  endfacet
  facet normal -1 0 0
    outer loop
      vertex 0 -9.38718 23.7093
      vertex 0 -8.34346 25.6785
      vertex 0 -7.87993 24.2519
    endloop
  endfacet
  facet normal -1 0 0
    outer loop
      vertex 0 -9.38718 23.7093
      vertex 0 -9.93936 25.104
      vertex 0 -8.34346 25.6785
    endloop
  endfacet
  facet normal -1 0 0
    outer loop
      vertex 0 -10.8574 23.0731
      vertex 0 -9.93936 25.104
      vertex 0 -9.38718 23.7093
    endloop
  endfacet
  facet normal -1 0 0
    outer loop
      vertex 0 -10.8574 23.0731
      vertex 0 -11.496 24.4303
      vertex 0 -9.93936 25.104
    endloop
  endfacet
  facet normal -1 0 0
    outer loop
      vertex 0 -12.2847 22.3458
      vertex 0 -11.496 24.4303
      vertex 0 -10.8574 23.0731
    endloop
  endfacet
  facet normal -1 0 0
    outer loop
      vertex 0 -12.2847 22.3458
      vertex 0 -13.0073 23.6603
      vertex 0 -11.496 24.4303
    endloop
  endfacet
  facet normal -1 0 0
    outer loop
      vertex 0 -13.6636 21.5304
      vertex 0 -13.0073 23.6603
      vertex 0 -12.2847 22.3458
    endloop
  endfacet
  facet normal -1 0 0
    outer loop
      vertex 0 -13.6636 21.5304
      vertex 0 -14.4673 22.7969
      vertex 0 -13.0073 23.6603
    endloop
  endfacet
  facet normal -1 0 0
    outer loop
      vertex 0 -14.9885 20.6299
      vertex 0 -14.4673 22.7969
      vertex 0 -13.6636 21.5304
    endloop
  endfacet
  facet normal -1 0 0
    outer loop
      vertex 0 -14.9885 20.6299
      vertex 0 -15.8702 21.8435
      vertex 0 -14.4673 22.7969
    endloop
  endfacet
  facet normal -1 0 0
    outer loop
      vertex 0 -16.2543 19.6481
      vertex 0 -15.8702 21.8435
      vertex 0 -14.9885 20.6299
    endloop
  endfacet
  facet normal -1 0 0
    outer loop
      vertex 0 -16.2543 19.6481
      vertex 0 -17.2104 20.8039
      vertex 0 -15.8702 21.8435
    endloop
  endfacet
  facet normal -1 0 0
    outer loop
      vertex 0 -17.456 18.5887
      vertex 0 -17.2104 20.8039
      vertex 0 -16.2543 19.6481
    endloop
  endfacet
  facet normal -1 0 0
    outer loop
      vertex 0 -17.456 18.5887
      vertex 0 -18.4828 19.6822
      vertex 0 -17.2104 20.8039
    endloop
  endfacet
  facet normal -1 0 0
    outer loop
      vertex 0 -18.5887 17.456
      vertex 0 -18.4828 19.6822
      vertex 0 -17.456 18.5887
    endloop
  endfacet
  facet normal -1 0 0
    outer loop
      vertex 0 -19.6822 18.4828
      vertex 0 -18.5887 17.456
      vertex 0 -19.6481 16.2543
    endloop
  endfacet
  facet normal -1 0 0
    outer loop
      vertex 0 -18.5887 17.456
      vertex 0 -19.6822 18.4828
      vertex 0 -18.4828 19.6822
    endloop
  endfacet
  facet normal -1 0 0
    outer loop
      vertex 0 -20.8039 17.2104
      vertex 0 -19.6481 16.2543
      vertex 0 -20.6299 14.9885
    endloop
  endfacet
  facet normal -1 0 0
    outer loop
      vertex 0 -19.6481 16.2543
      vertex 0 -20.8039 17.2104
      vertex 0 -19.6822 18.4828
    endloop
  endfacet
  facet normal -1 0 0
    outer loop
      vertex 0 -21.8435 15.8702
      vertex 0 -20.6299 14.9885
      vertex 0 -21.5304 13.6636
    endloop
  endfacet
  facet normal -1 0 0
    outer loop
      vertex 0 -20.6299 14.9885
      vertex 0 -21.8435 15.8702
      vertex 0 -20.8039 17.2104
    endloop
  endfacet
  facet normal -1 0 0
    outer loop
      vertex 0 -22.7969 14.4673
      vertex 0 -21.5304 13.6636
      vertex 0 -22.3458 12.2847
    endloop
  endfacet
  facet normal -1 0 0
    outer loop
      vertex 0 -21.5304 13.6636
      vertex 0 -22.7969 14.4673
      vertex 0 -21.8435 15.8702
    endloop
  endfacet
  facet normal -1 0 0
    outer loop
      vertex 0 -23.6603 13.0073
      vertex 0 -22.3458 12.2847
      vertex 0 -23.0731 10.8574
    endloop
  endfacet
  facet normal -1 0 0
    outer loop
      vertex 0 -22.3458 12.2847
      vertex 0 -23.6603 13.0073
      vertex 0 -22.7969 14.4673
    endloop
  endfacet
  facet normal -1 0 0
    outer loop
      vertex 0 -24.4303 11.496
      vertex 0 -23.0731 10.8574
      vertex 0 -23.7093 9.38718
    endloop
  endfacet
  facet normal -1 0 0
    outer loop
      vertex 0 -25.104 9.93936
      vertex 0 -23.7093 9.38718
      vertex 0 -24.2087 8
    endloop
  endfacet
  facet normal -1 0 0
    outer loop
      vertex 0 -23.0731 10.8574
      vertex 0 -24.4303 11.496
      vertex 0 -23.6603 13.0073
    endloop
  endfacet
  facet normal -1 0 0
    outer loop
      vertex 0 -23.7093 9.38718
      vertex 0 -25.104 9.93936
      vertex 0 -24.4303 11.496
    endloop
  endfacet
  facet normal -1 0 0
    outer loop
      vertex 0 -24.2087 8
      vertex 0 -25.6785 8.34346
      vertex 0 -25.104 9.93936
    endloop
  endfacet
  facet normal -1 0 -0
    outer loop
      vertex 0 -25.6785 8.34346
      vertex 0 -24.2087 8
      vertex 0 -25.7783 8
    endloop
  endfacet
  facet normal 0 -0.960282 0.279031
    outer loop
      vertex 0 -25.7783 8
      vertex 80 -25.6785 8.34346
      vertex 0 -25.6785 8.34346
    endloop
  endfacet
  facet normal 0 -0.960282 0.279031
    outer loop
      vertex 80 -25.6785 8.34346
      vertex 0 -25.7783 8
      vertex 80 -25.7783 8
    endloop
  endfacet
  facet normal 0 -0.790145 0.61292
    outer loop
      vertex 0 -21.8435 15.8702
      vertex 80 -20.8039 17.2104
      vertex 0 -20.8039 17.2104
    endloop
  endfacet
  facet normal 0 -0.790145 0.61292
    outer loop
      vertex 80 -20.8039 17.2104
      vertex 0 -21.8435 15.8702
      vertex 80 -21.8435 15.8702
    endloop
  endfacet
  facet normal 0 -0.509023 0.860753
    outer loop
      vertex 0 -13.0073 23.6603
      vertex 80 -14.4673 22.7969
      vertex 80 -13.0073 23.6603
    endloop
  endfacet
  facet normal 0 -0.509023 0.860753
    outer loop
      vertex 80 -14.4673 22.7969
      vertex 0 -13.0073 23.6603
      vertex 0 -14.4673 22.7969
    endloop
  endfacet
  facet normal 0 -0.453969 0.891017
    outer loop
      vertex 0 -11.496 24.4303
      vertex 80 -13.0073 23.6603
      vertex 80 -11.496 24.4303
    endloop
  endfacet
  facet normal 0 -0.453969 0.891017
    outer loop
      vertex 80 -13.0073 23.6603
      vertex 0 -11.496 24.4303
      vertex 0 -13.0073 23.6603
    endloop
  endfacet
  facet normal 0 -0.61292 0.790145
    outer loop
      vertex 0 -15.8702 21.8435
      vertex 80 -17.2104 20.8039
      vertex 80 -15.8702 21.8435
    endloop
  endfacet
  facet normal 0 -0.61292 0.790145
    outer loop
      vertex 80 -17.2104 20.8039
      vertex 0 -15.8702 21.8435
      vertex 0 -17.2104 20.8039
    endloop
  endfacet
  facet normal 0 -0.278981 0.960297
    outer loop
      vertex 0 -6.71463 26.1517
      vertex 80 -8.34346 25.6785
      vertex 80 -6.71463 26.1517
    endloop
  endfacet
  facet normal 0 -0.278981 0.960297
    outer loop
      vertex 80 -8.34346 25.6785
      vertex 0 -6.71463 26.1517
      vertex 0 -8.34346 25.6785
    endloop
  endfacet
  facet normal 0 -0.0314236 0.999506
    outer loop
      vertex 0 0 27
      vertex 80 -1.69534 26.9467
      vertex 80 0 27
    endloop
  endfacet
  facet normal 0 -0.0314236 0.999506
    outer loop
      vertex 80 -1.69534 26.9467
      vertex 0 0 27
      vertex 0 -1.69534 26.9467
    endloop
  endfacet
  facet normal -0 0.156412 0.987692
    outer loop
      vertex 0 5.05929 26.5218
      vertex 80 3.384 26.7871
      vertex 80 5.05929 26.5218
    endloop
  endfacet
  facet normal 0 0.156412 0.987692
    outer loop
      vertex 80 3.384 26.7871
      vertex 0 5.05929 26.5218
      vertex 0 3.384 26.7871
    endloop
  endfacet
  facet normal -0 0.661288 0.750132
    outer loop
      vertex 0 18.4828 19.6822
      vertex 80 17.2104 20.8039
      vertex 80 18.4828 19.6822
    endloop
  endfacet
  facet normal 0 0.661288 0.750132
    outer loop
      vertex 80 17.2104 20.8039
      vertex 0 18.4828 19.6822
      vertex 0 17.2104 20.8039
    endloop
  endfacet
  facet normal 0 0.707107 0.707107
    outer loop
      vertex 80 19.6822 18.4828
      vertex 0 18.4828 19.6822
      vertex 80 18.4828 19.6822
    endloop
  endfacet
  facet normal 0 0.707107 0.707107
    outer loop
      vertex 0 18.4828 19.6822
      vertex 80 19.6822 18.4828
      vertex 0 19.6822 18.4828
    endloop
  endfacet
  facet normal -0 0.509023 0.860753
    outer loop
      vertex 0 14.4673 22.7969
      vertex 80 13.0073 23.6603
      vertex 80 14.4673 22.7969
    endloop
  endfacet
  facet normal 0 0.509023 0.860753
    outer loop
      vertex 80 13.0073 23.6603
      vertex 0 14.4673 22.7969
      vertex 0 13.0073 23.6603
    endloop
  endfacet
  facet normal -0 0.562079 0.827083
    outer loop
      vertex 0 15.8702 21.8435
      vertex 80 14.4673 22.7969
      vertex 80 15.8702 21.8435
    endloop
  endfacet
  facet normal 0 0.562079 0.827083
    outer loop
      vertex 80 14.4673 22.7969
      vertex 0 15.8702 21.8435
      vertex 0 14.4673 22.7969
    endloop
  endfacet
  facet normal -0 0.338707 0.940892
    outer loop
      vertex 0 9.93936 25.104
      vertex 80 8.34346 25.6785
      vertex 80 9.93936 25.104
    endloop
  endfacet
  facet normal 0 0.338707 0.940892
    outer loop
      vertex 80 8.34346 25.6785
      vertex 0 9.93936 25.104
      vertex 0 8.34346 25.6785
    endloop
  endfacet
  facet normal -0 0.397188 0.917737
    outer loop
      vertex 0 11.496 24.4303
      vertex 80 9.93936 25.104
      vertex 80 11.496 24.4303
    endloop
  endfacet
  facet normal 0 0.397188 0.917737
    outer loop
      vertex 80 9.93936 25.104
      vertex 0 11.496 24.4303
      vertex 0 9.93936 25.104
    endloop
  endfacet
  facet normal -0 0.218192 0.975906
    outer loop
      vertex 0 6.71463 26.1517
      vertex 80 5.05929 26.5218
      vertex 80 6.71463 26.1517
    endloop
  endfacet
  facet normal 0 0.218192 0.975906
    outer loop
      vertex 80 5.05929 26.5218
      vertex 0 6.71463 26.1517
      vertex 0 5.05929 26.5218
    endloop
  endfacet
  facet normal -0 0.0940935 0.995563
    outer loop
      vertex 0 3.384 26.7871
      vertex 80 1.69534 26.9467
      vertex 80 3.384 26.7871
    endloop
  endfacet
  facet normal 0 0.0940935 0.995563
    outer loop
      vertex 80 1.69534 26.9467
      vertex 0 3.384 26.7871
      vertex 0 1.69534 26.9467
    endloop
  endfacet
  facet normal 0 0.891017 0.453969
    outer loop
      vertex 80 24.4303 11.496
      vertex 0 23.6603 13.0073
      vertex 80 23.6603 13.0073
    endloop
  endfacet
  facet normal 0 0.891017 0.453969
    outer loop
      vertex 0 23.6603 13.0073
      vertex 80 24.4303 11.496
      vertex 0 24.4303 11.496
    endloop
  endfacet
  facet normal 0 0.917737 0.397188
    outer loop
      vertex 80 25.104 9.93936
      vertex 0 24.4303 11.496
      vertex 80 24.4303 11.496
    endloop
  endfacet
  facet normal 0 0.917737 0.397188
    outer loop
      vertex 0 24.4303 11.496
      vertex 80 25.104 9.93936
      vertex 0 25.104 9.93936
    endloop
  endfacet
  facet normal 0 0.827083 0.562079
    outer loop
      vertex 80 22.7969 14.4673
      vertex 0 21.8435 15.8702
      vertex 80 21.8435 15.8702
    endloop
  endfacet
  facet normal 0 0.827083 0.562079
    outer loop
      vertex 0 21.8435 15.8702
      vertex 80 22.7969 14.4673
      vertex 0 22.7969 14.4673
    endloop
  endfacet
  facet normal 0 0.790145 0.61292
    outer loop
      vertex 80 21.8435 15.8702
      vertex 0 20.8039 17.2104
      vertex 80 20.8039 17.2104
    endloop
  endfacet
  facet normal 0 0.790145 0.61292
    outer loop
      vertex 0 20.8039 17.2104
      vertex 80 21.8435 15.8702
      vertex 0 21.8435 15.8702
    endloop
  endfacet
  facet normal 0 0.960282 0.279031
    outer loop
      vertex 80 25.7783 8
      vertex 0 25.6785 8.34346
      vertex 80 25.6785 8.34346
    endloop
  endfacet
  facet normal 0 0.960282 0.279031
    outer loop
      vertex 0 25.6785 8.34346
      vertex 80 25.7783 8
      vertex 0 25.7783 8
    endloop
  endfacet
  facet normal 0 -0.750132 0.661288
    outer loop
      vertex 0 -20.8039 17.2104
      vertex 80 -19.6822 18.4828
      vertex 0 -19.6822 18.4828
    endloop
  endfacet
  facet normal 0 -0.750132 0.661288
    outer loop
      vertex 80 -19.6822 18.4828
      vertex 0 -20.8039 17.2104
      vertex 80 -20.8039 17.2104
    endloop
  endfacet
  facet normal 0 -0.707107 0.707107
    outer loop
      vertex 0 -19.6822 18.4828
      vertex 80 -18.4828 19.6822
      vertex 0 -18.4828 19.6822
    endloop
  endfacet
  facet normal 0 -0.707107 0.707107
    outer loop
      vertex 80 -18.4828 19.6822
      vertex 0 -19.6822 18.4828
      vertex 80 -19.6822 18.4828
    endloop
  endfacet
  facet normal 0 -0.860753 0.509023
    outer loop
      vertex 0 -23.6603 13.0073
      vertex 80 -22.7969 14.4673
      vertex 0 -22.7969 14.4673
    endloop
  endfacet
  facet normal 0 -0.860753 0.509023
    outer loop
      vertex 80 -22.7969 14.4673
      vertex 0 -23.6603 13.0073
      vertex 80 -23.6603 13.0073
    endloop
  endfacet
  facet normal 0 -0.827083 0.562079
    outer loop
      vertex 0 -22.7969 14.4673
      vertex 80 -21.8435 15.8702
      vertex 0 -21.8435 15.8702
    endloop
  endfacet
  facet normal 0 -0.827083 0.562079
    outer loop
      vertex 80 -21.8435 15.8702
      vertex 0 -22.7969 14.4673
      vertex 80 -22.7969 14.4673
    endloop
  endfacet
  facet normal 0 -0.940892 0.338707
    outer loop
      vertex 0 -25.6785 8.34346
      vertex 80 -25.104 9.93936
      vertex 0 -25.104 9.93936
    endloop
  endfacet
  facet normal 0 -0.940892 0.338707
    outer loop
      vertex 80 -25.104 9.93936
      vertex 0 -25.6785 8.34346
      vertex 80 -25.6785 8.34346
    endloop
  endfacet
  facet normal 0 -0.917737 0.397188
    outer loop
      vertex 0 -25.104 9.93936
      vertex 80 -24.4303 11.496
      vertex 0 -24.4303 11.496
    endloop
  endfacet
  facet normal 0 -0.917737 0.397188
    outer loop
      vertex 80 -24.4303 11.496
      vertex 0 -25.104 9.93936
      vertex 80 -25.104 9.93936
    endloop
  endfacet
  facet normal 1 0 0
    outer loop
      vertex 80 24.2087 8
      vertex 80 25.6785 8.34346
      vertex 80 25.104 9.93936
    endloop
  endfacet
  facet normal 1 0 0
    outer loop
      vertex 80 23.7093 9.38718
      vertex 80 25.104 9.93936
      vertex 80 24.4303 11.496
    endloop
  endfacet
  facet normal 1 0 -0
    outer loop
      vertex 80 24.2087 8
      vertex 80 25.104 9.93936
      vertex 80 23.7093 9.38718
    endloop
  endfacet
  facet normal 1 0 0
    outer loop
      vertex 80 25.6785 8.34346
      vertex 80 24.2087 8
      vertex 80 25.7783 8
    endloop
  endfacet
  facet normal 1 0 0
    outer loop
      vertex 80 23.0731 10.8574
      vertex 80 24.4303 11.496
      vertex 80 23.6603 13.0073
    endloop
  endfacet
  facet normal 1 0 0
    outer loop
      vertex 80 24.4303 11.496
      vertex 80 23.0731 10.8574
      vertex 80 23.7093 9.38718
    endloop
  endfacet
  facet normal 1 0 0
    outer loop
      vertex 80 22.3458 12.2847
      vertex 80 23.6603 13.0073
      vertex 80 22.7969 14.4673
    endloop
  endfacet
  facet normal 1 0 0
    outer loop
      vertex 80 23.6603 13.0073
      vertex 80 22.3458 12.2847
      vertex 80 23.0731 10.8574
    endloop
  endfacet
  facet normal 1 0 0
    outer loop
      vertex 80 21.5304 13.6636
      vertex 80 22.7969 14.4673
      vertex 80 21.8435 15.8702
    endloop
  endfacet
  facet normal 1 0 0
    outer loop
      vertex 80 22.7969 14.4673
      vertex 80 21.5304 13.6636
      vertex 80 22.3458 12.2847
    endloop
  endfacet
  facet normal 1 0 0
    outer loop
      vertex 80 20.6299 14.9885
      vertex 80 21.8435 15.8702
      vertex 80 20.8039 17.2104
    endloop
  endfacet
  facet normal 1 0 0
    outer loop
      vertex 80 21.8435 15.8702
      vertex 80 20.6299 14.9885
      vertex 80 21.5304 13.6636
    endloop
  endfacet
  facet normal 1 0 0
    outer loop
      vertex 80 19.6481 16.2543
      vertex 80 20.8039 17.2104
      vertex 80 19.6822 18.4828
    endloop
  endfacet
  facet normal 1 0 0
    outer loop
      vertex 80 20.8039 17.2104
      vertex 80 19.6481 16.2543
      vertex 80 20.6299 14.9885
    endloop
  endfacet
  facet normal 1 0 0
    outer loop
      vertex 80 19.6822 18.4828
      vertex 80 18.5887 17.456
      vertex 80 19.6481 16.2543
    endloop
  endfacet
  facet normal 1 0 0
    outer loop
      vertex 80 18.4828 19.6822
      vertex 80 18.5887 17.456
      vertex 80 19.6822 18.4828
    endloop
  endfacet
  facet normal 1 0 0
    outer loop
      vertex 80 18.4828 19.6822
      vertex 80 17.456 18.5887
      vertex 80 18.5887 17.456
    endloop
  endfacet
  facet normal 1 0 0
    outer loop
      vertex 80 17.2104 20.8039
      vertex 80 17.456 18.5887
      vertex 80 18.4828 19.6822
    endloop
  endfacet
  facet normal 1 0 0
    outer loop
      vertex 80 17.2104 20.8039
      vertex 80 16.2543 19.6481
      vertex 80 17.456 18.5887
    endloop
  endfacet
  facet normal 1 0 0
    outer loop
      vertex 80 15.8702 21.8435
      vertex 80 16.2543 19.6481
      vertex 80 17.2104 20.8039
    endloop
  endfacet
  facet normal 1 0 0
    outer loop
      vertex 80 15.8702 21.8435
      vertex 80 14.9885 20.6299
      vertex 80 16.2543 19.6481
    endloop
  endfacet
  facet normal 1 0 0
    outer loop
      vertex 80 14.4673 22.7969
      vertex 80 14.9885 20.6299
      vertex 80 15.8702 21.8435
    endloop
  endfacet
  facet normal 1 0 0
    outer loop
      vertex 80 14.4673 22.7969
      vertex 80 13.6636 21.5304
      vertex 80 14.9885 20.6299
    endloop
  endfacet
  facet normal 1 0 0
    outer loop
      vertex 80 13.0073 23.6603
      vertex 80 13.6636 21.5304
      vertex 80 14.4673 22.7969
    endloop
  endfacet
  facet normal 1 0 0
    outer loop
      vertex 80 13.0073 23.6603
      vertex 80 12.2847 22.3458
      vertex 80 13.6636 21.5304
    endloop
  endfacet
  facet normal 1 0 0
    outer loop
      vertex 80 11.496 24.4303
      vertex 80 12.2847 22.3458
      vertex 80 13.0073 23.6603
    endloop
  endfacet
  facet normal 1 0 0
    outer loop
      vertex 80 11.496 24.4303
      vertex 80 10.8574 23.0731
      vertex 80 12.2847 22.3458
    endloop
  endfacet
  facet normal 1 0 0
    outer loop
      vertex 80 9.93936 25.104
      vertex 80 10.8574 23.0731
      vertex 80 11.496 24.4303
    endloop
  endfacet
  facet normal 1 0 0
    outer loop
      vertex 80 9.93936 25.104
      vertex 80 9.38718 23.7093
      vertex 80 10.8574 23.0731
    endloop
  endfacet
  facet normal 1 0 0
    outer loop
      vertex 80 8.34346 25.6785
      vertex 80 9.38718 23.7093
      vertex 80 9.93936 25.104
    endloop
  endfacet
  facet normal 1 0 0
    outer loop
      vertex 80 8.34346 25.6785
      vertex 80 7.87993 24.2519
      vertex 80 9.38718 23.7093
    endloop
  endfacet
  facet normal 1 0 0
    outer loop
      vertex 80 6.71463 26.1517
      vertex 80 7.87993 24.2519
      vertex 80 8.34346 25.6785
    endloop
  endfacet
  facet normal 1 0 0
    outer loop
      vertex 80 6.71463 26.1517
      vertex 80 6.34159 24.6989
      vertex 80 7.87993 24.2519
    endloop
  endfacet
  facet normal 1 0 0
    outer loop
      vertex 80 5.05929 26.5218
      vertex 80 6.34159 24.6989
      vertex 80 6.71463 26.1517
    endloop
  endfacet
  facet normal 1 0 0
    outer loop
      vertex 80 5.05929 26.5218
      vertex 80 4.77822 25.0483
      vertex 80 6.34159 24.6989
    endloop
  endfacet
  facet normal 1 0 0
    outer loop
      vertex 80 3.384 26.7871
      vertex 80 4.77822 25.0483
      vertex 80 5.05929 26.5218
    endloop
  endfacet
  facet normal 1 0 0
    outer loop
      vertex 80 3.384 26.7871
      vertex 80 3.196 25.2989
      vertex 80 4.77822 25.0483
    endloop
  endfacet
  facet normal 1 0 0
    outer loop
      vertex 80 1.69534 26.9467
      vertex 80 3.196 25.2989
      vertex 80 3.384 26.7871
    endloop
  endfacet
  facet normal 1 0 0
    outer loop
      vertex 80 1.69534 26.9467
      vertex 80 1.60116 25.4497
      vertex 80 3.196 25.2989
    endloop
  endfacet
  facet normal 1 0 0
    outer loop
      vertex 80 0 27
      vertex 80 1.60116 25.4497
      vertex 80 1.69534 26.9467
    endloop
  endfacet
  facet normal 1 0 0
    outer loop
      vertex 80 0 27
      vertex 80 0 25.5
      vertex 80 1.60116 25.4497
    endloop
  endfacet
  facet normal 1 0 0
    outer loop
      vertex 80 0 27
      vertex 80 -1.60116 25.4497
      vertex 80 0 25.5
    endloop
  endfacet
  facet normal 1 -0 0
    outer loop
      vertex 80 -1.69534 26.9467
      vertex 80 -1.60116 25.4497
      vertex 80 0 27
    endloop
  endfacet
  facet normal 1 0 0
    outer loop
      vertex 80 -1.69534 26.9467
      vertex 80 -3.196 25.2989
      vertex 80 -1.60116 25.4497
    endloop
  endfacet
  facet normal 1 -0 0
    outer loop
      vertex 80 -3.384 26.7871
      vertex 80 -3.196 25.2989
      vertex 80 -1.69534 26.9467
    endloop
  endfacet
  facet normal 1 0 0
    outer loop
      vertex 80 -3.384 26.7871
      vertex 80 -4.77822 25.0483
      vertex 80 -3.196 25.2989
    endloop
  endfacet
  facet normal 1 -0 0
    outer loop
      vertex 80 -5.05929 26.5218
      vertex 80 -4.77822 25.0483
      vertex 80 -3.384 26.7871
    endloop
  endfacet
  facet normal 1 0 0
    outer loop
      vertex 80 -5.05929 26.5218
      vertex 80 -6.34159 24.6989
      vertex 80 -4.77822 25.0483
    endloop
  endfacet
  facet normal 1 -0 0
    outer loop
      vertex 80 -6.71463 26.1517
      vertex 80 -6.34159 24.6989
      vertex 80 -5.05929 26.5218
    endloop
  endfacet
  facet normal 1 0 0
    outer loop
      vertex 80 -6.71463 26.1517
      vertex 80 -7.87993 24.2519
      vertex 80 -6.34159 24.6989
    endloop
  endfacet
  facet normal 1 -0 0
    outer loop
      vertex 80 -8.34346 25.6785
      vertex 80 -7.87993 24.2519
      vertex 80 -6.71463 26.1517
    endloop
  endfacet
  facet normal 1 0 0
    outer loop
      vertex 80 -8.34346 25.6785
      vertex 80 -9.38718 23.7093
      vertex 80 -7.87993 24.2519
    endloop
  endfacet
  facet normal 1 -0 0
    outer loop
      vertex 80 -9.93936 25.104
      vertex 80 -9.38718 23.7093
      vertex 80 -8.34346 25.6785
    endloop
  endfacet
  facet normal 1 0 0
    outer loop
      vertex 80 -9.93936 25.104
      vertex 80 -10.8574 23.0731
      vertex 80 -9.38718 23.7093
    endloop
  endfacet
  facet normal 1 -0 0
    outer loop
      vertex 80 -11.496 24.4303
      vertex 80 -10.8574 23.0731
      vertex 80 -9.93936 25.104
    endloop
  endfacet
  facet normal 1 0 0
    outer loop
      vertex 80 -11.496 24.4303
      vertex 80 -12.2847 22.3458
      vertex 80 -10.8574 23.0731
    endloop
  endfacet
  facet normal 1 -0 0
    outer loop
      vertex 80 -13.0073 23.6603
      vertex 80 -12.2847 22.3458
      vertex 80 -11.496 24.4303
    endloop
  endfacet
  facet normal 1 0 0
    outer loop
      vertex 80 -13.0073 23.6603
      vertex 80 -13.6636 21.5304
      vertex 80 -12.2847 22.3458
    endloop
  endfacet
  facet normal 1 -0 0
    outer loop
      vertex 80 -14.4673 22.7969
      vertex 80 -13.6636 21.5304
      vertex 80 -13.0073 23.6603
    endloop
  endfacet
  facet normal 1 0 0
    outer loop
      vertex 80 -14.4673 22.7969
      vertex 80 -14.9885 20.6299
      vertex 80 -13.6636 21.5304
    endloop
  endfacet
  facet normal 1 -0 0
    outer loop
      vertex 80 -15.8702 21.8435
      vertex 80 -14.9885 20.6299
      vertex 80 -14.4673 22.7969
    endloop
  endfacet
  facet normal 1 0 0
    outer loop
      vertex 80 -15.8702 21.8435
      vertex 80 -16.2543 19.6481
      vertex 80 -14.9885 20.6299
    endloop
  endfacet
  facet normal 1 -0 0
    outer loop
      vertex 80 -17.2104 20.8039
      vertex 80 -16.2543 19.6481
      vertex 80 -15.8702 21.8435
    endloop
  endfacet
  facet normal 1 0 0
    outer loop
      vertex 80 -17.2104 20.8039
      vertex 80 -17.456 18.5887
      vertex 80 -16.2543 19.6481
    endloop
  endfacet
  facet normal 1 -0 0
    outer loop
      vertex 80 -18.4828 19.6822
      vertex 80 -17.456 18.5887
      vertex 80 -17.2104 20.8039
    endloop
  endfacet
  facet normal 1 0 0
    outer loop
      vertex 80 -18.4828 19.6822
      vertex 80 -18.5887 17.456
      vertex 80 -17.456 18.5887
    endloop
  endfacet
  facet normal 1 -0 0
    outer loop
      vertex 80 -19.6822 18.4828
      vertex 80 -18.5887 17.456
      vertex 80 -18.4828 19.6822
    endloop
  endfacet
  facet normal 1 0 0
    outer loop
      vertex 80 -18.5887 17.456
      vertex 80 -19.6822 18.4828
      vertex 80 -19.6481 16.2543
    endloop
  endfacet
  facet normal 1 -0 0
    outer loop
      vertex 80 -20.8039 17.2104
      vertex 80 -19.6481 16.2543
      vertex 80 -19.6822 18.4828
    endloop
  endfacet
  facet normal 1 0 0
    outer loop
      vertex 80 -19.6481 16.2543
      vertex 80 -20.8039 17.2104
      vertex 80 -20.6299 14.9885
    endloop
  endfacet
  facet normal 1 -0 0
    outer loop
      vertex 80 -21.8435 15.8702
      vertex 80 -20.6299 14.9885
      vertex 80 -20.8039 17.2104
    endloop
  endfacet
  facet normal 1 0 0
    outer loop
      vertex 80 -20.6299 14.9885
      vertex 80 -21.8435 15.8702
      vertex 80 -21.5304 13.6636
    endloop
  endfacet
  facet normal 1 -0 0
    outer loop
      vertex 80 -22.7969 14.4673
      vertex 80 -21.5304 13.6636
      vertex 80 -21.8435 15.8702
    endloop
  endfacet
  facet normal 1 0 0
    outer loop
      vertex 80 -21.5304 13.6636
      vertex 80 -22.7969 14.4673
      vertex 80 -22.3458 12.2847
    endloop
  endfacet
  facet normal 1 -0 0
    outer loop
      vertex 80 -23.6603 13.0073
      vertex 80 -22.3458 12.2847
      vertex 80 -22.7969 14.4673
    endloop
  endfacet
  facet normal 1 0 0
    outer loop
      vertex 80 -22.3458 12.2847
      vertex 80 -23.6603 13.0073
      vertex 80 -23.0731 10.8574
    endloop
  endfacet
  facet normal 1 -0 0
    outer loop
      vertex 80 -24.4303 11.496
      vertex 80 -23.0731 10.8574
      vertex 80 -23.6603 13.0073
    endloop
  endfacet
  facet normal 1 0 0
    outer loop
      vertex 80 -23.0731 10.8574
      vertex 80 -24.4303 11.496
      vertex 80 -23.7093 9.38718
    endloop
  endfacet
  facet normal 1 -0 0
    outer loop
      vertex 80 -25.104 9.93936
      vertex 80 -23.7093 9.38718
      vertex 80 -24.4303 11.496
    endloop
  endfacet
  facet normal 1 0 0
    outer loop
      vertex 80 -23.7093 9.38718
      vertex 80 -25.104 9.93936
      vertex 80 -24.2087 8
    endloop
  endfacet
  facet normal 1 -0 0
    outer loop
      vertex 80 -25.6785 8.34346
      vertex 80 -24.2087 8
      vertex 80 -25.104 9.93936
    endloop
  endfacet
  facet normal 1 0 0
    outer loop
      vertex 80 -24.2087 8
      vertex 80 -25.6785 8.34346
      vertex 80 -25.7783 8
    endloop
  endfacet
  facet normal 0 -0.397188 0.917737
    outer loop
      vertex 0 -9.93936 25.104
      vertex 80 -11.496 24.4303
      vertex 80 -9.93936 25.104
    endloop
  endfacet
  facet normal 0 -0.397188 0.917737
    outer loop
      vertex 80 -11.496 24.4303
      vertex 0 -9.93936 25.104
      vertex 0 -11.496 24.4303
    endloop
  endfacet
  facet normal 0 -0.562079 0.827083
    outer loop
      vertex 0 -14.4673 22.7969
      vertex 80 -15.8702 21.8435
      vertex 80 -14.4673 22.7969
    endloop
  endfacet
  facet normal 0 -0.562079 0.827083
    outer loop
      vertex 80 -15.8702 21.8435
      vertex 0 -14.4673 22.7969
      vertex 0 -15.8702 21.8435
    endloop
  endfacet
  facet normal 0 -0.218192 0.975906
    outer loop
      vertex 0 -5.05929 26.5218
      vertex 80 -6.71463 26.1517
      vertex 80 -5.05929 26.5218
    endloop
  endfacet
  facet normal 0 -0.218192 0.975906
    outer loop
      vertex 80 -6.71463 26.1517
      vertex 0 -5.05929 26.5218
      vertex 0 -6.71463 26.1517
    endloop
  endfacet
  facet normal 0 -0.0940935 0.995563
    outer loop
      vertex 0 -1.69534 26.9467
      vertex 80 -3.384 26.7871
      vertex 80 -1.69534 26.9467
    endloop
  endfacet
  facet normal 0 -0.0940935 0.995563
    outer loop
      vertex 80 -3.384 26.7871
      vertex 0 -1.69534 26.9467
      vertex 0 -3.384 26.7871
    endloop
  endfacet
endsolid OpenSCAD_Model
